<?xml version="1.0" encoding="utf-8"?>
<!-- Generator: Adobe Illustrator 21.0.2, SVG Export Plug-In . SVG Version: 6.00 Build 0)  -->
<svg version="1.1" id="Layer_14" xmlns="http://www.w3.org/2000/svg" xmlns:xlink="http://www.w3.org/1999/xlink" x="0px" y="0px"
	 viewBox="0 0 24 24" style="enable-background:new 0 0 24 24;" xml:space="preserve">
<style type="text/css">
	.st0{fill:url(#SVGID_1_);}
	.st1{fill:#FFFFFF;}
</style>
<title>Icon_Social_Retina</title>
<radialGradient id="SVGID_1_" cx="6.98" cy="2.49" r="24.19" gradientTransform="matrix(1 0 0 -1 0 26.43)" gradientUnits="userSpaceOnUse">
	<stop  offset="0" style="stop-color:#FFD676"/>
	<stop  offset="0.25" style="stop-color:#F2A454"/>
	<stop  offset="0.38" style="stop-color:#F05C3C"/>
	<stop  offset="0.7" style="stop-color:#C22F86"/>
	<stop  offset="0.96" style="stop-color:#6666AD"/>
	<stop  offset="0.99" style="stop-color:#5C6CB2"/>
</radialGradient>
<circle class="st0" cx="12" cy="12" r="12"/>
<path class="st1" d="M15.1,19.8H8.9c-2.5,0-4.5-2-4.5-4.5V8.7c0-2.5,2-4.5,4.5-4.5h6.3c2.5,0,4.5,2,4.5,4.5c0,0,0,0,0,0v6.7
	C19.6,17.8,17.6,19.8,15.1,19.8L15.1,19.8z M8.9,5.3C7,5.3,5.5,6.8,5.5,8.7v6.7c0,1.8,1.5,3.3,3.3,3.3h0h6.3c1.8,0,3.3-1.5,3.3-3.3
	V8.7c0-1.8-1.5-3.3-3.3-3.3C15.1,5.3,8.9,5.3,8.9,5.3z"/>
<path class="st1" d="M12,16c-2.2,0-4-1.8-4-4c0-1.1,0.4-2.2,1.2-2.9C10,8.3,11,8,12,8c2.1-0.1,3.9,1.5,4,3.5c0,0.2,0,0.3,0,0.5l0,0
	C16,14.2,14.2,16,12,16z M11.9,9.1c-0.7,0-1.4,0.3-1.9,0.8c-0.6,0.6-0.9,1.3-0.9,2.1c-0.1,1.6,1.1,3,2.7,3.1s3-1.1,3.1-2.7
	c0-0.1,0-0.2,0-0.3c0.1-1.5-0.9-2.8-2.4-2.9c-0.2,0-0.3,0-0.5,0H11.9z"/>
<circle class="st1" cx="16.2" cy="7.7" r="1"/>
</svg>
