<svg xmlns="http://www.w3.org/2000/svg" viewBox="0 0 225 225"><defs><style>.a{fill:#fff}.g{fill:#39a348}.b,.h{fill:#db5252}.c{fill:#8f3c29}.d{fill:#b01e32}.e{fill:#010101}.b{stroke:#010101;stroke-miterlimit:10}.f{fill:#ff7300}</style> </defs> <circle cx="112.5" cy="112.5" r="112.5" class="a"/><path d="M64.1 121.8l-1.9 5.7-2.4 6.6a2.1 2.1 0 0 1-1.7.8 2 2 0 0 1-1-1.5 204 204 0 0 1-.5-7.8l-.5-11.2-.2-3.5c1.8-.6 2.1-.4 2.3 1.6l.4 8.3.4 6.2a24.5 24.5 0 0 0 .2 2.7l2.1-5.8 2.5-7.4c.2-.7 2-.8 2.3-.1a5.8 5.8 0 0 1 .4 1.8l.9 8.8a24.7 24.7 0 0 0 .5 3.8c.7-2.5 1.2-5 2-7.4l3.9-9.6c.3-.7.1-1.6 1.3-1.3.8.2 1.1.6.8 1.4l-1.3 3.3-3.6 10.4-1.5 5.4a10.9 10.9 0 0 1-1 2.5c-.2.4-.9.8-1.2.7-.5-.2-1.2-.7-1.3-1.2-.6-3.1-1-6.3-1.4-9.4a21.1 21.1 0 0 1-.2-3.5zM140.6 106.2l2.4-5.8 1.6-4.4a25 25 0 0 0 .9-2.5c.4-1.8 2.4-2.9 3.6-1.9a4 4 0 0 1 1.1 2.5c0 2.4-.3 4.8-.4 7.2 0 1.8.2 3.5.3 5.3l.1 5.9c0 .4-.6.9-.8 1.3-1.8-.9-1.6-2.5-1.7-4l-.2-7.9c0-2.2.2-4.3 0-6.6l-2.4 6.8-1.9 4.3-1.1 2.7c-.3.6-.9 1.3-1.4 1.3-1.1.1-1.7-1-1.9-1.9a50.5 50.5 0 0 1-1.2-5.6l-1.1-6.6h-.4l-.6 4.7-.6 9.6c0 .4-.5 1-.7 1a4.2 4.2 0 0 1-1.6-.4l.3-2.8.9-10.8a16.4 16.4 0 0 1 .5-3.2c.2-.7.7-1.7 1.2-1.7a3 3 0 0 1 2.2 1 7.3 7.3 0 0 1 1 2.8l.8 3.9zM67.5 89.4l1.8-5v-.3c-.3-.7-.4-1.3.7-1.2s1.7.6 1.4 1.6a24.6 24.6 0 0 1-1.8 5.2 4.5 4.5 0 0 0-.2 3.6 14.3 14.3 0 0 1-1.7 12.2c-1.3 2.1-3.5 2.1-5.6 1.9a6.7 6.7 0 0 1-5.2-4 13.7 13.7 0 0 1-1.5-8.2 14.6 14.6 0 0 1 .5-2l.6-1.7c.2-2.2 1.1-3.4 3.3-3.9a8.6 8.6 0 0 1 7.7 1.8zm-.2 4.2a9.3 9.3 0 0 1-9.1.7 3.5 3.5 0 0 0-.4.9 13.5 13.5 0 0 0 1 6.6c.8 2 2 3.4 4.4 3.3 1.8-.1 2.7-.2 3.3-1.9a22.6 22.6 0 0 0 1.4-5.7 16 16 0 0 0-.6-3.9zm-8.1-1.4a6 6 0 0 0 6.2-.1c.9-.7.9-1.2-.1-1.6a12 12 0 0 0-2-.8 2.4 2.4 0 0 0-2.5.6l-1.6 1.9zM111.1 102.6c1.8.1 3.7-.4 5.5 1.2a13.4 13.4 0 0 1-2.4 1.2 10 10 0 0 1-3-.1l1.2 6.2c-2.3.8-2.4.7-2.8-1.5l-.7-3.9c-.1-.6-.1-.9-.9-.9l-4.9-.2a1.5 1.5 0 0 0-.9.6 36 36 0 0 0-1.2 3.5c-.2.7-.7 1.1-1.4.8-.5-.3-1.2-.5-.9-1.4l2.6-6.8 3-7.2 1.4-3.9c.3-.9.8-1.7 1.9-1.6s1.2 1 1.4 1.8a62 62 0 0 1 1.6 10.5l.5 1.7zm-3.8-9.5h-.4l-1.3 3.8-1.7 4.5a1 1 0 0 0 .2.9h4.7zM164.3 107.4c.1 2 .4 3.9.4 5.7a2.6 2.6 0 0 1-1 1.9c-.8.3-1.5-.7-1.5-1.9v-5.9l-5.7-.5-1.8 4.6c-.2.6-.7 1.2-1.4.9a1.2 1.2 0 0 1-.7-1.5l.1-.2 2.3-6.8 2.9-8.3.9-2.2a2 2 0 0 1 2.7-1.1 2.5 2.5 0 0 1 1 .8 4.4 4.4 0 0 1 .7 1.9l1 9.8c0 .2.4.5.7.5 1.3.2 2.6.2 3.8.5.8.2.6.8.2 1.3-.9 1-2.1.7-3.2.7a6.8 6.8 0 0 1-1.4-.2zM161 95h-.3l-3.4 9.5 4.7.3zM84.5 102.2a17.2 17.2 0 0 1 2.5-8.6 9.8 9.8 0 0 1 4.5-4.3 8.2 8.2 0 0 1 6.5.1 1.4 1.4 0 0 1 .6 1.2c-.1.6-.7.7-1.3.5-2.6-.7-5.1-.5-6.9 1.7a12.7 12.7 0 0 0-3.4 7.4 8.2 8.2 0 0 0 3 7.6 2.9 2.9 0 0 0 3.7.4 4.2 4.2 0 0 0 1.1-2.3c.3-1.3.3-2.7.6-4.1.2-1.1-.4-1.5-1.3-1.5h-2a4 4 0 0 1-1.8-1 .7.7 0 0 1-.1-.6c.3-.3.7-.8 1.1-.7a50.7 50.7 0 0 1 5.4.9c1.3.3 1.3 1.6 1.1 2.6l-1.1 6.9A3.3 3.3 0 0 1 93 111h-.1a6.7 6.7 0 0 1-4.6-1.6 9 9 0 0 1-3-4.4 16.8 16.8 0 0 0-.8-2.8zM151 118.9c-.7 2.9-3.1 2.8-4.5 3.7l3.2 8.4c.5 1.2 1.2 2.2 1.6 3.4a2.8 2.8 0 0 1-.1 1.8 1 1 0 0 1-1.7.2 15.9 15.9 0 0 1-1.8-3.4l-2.4-7.2a3.1 3.1 0 0 0-.5-1c-.8-1.3-.9-1.3-2.2-.5a7.8 7.8 0 0 1-1.8 1.1c-1.4.4-1.4 1.3-1.3 2.6.2 2.2.2 4.5.3 6.7a1.1 1.1 0 0 1-1 1.3h-.3a2.1 2.1 0 0 1-1.3-1.6c-.2-2.2-.1-4.5-.1-6.8v-.1c-.2-.8-.9-2.2-.7-2.3.9-.6.7-1.6.8-2.3l.1-4a27.1 27.1 0 0 1 .1-2.8 1.2 1.2 0 0 1 1-.7c.6 0 1.3.1 1.2 1l-.2 5.4v1.4l4.3-2c1.4-.6 2.9-1.6 4.4-2.1a24.8 24.8 0 0 1 2.9-.2zM122.9 119v4.7c-.1.9.3 1.1 1.1 1.1h4.6c.6 0 1.2.2 1 .9s-.1 1.5-1.2 1.4l-5.4-.2-.5 5.6c0 .3.6.8 1 .8l4.5-.3.6.1c.8 0 1.6.4 1.4 1.3s-1 1.1-1.9 1.1l-4.5.2c-2.7 0-3.8-.2-3.4-3.5.3-2.9.3-5.8.4-8.7.1-2 0-3.9.2-5.9 0-.3.7-.8 1.1-.8a50.7 50.7 0 0 1 5.5-.3 24.1 24.1 0 0 1 3.8.1c.5.1.9.7 1.3 1-.4.5-.5 1.3-1.5 1.3h-6.2a6.4 6.4 0 0 0-1.9.1zM101.9 131.8v4.4c0 .5-.7 1-1 1.5-.4-.3-1.1-.6-1.2-1a23 23 0 0 1-.3-3.7l.3-6.7.1-3.3c0-1.1-.2-2.1-.4-3.2s.3-1.6 1.1-1.6c1.9 0 3.8-.1 5.7.9s2.2 2.8 2.4 4.4c.4 2.4.3 4.8-1.7 6.6a5.2 5.2 0 0 1-5 1.7zm0-11.5a19.4 19.4 0 0 1 .2 2.4l-.2 6.1a1.1 1.1 0 0 0 .3.8 6.2 6.2 0 0 0 2.8-.9c1.6-1.4 1.6-3.3 1.2-5.2-.3-1.4-.8-2.9-2.6-3.2zM82.9 139.5c-1.2-.8-1.3-1.6-1-3.1a10.9 10.9 0 0 0 .3-2.6l.7-7a4 4 0 0 0-.4-2.6l-2-4.5-1.6-3.3a1.5 1.5 0 0 1-.1-1.1c.1-.1 1-.4 1.2-.2a9 9 0 0 1 1.8 2.1l2.3 5.3a1.1 1.1 0 0 0 1.1.3 9.5 9.5 0 0 0 1.9-1.6l4.9-4.7a2 2 0 0 1 1.8 0c.7.4.3 1-.1 1.5l-3 2.8a11.3 11.3 0 0 0-1 1.3 26 26 0 0 1-2.3 2.4 1.6 1.6 0 0 1-.8.6 1.9 1.9 0 0 0-1.5 1.9l-.7 8.5a12.6 12.6 0 0 1-.4 2.7c-.1.6-.7.9-1.1 1.3zM83.1 105.6c-.6 1.8-1.3 2.1-3.1 1.7-1.5-.3-3-.1-4.5-.3a4.2 4.2 0 0 1-3.4-1.7 2 2 0 0 1-.3-1.1l1.1-8 1-7.7c.1-1 .9-1 1.5-.8s1.1.6.6 1.4a2 2 0 0 0-.3 1.1l-1.2 11a24.5 24.5 0 0 0-.2 2.7c0 .2.2.7.4.7a15.3 15.3 0 0 0 3 .3 19 19 0 0 1 5.4.7zM160.3 118.2c2.1.3 2.1.3 2.1 2.1l-.2 7.7-.4 5.3c0 .5.3 1 .2 1.4a4.5 4.5 0 0 1-.8 1.9 1 1 0 0 1-1.1.2 2.4 2.4 0 0 1-.9-1.5l.5-6.8.4-7.8a25 25 0 0 1 .2-2.5zM115.1 128.4v6.5a4.2 4.2 0 0 1-.3 2.2c-.3.6-.8.7-1.2.4s-1-.8-1-1.2l.3-6.3c-.1-2.5-.4-4.9-.6-7.4a16 16 0 0 1-.1-3.1c0-.3.8-.9.9-.8.5.2 1.3.7 1.3 1.1a82.8 82.8 0 0 1 .7 8.6zM214.8 88.4a23 23 0 0 1-1.2 8.2c-.8 2.2-2.6 3-4.9 2.8l-9.9-.8c-3.5-.2-7-.2-10.5-.5a52 52 0 0 1-7.9-1.2 60.7 60.7 0 0 1-7-2.9c-1.5-.7-1.4-2.1-1.4-3.5a17 17 0 0 1 .7-3.8 4.9 4.9 0 0 1 1.7-2.5c2.6-1.6 5.4-3 8.1-4.4l6.2-3.6 7.3-4a12.7 12.7 0 0 0 1.9-1.3c.2-.2.1-.7.1-1.1a11.5 11.5 0 0 1-.1-2.6c.2-1.1.9-1.4 1.9-.8.5.3.6.2.8-.3l2.1-4.5a1.2 1.2 0 0 1 1.6-.8h.1c.8.3.8 1 .6 1.7l-.6 3.7c-.1.8.1.7.7.5a22.5 22.5 0 0 1 2.4-.8c.8-.2 1.8-.5 2.3.6a59.6 59.6 0 0 1 2.5 5.8 25 25 0 0 1 2 8.9c-.2 2.5.5 4.8.5 7.2zm-1.1.5c.1-2.2 0-2.1-2.2-1.8-2.6.3-5.2.4-7.8.5-4.3.2-8.6.4-12.9.4s-8.4-.2-12.5-.4a21 21 0 0 1-2.5-.2c-2.3-.3-2.3-.3-2.4 2a1 1 0 0 0 .6.8c1.1.2 2.3.2 3.4.5a43.6 43.6 0 0 0 13 1.4c1.7-.1 3.5.1 5.2.1s3.4-.2 5-.3v.2c2.4-.2 4.8-.3 7.1-.7a30.7 30.7 0 0 0 5.2-1.4 1.6 1.6 0 0 0 .8-1.1zm-.7 5.7c.1-.7-.2-.6-.6-.4a21.6 21.6 0 0 1-8.3 1.4c-3.1 0-6.2.2-9.3.5a41.5 41.5 0 0 1-6.1.2h-1.2a5.6 5.6 0 0 0 1.2.4l6.6.5a30.3 30.3 0 0 0 3.1.2h4.9l6.1.4c2.6.1 3.2-.4 3.6-3.2zm-.5-10a21 21 0 0 1 .4-3.3 22.5 22.5 0 0 0-.6-3.6l-2-6.8a16.1 16.1 0 0 0-1.7-3.5 2.3 2.3 0 0 0-1.2-.6l-.5.5-1 2.8c-.1.3 0 .9.1.9a1.4 1.4 0 0 1 1.2 1.6.7.7 0 0 1-.3.6c-.9 1.6-2.1 3.1-3.1 4.7a9.5 9.5 0 0 0-1 1.7c-.9 2-1.4 4.1-3.9 5-.6.2-1 1.2-1.5 1.8l1.7.2h.9l.2-.4.2-.9 1 .3c.1 1 .8.8 1.4.8l2-.2c.5 0 1 .2 1-.7 0-.2.5-.4.8-.4s.5.4.5.6c-.3.8.2.5.6.5a26.2 26.2 0 0 0 2.8-.1c.9-.2 2-.1 2-1.5zm-1.8 9c.6.2 1.6-.8 1.5-1.4a1.2 1.2 0 0 0-.5-.8c-.7.2-1.6 0-1.5 1.5.1.2.2.7.5.7zm-1.6-.2c0-.4-.4-.9-.8-1.6-.6.9-1.9.1-1.9 1.3 0 .4.6 1.3.8 1.2.7 0 1.9.4 1.9-.9zM205.4 69a2 2 0 0 0 .1-.8 2.2 2.2 0 0 0-.8.1l-.9.7c-.3.2-.5.2-.6.1a1 1 0 0 1-.3-.7l.7-5.7v-.8a2.6 2.6 0 0 0-.6.5l-.3.6c-.5 1.4-.9 2.8-1.5 4.1-.2.6-.4 1.5-1.5 1a5.6 5.6 0 0 1-.8-.5v1.2l1 3.3a1 1 0 0 1-.2.9c-.2.2-.6.1-.9 0l-.6-.4-.5-.2a1.3 1.3 0 0 0 .1.6 38.3 38.3 0 0 0 2.5 4.4 1.4 1.4 0 0 0 1.9.5l.3-.2a35.8 35.8 0 0 0 2.6-2.9 17.4 17.4 0 0 0 1.1-1.8c-.4-.3-.6-.7-.9-.7-.8-.1-1.1-.5-.8-1.2zm-1.7 25.6c.8-.4 1.7.2 1.6-1a2 2 0 0 0-.5-.9c-.6.3-1.9-.3-1.8 1-.1.4.4.6.7.9zm-2.8 0c.9 0 1-.6.9-1.2-.1-.3-.6-.5-1-.8-.6.3-1.4.6-1.4.9 0 1 .7 1.2 1.5 1.1zm.4-14.3c.1-.3 0-1-.2-1.1-1.4-.6-2.3-2.2-4.1-2a6.8 6.8 0 0 0-1.4.2 3 3 0 0 0-.8.4 4.3 4.3 0 0 0 .7.4c1.2.5 1.3 1 .4 1.8a3.7 3.7 0 0 1-1.4.7l-1.8.6a3.3 3.3 0 0 0-.3.6l.5.2c.8 0 .9.3.4.9l-2.3 2.7-.2.5h.5l2.1-.9c.8-.4 1.5-1.1 2.2-1.5a1.4 1.4 0 0 1 .9 0 1.7 1.7 0 0 1 .1.8l.1.8.7-.6c.6-.7 1-1.8 1.6-1.9 1.7-.1 1.9-1.4 2.3-2.6zm-4.1-4l.7.1-.2-.7a7.2 7.2 0 0 1-.9-2c-.2-.8-.6-.7-1.1-.4l-7.9 4.5-7.9 4.5c-1.7 1-3.3 1.9-4.9 3-.2.1-.2.4-.4.7l.6.2 5.2.1 7.2.4a2.8 2.8 0 0 0 1.3-.3l2.6-2.4c.5-.5.4-.8-.1-1.1-.8-.6-.7-1.2.1-1.7l2.8-1.4.6-.3-.5-.3a6.9 6.9 0 0 0-.8-.3c-.7-.4-.8-1-.1-1.3a26.4 26.4 0 0 1 3.6-1.4l.1.1zm-.7 18.9c.8-.3 1.7.1 1.7-1.1 0-1.4-1.3-.8-1.9-1.2a8.4 8.4 0 0 0-.5 1.7c0 .2.4.4.7.6zm-1.2-8.9c0-.2-.3-.4-.4-.6l-.8.6.6.6.6-.6zm-1 8.8l.6-.5c-.2-.5-.3-1.3-.7-1.4a6.9 6.9 0 0 0-2.5-.2c-.2 0-.4.3-.4.5-.1 1.5.2 1.8 1.6 1.8a7.8 7.8 0 0 0 1.4-.2zm-4.6.2a2 2 0 0 0 .4-1.2c0-1.5-1.1-1-1.8-1-1.6.1-1.6.1-.8 1.4l.1.3a16 16 0 0 0 2.1.5zm-4-.4c.5 0 .7.1.5-.6a2.2 2.2 0 0 0-2.3-1.5c-.7 0-1.2 0-1.3 1s.6.8 1 .8a6.7 6.7 0 0 0 2.1.3zm-2.4 1.1l-.4-.3-.6.3.4.2a1 1 0 0 1 .6-.2zm-2-2.2c.1-.4-.2-1.2-.5-1.3a10.2 10.2 0 0 0-2.5-.6l-.6.1a2.3 2.3 0 0 0 .9 2.2l1.5.3.2.2c.4-.4 1-.6 1-.9zm-4.9-.7c.5-1.2-.3-2-2.2-2a2.4 2.4 0 0 0-.8.2 1.1 1.1 0 0 0 .1.8l2.4 1.4c.2.1.5-.2.5-.4z"/> <path d="M205.5 68.2a2 2 0 0 1-.1.8l-.9 2.1c-.3.7 0 1.1.8 1.2.3 0 .5.4.9.7a17.4 17.4 0 0 1-1.1 1.8 35.8 35.8 0 0 1-2.6 2.9l-.3.2a1.4 1.4 0 0 1-1.9-.5 38.3 38.3 0 0 1-2.5-4.4 1.3 1.3 0 0 1-.1-.6l.5.2.6.4c.3.1.7.2.9 0a1 1 0 0 0 .2-.9l-1-3.3v-1.2a5.6 5.6 0 0 0 .8.5c1.1.5 1.3-.4 1.5-1 .6-1.3 1-2.7 1.5-4.1l.3-.6a2.6 2.6 0 0 1 .6-.5v.8l-.7 5.7a1 1 0 0 0 .3.7c.1.1.3.1.6-.1l.9-.7a2.2 2.2 0 0 1 .8-.1zM201.1 79.2c.2.1.3.8.2 1.1-.4 1.2-.6 2.5-2.3 2.6-.6.1-1 1.2-1.6 1.9l-.7.6-.1-.8a1.7 1.7 0 0 0-.1-.8 1.4 1.4 0 0 0-.9 0c-.7.4-1.4 1.1-2.2 1.5l-2.1.9h-.5l.2-.5 2.3-2.7c.5-.6.4-.9-.4-.9l-.5-.2a3.3 3.3 0 0 1 .3-.6l1.8-.6a3.7 3.7 0 0 0 1.4-.7c.9-.8.8-1.3-.4-1.8a4.3 4.3 0 0 1-.7-.4 3 3 0 0 1 .8-.4 6.8 6.8 0 0 1 1.4-.2c1.8-.2 2.7 1.4 4.1 2z" class="g"/> <path d="M197.4 76.1h-.3.3zM211.8 82.3v.3c-.3.1-.5.3-.8.2a2.2 2.2 0 0 1-.8-.5c.3-.2.5-.6.8-.6s.5.4.8.6zM211.3 75.9l-1.1 1.2-.9-1c.3-.2.5-.7.8-.7a6.1 6.1 0 0 1 1.2.5zM208.3 78.4l.7.8a3.6 3.6 0 0 1-.7 1l-.7-.6a2.4 2.4 0 0 1 .7-1.2zM208.4 69.8c.2 0 .5.4.7.6l-1 .7-.7-.6a1.7 1.7 0 0 1 1-.7zM207.6 76.1v.3a4.9 4.9 0 0 1-1.1.4l-.4-.4a3 3 0 0 1 .7-.5c.2-.1.5.2.8.2zM205.7 117.4c1.3 2 1.1 3.5-1.4 5.8a14 14 0 0 1-2.7 2.1 5.1 5.1 0 0 1-5.8 0 17 17 0 0 1-3.9-3.2 6 6 0 0 1-.9-2.2h.3a7.3 7.3 0 0 1 2.7-6.5 3.2 3.2 0 0 1 2.1-.8 25.6 25.6 0 0 1 5.5.5c1.8.3 2.9 1.8 3.7 3.4a3.5 3.5 0 0 0 .4.9zm-2.6 5.9a4.2 4.2 0 0 0 2-4.3c-.1-.9-.8-1.1-1-1.8a5.8 5.8 0 0 0-5-3.5 5.7 5.7 0 0 0-6.5 4.5 4.1 4.1 0 0 0-.1 1.1 14.2 14.2 0 0 0 .7 2.2 6.6 6.6 0 0 0 4.1 3 5.3 5.3 0 0 0 2.5.5 8.7 8.7 0 0 0 3.3-1.7z"/> <path d="M205.1 119a4.2 4.2 0 0 1-2 4.3 8.7 8.7 0 0 1-3.3 1.7 5.3 5.3 0 0 1-2.5-.5 6.6 6.6 0 0 1-4.1-3 14.2 14.2 0 0 1-.7-2.2 4.1 4.1 0 0 1 .1-1.1 5.7 5.7 0 0 1 6.5-4.5 5.8 5.8 0 0 1 5 3.5c.2.7.9.9 1 1.8z" class="h"/> <path d="M204.6 82.2a3.3 3.3 0 0 1 1 .3 5.8 5.8 0 0 1-1.1.7c-.3.1-.4-.4-.5-.6a1.5 1.5 0 0 1 .6-.4zM195.8 138.1a7 7 0 0 1 3 6.8 9 9 0 0 1-8.7 7.1 8.6 8.6 0 0 1-6.6-2.1 13.2 13.2 0 0 1-1.9-2.9 19.9 19.9 0 0 1-.9-2.6c.4-2.7 1-5 3.3-6.6a9.2 9.2 0 0 1 2.7-1.6 8.2 8.2 0 0 1 2.7.1c2.2.3 4.4.4 6.4 1.8zm.2 10.2c2-1.4 2.2-5.9.8-7.8-1.9-2.4-4.4-3.1-7.2-3.2a6.4 6.4 0 0 0-4.9 1.3 6 6 0 0 0-1.9 7c.6 1.5 1.3 3.1 2.8 3.8a33.3 33.3 0 0 0 5.1 1.6c2.2 0 3.7-1.5 5.3-2.7z"/> <path d="M196.8 140.5c1.4 1.9 1.2 6.4-.8 7.8-1.6 1.2-3.1 2.7-5.3 2.7a33.3 33.3 0 0 1-5.1-1.6c-1.5-.7-2.2-2.3-2.8-3.8a6 6 0 0 1 1.9-7 6.4 6.4 0 0 1 4.9-1.3c2.8.1 5.3.8 7.2 3.2z" class="h"/> <path d="M190.7 78.1l-.5.6c-.3-.4-.6-.6-.6-.8s.3-.4.5-.7zM187.5 79.8l.6.7a2.7 2.7 0 0 1-.7.8 1.5 1.5 0 0 1-.6-.5 6 6 0 0 1 .7-1zM186.1 83.8l.5.4a5.5 5.5 0 0 1-.6.8l-.6-.7a3 3 0 0 0 .7-.5zM184.9 43.9c.1 2.1 0 4.2-.1 6.2 0 .6-.3.8-.7 1.2-1.9 2.1-4.6 2.8-6.9 4.3A16.4 16.4 0 0 1 175 57l-6.1 3.9-8.1 5.3c-1.8 1.2-3.6 2.2-5.5 3.3a29.8 29.8 0 0 0-2.9 2 35 35 0 0 1-10.1 5.8 1.6 1.6 0 0 1-2.1-.6.6.6 0 0 1-.1-.4l-.8-5.7c-.1-2.5 1.4-4.5 2.5-6.5l7.5-13.8c1.6-2.8 3.1-5.7 4.8-8.5 2.7-4.7 5.4-9.3 8.3-13.9 1.9-3 4.1-4 7.6-2.4 2.8 1.3 5.7 2.6 7.7 5a56 56 0 0 1 5.9 7.9 12 12 0 0 1 1.3 5.5zm-5.1 9c2.6-1.2 4.6-2.9 4.3-6.2l-.3-2.7c-.1-.7-.2-.6-.7-.3l-3.7 2.6a1.8 1.8 0 0 0-1 1.8l.2 4c0 1 .4 1.2 1.2.8zm2.7-10.2a1.8 1.8 0 0 0 .7-2.4 15.9 15.9 0 0 0-1.8-3.4c-2.2-2.5-3.8-5.6-6.8-7.3l-6.1-3.2a4.5 4.5 0 0 0-2.3-.1c-.4 0-1 .1-1.1.3l-3.3 4.6-.3 1 1-.4c1.6-1.2 3.2-2.3 4.6-2.2 2.5 0 4.7 2.1 4.5 3.5l-.7 3.4v.6l.6-.1a10 10 0 0 1 5.1-.8 6.6 6.6 0 0 1 4.6 2.3 3.8 3.8 0 0 1 .7 3.8c-.1.2.1.4.2.6zm-2.1-.6a3.5 3.5 0 0 0 .2-1 5.6 5.6 0 0 0-.4-1.2c-.1-.2-.3-1-.7-.1-.1.2-.6.2-.9.3v-.7c.9-.7.1-1-.3-1.2a16 16 0 0 0-3-.6l-.4.5a8.7 8.7 0 0 0-.2 1l-.5.1a3.4 3.4 0 0 1 0-1c.4-.8-.1-.6-.5-.5a1.2 1.2 0 0 0-.7.7c-.3.6-.6.8-1.1.2a1 1 0 0 0-.8-.2 5.5 5.5 0 0 0-2.5 3.6 2.5 2.5 0 0 1-.4.7l-.4-.2v-.8l.1-.8a2 2 0 0 1 0-1.1l1.4-3.2a5.7 5.7 0 0 0-.1-1.3c0-.3 0-.8.2-.8.8-.3.8-.9.5-1.5a3.1 3.1 0 0 0-3.1-2 5.8 5.8 0 0 0-4.1 2c-.7.7-2.1.8-2.1 2a2.2 2.2 0 0 0 .2 1v.3l-.1.1-.7-.4a.6.6 0 0 0-.6 0l-2 2.6-.3.6.7-.3a5.6 5.6 0 0 1 1.7-.9 5.2 5.2 0 0 1 6.1 2.7c.1.1-.1.5-.3.7-.4.5-.9 1-.2 1.6.1.1-.2.6-.4.8l-.7.4c-.2.2-.2.5-.3.7h.7l4-1.4a1 1 0 0 0 .4-.3 2.1 2.1 0 0 1 .4-.4 3.2 3.2 0 0 0 .6-.5c.1.2.4.4.4.6-.1 1 .3.8.9.6a1.2 1.2 0 0 1 .9.3c.2.7.4 1 1.1.5a.6.6 0 0 1 .6.1.5.5 0 0 1 0 .5c-1.1.7-.4 1.7-.6 2.6-.1.2.2.5.3.7l.1-.6a2.3 2.3 0 0 1 .3-1 5 5 0 0 1 .7-.9l.3 1 .1.7c.2 0 .5 0 .8-.2l1-.5v-.3a1.7 1.7 0 0 1-.1-.8 2.8 2.8 0 0 1 .9.1 1.9 1.9 0 0 1 .7.2l.1-.7c0-.8.2-1 1-.7.2.1.6.2.7.1a1.3 1.3 0 0 0-.2-1.9.8.8 0 0 0-.4-.2 1.3 1.3 0 0 1-.6-.5l.3-.5a1.9 1.9 0 0 1 .8.2l.5.4zm-4 12.7a1.5 1.5 0 0 0 1.1-1.6v-4.1h-.2a2.8 2.8 0 0 0-.1-.9c-.1-.2-.5-.4-.6-.3l-3.3 1.8a1.6 1.6 0 0 0-1 1.7v4.8a3.5 3.5 0 0 0 .2 1 4.2 4.2 0 0 0 1-.4 29.8 29.8 0 0 1 2.9-2zm-5.3-6.6a3.6 3.6 0 0 0 .4-2.2 2.4 2.4 0 0 0-2.5-1.5 11.5 11.5 0 0 0-6.3 2.7l-1 .8a.9.9 0 0 1-.5.1l-.1-.6c.7-1.4 1.3-2.8 2.1-4.1.5-.9.8-3 .3-3.5a3.1 3.1 0 0 0-3.4-1c-3 .9-4.5 3.5-6.3 5.7a3 3 0 0 0-.4 1h1l.6-.2a1.3 1.3 0 0 1 1.6 1v.1a6.5 6.5 0 0 1-.9 5.4l-.2.5a1.3 1.3 0 0 0 .6-.1 12 12 0 0 1 4.8-1.7c1.9-.3 2.6.3 2.6 2.5v.7a4.9 4.9 0 0 0 1.1-.4 13.7 13.7 0 0 1 2-1.3c2-.8 3.8-1.8 4.5-3.9zm.2 9.3v-5.2l-.1-1.2-1 .5-1.2.6c-2.1.8-2.7 2.5-2.6 4.6l.4 3.3c.1.5.3.8.9.4.9-.6 1.9-1 2.8-1.7a2.2 2.2 0 0 0 .8-1.3zm-6 4.3a1.4 1.4 0 0 0 .4-1.2l-.1-5.6v-.6l-.5.2-.7.4c-2.1.8-2.4 2.8-2.9 4.5a16 16 0 0 0 0 3.1h-.1l.1 1c.1.7.5.6.9.3a26.4 26.4 0 0 0 2.9-2.1zm-3.4-8.8l.7-.4a8.3 8.3 0 0 0-1.2-.8 1.9 1.9 0 0 1-.4.3zm-.6 2.1c.8-.6.6-1.4-.2-1.9a2.7 2.7 0 0 1-.7-.8 1.4 1.4 0 0 1-.2-.3 6.8 6.8 0 0 0-1.4.2c.1.2.3.3.3.5a3.8 3.8 0 0 1 0 1.5c0 .2-.4.3-.6.4l-.2-1.2v-.1c0-.7-.1-.8-.8-.4l-3.3 2.3a2.5 2.5 0 0 1-1.2.2l.3-.9a41 41 0 0 0 2.2-4.1c.4-.7.8-1.6-.2-2.3-.1-.1 0-.5 0-.8l.1-.6h-.5c-.1.1-.6.4-.5.6.1.8-.4.9-.8.6-.7-.5-.9 0-1.2.4A24.6 24.6 0 0 0 149 54a11.1 11.1 0 0 1-.7 1.6l-.5.5-3.1 5.8c-.3.5-.8.8.2 1.1.1 0 .3.4.2.6a1.2 1.2 0 0 1-.5.5.6.6 0 0 1-.5-.3c-.2-.8-.4-.2-.5 0a3.7 3.7 0 0 1-.6 1c-.3.3-.7.8.3.8l.3.7c-.3 0-.7.2-.8.1-.4-.9-.6-.2-.8.1l-.9 1.8a1.7 1.7 0 0 0 .1 1.2 1 1 0 0 0 1.1 0l6.7-4.9c.3-.2.1-1 .3-1.3s1 .2 1.3 0a50.9 50.9 0 0 0 4.5-3.1c2.1-2 4.2-3.5 6.2-5.1zm-.8 2.7l-1.6 1-.2.1c-.9.8-2.4 1.1-2.7 2.6l-.4 2.8.4 3a.8.8 0 0 0 .8.3 38.8 38.8 0 0 0 3.3-2.3 1.5 1.5 0 0 0 .3-1v-4.4l.1-2.1zm-6.6 11.8a1.8 1.8 0 0 0 1.1-1.9l-.2-3.2v-2.1c0-.7-.2-.6-.6-.3l-2.9 2c-1.7 1.1-2 2.8-1.7 4.6l.4 2.3h-.1l.1.8.7-.3a24.6 24.6 0 0 1 3.2-1.9zm-5.6 3.6c.5-.3 1.6-.6.2-1.2v-.6l.2-.9-.4-2.9-.1-.8-.7.3a14.3 14.3 0 0 0-2 1.4c-1 .8-2.7 1.2-2.1 3.2l.5 3a.8.8 0 0 0 .9.4l3.5-1.9zm-5.4 2.1l-.6-4.2c0-.2-.2-.4-.4-.6-.5.3-1.1.6-1.1.8l.6 4.5a2.5 2.5 0 0 0 1 .2.8.8 0 0 0 .5-.7z"/> <path d="M183.2 40.3a1.8 1.8 0 0 1-.7 2.4l-.4.2c-.1-.2-.3-.4-.2-.6a3.8 3.8 0 0 0-.7-3.8 6.6 6.6 0 0 0-4.6-2.3 10 10 0 0 0-5.1.8l-.6.1v-.6l.7-3.4c.2-1.4-2-3.5-4.5-3.5-1.4-.1-3 1-4.6 2.2l-1 .4.3-1 3.3-4.6c.1-.2.7-.3 1.1-.3a4.5 4.5 0 0 1 2.3.1l6.1 3.2c3 1.7 4.6 4.8 6.8 7.3a15.9 15.9 0 0 1 1.8 3.4zM171.5 46a3.6 3.6 0 0 1-.4 2.2c-.7 2.1-2.5 3.1-4.5 3.9a13.7 13.7 0 0 0-2 1.3 4.9 4.9 0 0 1-1.1.4v-.7c0-2.2-.7-2.8-2.6-2.5a12 12 0 0 0-4.8 1.7 1.3 1.3 0 0 1-.6.1l.2-.5a6.5 6.5 0 0 0 .9-5.4v-.1a1.3 1.3 0 0 0-1.6-1l-.6.2h-1a3 3 0 0 1 .4-1c1.8-2.2 3.3-4.8 6.3-5.7a3.1 3.1 0 0 1 3.4 1c.5.5.2 2.6-.3 3.5-.8 1.3-1.4 2.7-2.1 4.1l.1.6a.9.9 0 0 0 .5-.1l1-.8a11.5 11.5 0 0 1 6.3-2.7 2.4 2.4 0 0 1 2.5 1.5z" class="c"/> <path d="M180.3 157.3c2.4.1 3.8 1.3 3.8 3.1a3.7 3.7 0 0 1-3.4 3.4c-2.1 0-4.1-1.6-4-3.1a3.5 3.5 0 0 1 3.5-3.4zm2.3 3.8a2.5 2.5 0 0 0-.9-2 5 5 0 0 0-2.7-.2 1.5 1.5 0 0 0-1.1 1.6l.1.4a3.5 3.5 0 0 0 2.6 1.8 2 2 0 0 0 2-1.6z"/> <path d="M181.7 159.1a2.5 2.5 0 0 1 .9 2 2 2 0 0 1-2 1.6 3.5 3.5 0 0 1-2.6-1.8l-.1-.4a1.5 1.5 0 0 1 1.1-1.6 5 5 0 0 1 2.7.2z" class="h"/> <path d="M181.7 84a2 2 0 0 1-.3 1l-.9-1a4.3 4.3 0 0 1 .7-.4 1 1 0 0 1 .5.4zM180.2 186.3a7 7 0 0 1-3.7 7.2 38 38 0 0 1-5.6 3.1 59.8 59.8 0 0 1-7.1 2.5 58.1 58.1 0 0 1-5.8.9c-2.5.3-4.2-1-5.4-3-2-3.4-3.8-7-5.9-10.4-2.3-3.8-3.7-7.9-5.4-11.9a56.2 56.2 0 0 1-2.5-5.6c-1-3.1-2.5-6.2-2.2-9.6a7.4 7.4 0 0 1 1.7-4.3l3.4-4.3.9-.9a1.6 1.6 0 0 1 2.3-.1l.1.1 6.2 5.4a66.2 66.2 0 0 0 6.4 4.4 50.4 50.4 0 0 0 4.9 3.1c.7.4.4.8.2 1.2a1.1 1.1 0 0 1-.9 0l-3-1.8c-2.4-1.6-4.9-3.1-7.1-4.8l-7-6a1.6 1.6 0 0 0-.7-.4l-.1.8c0 2.4 1.6 4.2 2.4 6.2 1.6 3.6 3.4 7 5.1 10.7 1.4 3 2.8 6 4.1 9.2l1.2 2.7 1.4 3.6c.4 1.2 1 1.6 2.2 1.3a35.8 35.8 0 0 1 4.5-1 14.6 14.6 0 0 0 5-1.1 10 10 0 0 0 6.3-5.8c.5-1.3 0-2.5-1.5-3.7l-6.2-4.7c-.6-.4-.8-.4-.9.4s-.6 1.6-.8 2.5a2 2 0 0 0 .7 2.5 3.4 3.4 0 0 1 .9 4.7 5 5 0 0 1-.7.8c-1.7 1.7-5.6 2.4-7.6 1a4.6 4.6 0 0 1-1.2-1.4 5.3 5.3 0 0 1-.5-1.1 4.8 4.8 0 0 1 2.1-5.4c1.1-.8 2.3-.4 3.4-.3a1.7 1.7 0 0 0 2-1.3v-.2a10.6 10.6 0 0 1 .6-2.4 1.3 1.3 0 0 0-.6-1.8l-.9-.6a9 9 0 0 1-1.2-1c-.5.8-1.6 1-1.5 2.5a3 3 0 0 1-2.6 3.6 2.2 2.2 0 0 1-1.4-.1c-1.3-.2-2.7-.4-3.6-1.8s-.1-4 1.9-4.7c1.6-.6 2.9 0 4.1.9a1 1 0 0 0 1.4-.1l.1-.1 1.1-1.2 3.3-3.5a13 13 0 0 0 1-1.5 2 2 0 0 1 2.4-.6 6.3 6.3 0 0 1 4.1 4.4 28.4 28.4 0 0 1 .6 3l-.6 2.7a14.8 14.8 0 0 1-2.7-1 25 25 0 0 1-2.3-2.3l-.5-.6a1.4 1.4 0 0 1-.2.6c-.4.9-.1 1.5.7 2l6.9 5.3 2.2 2a.8.8 0 0 1 .2.6c.7 3.7 1.4 7.1 1.9 10.5zm-1.6 1c.3-.2.1-1.2.1-1.8a4.5 4.5 0 0 0-1.2.1.8.8 0 0 0-.5.2l-7.3 4.1a17 17 0 0 1-4.3 1.5 29.7 29.7 0 0 1-5.2.8c-1.5.1-1.8.1-1.8 1.9 0 1.2 1 .2 1.4.6a26.4 26.4 0 0 0 2.9-.2 37.5 37.5 0 0 0 11.3-4.2 45.3 45.3 0 0 0 4.6-3zm.1 2a.6.6 0 0 0-.1-.4l-.3.1-9.6 4.8-.2.7-.1.7c-.3-.1-.8-.1-.8-.3-.3-1.1-.7-.5-1.1-.1l-3.4.7-.4.5c-.2.1-.3.6-.5.6s-.7-.2-.7-.4c0-.8-.5-.6-.9-.5a4.9 4.9 0 0 1-1.2.1 2.8 2.8 0 0 0-2.5 2.2l.1.5a3 3 0 0 0 .9.2v-.6a1.3 1.3 0 0 1 .6-.7 1.2 1.2 0 0 1 .8-.1l.9.1a5.7 5.7 0 0 1-.8.7l-.5.2.6.3 3.7-.7.3-.6.3-.8.7.6.5.3 3.6-1.1c.4-.1.5-.7.9-.9a3 3 0 0 1 1-.4l.9-.1c.7-.3 1.6-.3 1.6-1.2a2 2 0 0 0 0-.5c0-.1.9-.5 1-.4.5.5.8.3 1.2 0l.9-.5a4.3 4.3 0 0 0 2.6-3zm-.5-7.5a7.7 7.7 0 0 0-.2-1.5c-.1-.3-.3-.7-.6-.7a1.6 1.6 0 0 0-1.3.3l-2.5 2.4c-.1.1.1.4.1.5l.1 2.2a.3.3 0 0 0-.2.1c-.6.2-.8-.1-.8-.7a3 3 0 0 0-.5-1.2l-1.1.6c-.1.1.2.5.2.7a2.8 2.8 0 0 1-.1.9l-.9-.4-.1-.4a1 1 0 0 0-.8-.1c-.2.1-.3.4-.4.6s-.1.7-.3.8-.8-.1-.8-.2c-.1-.7-.4-.4-.9-.3a52.3 52.3 0 0 1-5.4 1.2c-1 .1-1.2.4-1 1.3-1.2-.1-1.4.1-1.6 1.6v1.3a1.6 1.6 0 0 0 .8.6c.2.1.5-.1.7-.1a2 2 0 0 1-.4-.6 2.8 2.8 0 0 1-.1-.9c.3 0 .7-.1.8 0 .7 1.2 1.4.1 2.2.1.4 0 1.1-.9 1.3 0s-.7.6-1.1.7l-.6.3c.2.1.5.3.7.2a18.3 18.3 0 0 0 2.5-.6 4.3 4.3 0 0 0 .7-.4 1.7 1.7 0 0 1-.7-.1 4.3 4.3 0 0 1-.7-.6c.2-.2.4-.5.6-.5a15.5 15.5 0 0 1 2.1.4 5 5 0 0 0 4.4-2.3 1.3 1.3 0 0 1 .9-.6c1.1.8 1.9-.2 2.3-.8s.1-1.5.1-2.3a1.6 1.6 0 0 0-.3-.9l.6-.2a1.6 1.6 0 0 1 .3.9c0 .7.8 1.5 1.4 1.3a3.1 3.1 0 0 0 1.1-.9 3 3 0 0 1-.9-.2l-.5-.6.6-.4a.6.6 0 0 0 .3-.5zm-4.9-14.9a4 4 0 0 0-.6-3.4 14.8 14.8 0 0 0-2.6-3c-.1-.1-.7.1-.7.2l-.2 2.1c-.1 1.4 2 4.1 3.4 4.5.1.2.6-.2.7-.4zm-5.4-4.1a5.2 5.2 0 0 1-.2-1.1l-.7.6-1.9 2c-.5.5-.5.9.1 1.3a2 2 0 0 0 1 .6 1 1 0 0 0 .9-.3l.8-3.1zm-2.6 17.3c1.7-.3 2.6-2.1 2.2-3a5.3 5.3 0 0 0-3.4-3.1 4.1 4.1 0 0 0-2.9.2 3.3 3.3 0 0 0-1.8 3.9c.6 1.8 1.3 2.3 3.6 2.3a20.8 20.8 0 0 1 2.3-.3zm-4.4-11c.2-.4-.4-1.4-.9-1.8a5.2 5.2 0 0 0-2.3-1 2.2 2.2 0 0 0-2.2 1.2 1.2 1.2 0 0 0 .3 1.7l.2.1 3.1 1.4c.7-.5 1.6-.9 1.8-1.6zm-2.8 20.8a1.4 1.4 0 0 0 .2-.6l-.6-3.7c-.2-.8-.7-.6-1-.2-.7.8-1.1.5-1.7-.1 1.9-1.4 2-1.9.8-4l-.6-1.3c-.2-.6-.3-1.2-1.2-.8-.2.1-.5-.2-.8-.4a1.7 1.7 0 0 1 .2-.5c1.1-.4.4-1 .2-1.5-.4-1-1.6-1.7-1.4-3l-.5-.3-.9-.1a2.5 2.5 0 0 0 .4-.7 1.9 1.9 0 0 0 .2-.7 14.2 14.2 0 0 0-.8-1.8 1.4 1.4 0 0 0-.4-.3c-.3-.1-.7-.1-.8-.3s.1-.6.1-.9l-.1-1c-.9-.2-.8-.7-.7-1.3a3.4 3.4 0 0 0-2.4-3.2 3.5 3.5 0 0 0-1 .2l.3.7.7 1.3.3 1.1c.3.6.1 1.7 1.4 1.2l.4.4a.9.9 0 0 1-.3.6l-.6.6 1.4 3.4.9 1.9a1.9 1.9 0 0 1 .2.7c-.1.8 0 1.2 1 1 .2-.1.6.2.8.3a3.5 3.5 0 0 1-.4.9 1.6 1.6 0 0 1-.7.4 5.5 5.5 0 0 0 .9.7c.5.3 1.1.4.3 1.1a.8.8 0 0 0-.1.7l2.6 4.9 2 2.8.6 1.2c.5.5.8.6 1.1.6zm-.7 2.6l.2-.7a3.5 3.5 0 0 0-.6-.9 33 33 0 0 1-2.6-3.9c-1.6-2.9-3.4-5.7-4.4-8.9-.7-2.2-1.7-4.2-2.5-6.3l-3.1-8.2-2.7-8.1-.5-1.6-.6-.2c-.2.6-.7 1.2-.5 1.7a229.7 229.7 0 0 0 4.7 13.6l3.7 10.6a48.7 48.7 0 0 0 6.9 13.4 10.1 10.1 0 0 0 1.6 1.3 11.6 11.6 0 0 1 .4-1.8zm-1.2 3.3l-1.1.8-.6.4.8 1.2c.1.1.6 0 .6-.2a20.5 20.5 0 0 0 .5-2.4 5.8 5.8 0 0 1-1.4-1.3c-.4-.9-1.2 0-1.4-.5a11.1 11.1 0 0 1-.2-1.7l-.2-.2-2.6-4.1c-.3-.5-.1-1.3-1.3-1-.5.1-1 .2-.9.6.2.6.7 1.4 1.1 1.5 1 .2 1.1.1.6 1.1-.3.6-.1.9.5 1 1.1.2 1.1.2.4 1.1a.4.4 0 0 0-.1.3l1.9 3.2h.6zm-7.6-9.9c.8-.4 1-.9.4-1.7-.4-.5-.4-1.6-.8-1.7-.9-.3-.7-.6-.5-1.3.1-.3 0-1.2-.8-.5a1.9 1.9 0 0 1-1-.1c0-.6.3-.9.9-.8a1.2 1.2 0 0 0 .5-.5l-1.2-3a11.4 11.4 0 0 0-.4-2.2 2.5 2.5 0 0 0-1.5-1.6c-.2-.1-.2-.6-.2-.8a6 6 0 0 0-.8-3.4h-.3a4 4 0 0 1-.7-.2l.2-.8c.6-.6.3-.9-.2-1.3a12.9 12.9 0 0 0-.4-1.9c-.2-.6-.3-1.3-1.2-.9l-.4-.2c0-.1 0-.6.2-.6 1.5-.5.3-1.2.2-1.9l-.2-.7a14.3 14.3 0 0 0-.8-2.2l.1-.1-.2-.1a6.9 6.9 0 0 0-.4-1 .9.9 0 0 0-.7-.1 4.7 4.7 0 0 0-1 3.6c0 .5-.1 1.1.7 1v.8c-.1.3-.4.6-.3.9l1.1 3.8c0 .2.5.2.7.3l.7.1a6 6 0 0 1-.4.8c-.1.2-.5.4-.4.5l2.1 3.9.3.6c.2.8.1 2 .6 2.4 1.2.8.8 1.9 1.1 2.9.2.7.7 1.4.9 2.2s.6.9 1.2.7a7.4 7.4 0 0 0 .1 2.1 11 11 0 0 0 1.7 3 1.4 1.4 0 0 0 1.1 0zm-2.1-23.2c.1 0 .2-.8.1-1.1l-1.1-2.5c-.5-1.2-1.7-2-1.8-3.4 0-.4-.4-.7-.6-1.1l-.4.1a3 3 0 0 0-.2.9l1.2 3.7c.2.5.2.9.9.7.2 0 .5.3.7.5l-.2.4a1.1 1.1 0 0 0 0 1.7 2.3 2.3 0 0 0 1.4.1zm-4.3-9.2l.8-1-.7-1.1a5 5 0 0 0-.8 1.2c-.1.2.4.6.7.9z"/> <path d="M178.7 185.5c0 .6.2 1.6-.1 1.8a45.3 45.3 0 0 1-4.6 3 37.5 37.5 0 0 1-11.3 4.2 26.4 26.4 0 0 1-2.9.2c-.4-.4-1.4.6-1.4-.6 0-1.8.3-1.8 1.8-1.9a29.7 29.7 0 0 0 5.2-.8 17 17 0 0 0 4.3-1.5l7.3-4.1a.8.8 0 0 1 .5-.2 4.5 4.5 0 0 1 1.2-.1z" class="c"/> <path d="M172.7 163.5a4 4 0 0 1 .6 3.4c-.1.2-.6.6-.7.4-1.4-.4-3.5-3.1-3.4-4.5l.2-2.1c0-.1.6-.3.7-.2a14.8 14.8 0 0 1 2.6 3z" class="g"/> <path d="M167.5 177.1c.4.9-.5 2.7-2.2 3a20.8 20.8 0 0 0-2.3.3c-2.3 0-3-.5-3.6-2.3a3.3 3.3 0 0 1 1.8-3.9 4.1 4.1 0 0 1 2.9-.2 5.3 5.3 0 0 1 3.4 3.1zM160 167.3c.5.4 1.1 1.4.9 1.8-.2.7-1.1 1.1-1.8 1.6l-3.1-1.4-.2-.1a1.2 1.2 0 0 1-.3-1.7 2.2 2.2 0 0 1 2.2-1.2 5.2 5.2 0 0 1 2.3 1z" class="d"/> <path d="M157.6 191.8l-.2.7a11.6 11.6 0 0 0-.4 1.8 10.1 10.1 0 0 1-1.6-1.3 48.7 48.7 0 0 1-6.9-13.4l-3.7-10.6a141 141 0 0 1-4.7-13.6c-.2-.5.3-1.1.5-1.7l.6.2.5 1.6 2.7 8.1 3.1 8.2c.8 2.1 1.8 4.1 2.5 6.3 1 3.2 2.8 6 4.4 8.9a33 33 0 0 0 2.6 3.9 3.5 3.5 0 0 1 .6.9z" class="c"/> <path d="M177.3 42.8c.2.1.5.3.4.4a4 4 0 0 1-.5.9l-.4-.6a4.2 4.2 0 0 1 .5-.7zM178.2 38.8l-.7.6a5 5 0 0 1-.8-.7l.5-.5a8.8 8.8 0 0 1 1 .6zM177.2 40.7c.1-.1.4.2.8.4a7.6 7.6 0 0 1-1.1.8l-.5-.5.8-.7zM176.7 180.7l.7.6-.6.5a3.3 3.3 0 0 1-.6-.3 3.5 3.5 0 0 1 .5-.8zM176 42.3l-.3.5c-.2.1-.4.3-.6.2a.9.9 0 0 1-.4-.5.7.7 0 0 1 .5-.4 1.9 1.9 0 0 1 .8.2zM176.2 44.7c-.4.3-.6.6-.9.6s-.5-.3-.6-.5.3-.5.4-.5a8.2 8.2 0 0 1 1.1.4zM174.9 39.6l.4.5a4.3 4.3 0 0 1-.6.7 2 2 0 0 1-.4-.6l.6-.6zM174 41.1c.2 0 .4.3.7.5-.4.2-.6.5-.8.4s-.3-.4-.4-.6.4-.3.5-.3zM172.7 39.8c.1-.1.4.2.8.4l-.9.7-.5-.3a5.5 5.5 0 0 1 .6-.8zM171.7 41.3c.1 0 .5.4.4.5a8 8 0 0 1-.6.8c-.2-.4-.5-.7-.4-.8a1 1 0 0 1 .6-.5zM171.9 193.9l-.4 1.1-.5-.9zM171.2 39a2.7 2.7 0 0 1 .4.7 1.2 1.2 0 0 1-.5.5s-.4-.2-.3-.3a3.5 3.5 0 0 1 .4-.9zM171.8 187.1c-.5.3-.7.6-1 .6s-.4-.2-.6-.4c.2-.2.3-.5.5-.5l1.1.3zM169.2 32.9a2.2 2.2 0 0 1 .3.5c-.2.1-.5.4-.6.3-.4-.2-.8-.4-1.1.2h-.7c.1-.3.1-.8.3-.9l1.8-.1zM169.2 187.6c0 .2-.3.4-.6.9-.2-.5-.4-.8-.3-1.1l.5-.7c.1.4.4.6.4.9zM169.2 35.9c-.5.2-.7.5-.9.4a1.2 1.2 0 0 1-.5-.5c0-.1.3-.5.4-.4a3.1 3.1 0 0 1 1 .5zM168 37.5a1.6 1.6 0 0 1 .6.3 2.4 2.4 0 0 1-.8.6 2.7 2.7 0 0 1-.4-.5 2 2 0 0 0 .6-.4zM167.3 31.4l.8.4-.9.8-.4-.7a.6.6 0 0 1 .5-.5zM167 195.5l-.4.4c-.2.1-.3-.1-.4-.1a3.5 3.5 0 0 1 .4-.9 3.1 3.1 0 0 1 .4.6zM167.3 40.3c0 .2-.3.4-.5.6l-.5-.5c-.1-.2.2-.3.4-.6.3.1.6.3.6.5zM166.3 35.1c.3.3.6.6.5.7a1.6 1.6 0 0 1-.6.5c-.3.1-.4-.3-.4-.4l.5-.8zM166.6 38.1a1 1 0 0 1-.1.8l-.5.2-.6-1.8.5-.4a3.5 3.5 0 0 1 .7 1.2zM166.4 186.5l.6.3-.6.8c-.1-.2-.4-.4-.4-.6a.7.7 0 0 1 .4-.5zM166.3 42.3l.5.3-.6.7-.3-.4a2 2 0 0 1 .4-.6zM165.4 31.8a.8.8 0 0 1 .4.4 4 4 0 0 1-.5.9l-.5-.8a.6.6 0 0 1 .6-.5zM166.1 33.8c-.3.3-.5.5-.7.5s-.5-.3-.4-.4a.8.8 0 0 1 .4-.6l.7.5zM162.5 34.8c.6 0 2.1 1.8 2 2.4 0 .2-.2.3-.3.4s-.4-.1-.4-.3a6.9 6.9 0 0 1-.3-.8c-.2-.5-.2-1.1-1-.9a.8.8 0 0 1-.5-.6 2.4 2.4 0 0 1 .2-.8zM165.2 187.1c-.4.2-.6.5-.8.4a4 4 0 0 1-.9-.5c.2-.2.4-.5.7-.5s.5.3 1 .6zM163.8 33.6l-.5.4-.5-.7-.1-.4.4.2zM163.3 187.9l-.1.5a16 16 0 0 1-2.1.5 3.5 3.5 0 0 1-.2-1c.7 0 1.4.9 2.1-.1l.3.1zM161.5 36.5l-.3.4-.5-.8.1-.1zM160.8 187.7v.1-.1zM159.2 54.8l.5.5-.4.6c-.2-.2-.4-.3-.4-.6s.1-.3.3-.5zM157.5 55.7l.8.4-.8.7c-.1-.2-.4-.4-.4-.6a.7.7 0 0 1 .4-.5zM157.5 187l-.8 1.3v-1.4zM157 54.8l-.8.4c-.2 0-.3-.2-.5-.4l.5-.5a4.5 4.5 0 0 1 .8.5zM156.4 57.8l-.4.5a.9.9 0 0 1-.6-.3 6.1 6.1 0 0 1-.7-1.4 1.7 1.7 0 0 1 .5-.2 17.4 17.4 0 0 1 1.2 1.4zM155.2 183.2a2.7 2.7 0 0 1-.4.7c-.3-.3-.6-.5-.6-.7s.2-.4.4-.6l.6.6zM154.6 49.9a1.6 1.6 0 0 1 .3.6l-.6.7c-.1-.2-.4-.3-.3-.4a3.5 3.5 0 0 1 .6-.9zM154.1 58.1a1.9 1.9 0 0 0-.3.4l-.5.3a3 3 0 0 1-.2-.9c0-.2.4-.4.4-.4a1.7 1.7 0 0 1 .6.6zM153.9 48.9l.6.5-.6.3c-.1 0-.4-.3-.3-.4l.3-.4zM153.9 180.3c.1-.1.3.2.6.4l-.7.7-.5-.5a.9.9 0 0 1 .6-.6zM153.3 52.6l.4.3a2.7 2.7 0 0 1-.4.7c-.2-.3-.4-.4-.4-.6s.3-.4.4-.4zM153.7 59.9a1.2 1.2 0 0 1-.5.5l-.4-.3a1 1 0 0 1 .4-.5c.2-.1.3.2.5.3zM152.7 49.9l.4.9c0 .2-.2.4-.4.6-.1-.2-.4-.3-.4-.5l.4-1zM153 59c-.4.2-.6.4-.8.3a3.5 3.5 0 0 1-.8-.5l.6-.6a4 4 0 0 1 1 .8zM151.9 55.6a3.5 3.5 0 0 1 1-.2 13.3 13.3 0 0 1-1.4 1.9c-.1.1-.7-.1-1-.2a4.3 4.3 0 0 1 .6-.7 3 3 0 0 1 .8-.8zM152.4 54.1a2.6 2.6 0 0 1-.6.5 2.2 2.2 0 0 1-1.1.1.9.9 0 0 1-.6-.6 1.5 1.5 0 0 1 .2-.9 3 3 0 0 1 .5-.7l.4.7-.2.4a1.9 1.9 0 0 1 .8.2 3.3 3.3 0 0 0 .6.3zM151.5 61.4l-.6.5-.3-.6a6 6 0 0 1-.4-.8l-.3-.5a1.2 1.2 0 0 1 .5-.5 1.3 1.3 0 0 1 .5.3 7.6 7.6 0 0 1 .6 1.6zM150.9 50.9a1.2 1.2 0 0 0 .2.3l-.3.4-.2-.2a2.2 2.2 0 0 1 .3-.5zM149.9 171.8l.4.5-1.1.5v-.1zM149.6 57.6l.5.5a9 9 0 0 1-.9 1l-.3-.5a3.6 3.6 0 0 0 .7-1zM148.3 55.3l1.4.2-.6.5c-.7.4-.8-.1-.8-.7zM148.1 60.8l.8.4-.2.4a2.5 2.5 0 0 1-.8.1h-.9l-.8-.1.1-.7a1.6 1.6 0 0 1 .4-.7l.6-.5.4.7a1 1 0 0 1 .1.5zM148.3 56.9l.5.4-.6 1.1c-.2-.3-.4-.4-.3-.5a3 3 0 0 1 .4-1zM148.1 183.8l-.4.9a5.8 5.8 0 0 1-.5-1.4l.4-.4a4 4 0 0 1 .5.9zM147.7 165.2a3 3 0 0 1-.2.9l-.4-.2a1.4 1.4 0 0 0-.6-.2 4.3 4.3 0 0 1 .7-.6c.1-.1.5 0 .5.1zM147.3 63.3l.6.5a8.7 8.7 0 0 1-1.7.7c-.2 0-.5-.4-.8-.6l1.9-.6zM146 176.3c-.2.3.3 1.2-.6.8-.3-.1-.4-.6-.6-.8zM145.2 178.6l.3.7c0 .2-.3.3-.4.5l-.3-.5a2.7 2.7 0 0 1 .4-.7zM144.5 65.5l.5.5a4.3 4.3 0 0 1-.6.9 3 3 0 0 1-.4-.9c0-.2.4-.3.5-.5zM144.3 174.4c.2 0 .4.3.7.6l-.8.4c-.2 0-.4-.3-.4-.4.1-.3.3-.6.5-.6zM143.1 173.5c.1-.1.3.2.6.4l-.7.7c-.2-.2-.5-.4-.5-.6s.4-.4.6-.5zM143.7 170.6l-.8.4c-.2 0-.3-.3-.5-.5.2-.2.3-.4.6-.5s.3.3.7.6zM143 67.8a3 3 0 0 1-.5 1l-.4-1c0-.2.2-.4.4-.6.2.2.5.4.5.6zM142.3 166.1l-.5.6a.6.6 0 0 1-.7-.2.6.6 0 0 1 0-.6 1.7 1.7 0 0 1 .7-.1l.5.3zM141.5 169.3a8 8 0 0 1 .8.6l-.8.6a2 2 0 0 1-.4-.8c-.1-.1.2-.5.4-.4zM140.4 159.9l.2.7-.3.2-1.2-.3.1-.4 1.2-.2zM139.4 164c.3.4.5.6.4.7a1.2 1.2 0 0 1-.5.5s-.4-.3-.3-.4a1.2 1.2 0 0 1 .4-.8zM139.7 157.6l-.1.1-.1-.2z"/> <path d="M139.6 157.5l.1.2-.9.9a2.4 2.4 0 0 1-.6-.8c-.1-.3.4-.5.6-.6a1.6 1.6 0 0 1 .8.3zM137.4 41.8a4.7 4.7 0 0 1 .4 3.1 6.3 6.3 0 0 1-2.9 3.9 11.2 11.2 0 0 1-10.2.8c-4-1.5-5.4-7.3-1.7-10.3 2-1.7 3.7-1.8 6.7-2a9.5 9.5 0 0 1 7.7 4.5zm-2.9 5.9c2.1-1.1 3.3-3.9 1.3-5.8a16.4 16.4 0 0 0-3.7-2.6 7.1 7.1 0 0 0-8.4 1.1 4.7 4.7 0 0 0-.3 6.6l.5.5c1.6 1.3 3.3 1.7 6.1 1.8l4.5-1.6z"/> <path d="M135.8 41.9c2 1.9.8 4.7-1.3 5.8l-4.5 1.6c-2.8-.1-4.5-.5-6.1-1.8l-.5-.5a4.7 4.7 0 0 1 .3-6.6 7.1 7.1 0 0 1 8.4-1.1 16.4 16.4 0 0 1 3.7 2.6z" class="h"/> <path d="M134 189.4c-.2 2.9-1 5.1-2.9 6.5a8 8 0 0 1-5.2 1.1 7.4 7.4 0 0 1-5.4-2.3 6.8 6.8 0 0 1 .4-9.6l.3-.2c1.7-1.6 3.8-1.7 6.1-1.3a8.3 8.3 0 0 1 5.9 3.6 11.3 11.3 0 0 1 .8 2.2zm-4.7 5.9c2.3-.4 4.1-3.9 3.3-6.2-1.1-3.1-3.5-4.5-7.3-4.6a6.3 6.3 0 0 0-1.9.3c-3.4 1.1-4.4 6-1.8 8.8 2.1 2.3 4.9 2.2 7.7 1.7z"/> <path d="M132.6 189.1c.8 2.3-1 5.8-3.3 6.2-2.8.5-5.6.6-7.7-1.7-2.6-2.8-1.6-7.7 1.8-8.8a6.3 6.3 0 0 1 1.9-.3c3.8.1 6.2 1.5 7.3 4.6z" class="h"/> <path d="M107 22.8c0 2.2.3 4.5.2 6.7a111.4 111.4 0 0 1-2.8 18.1l-1.5 6.3-2.3 7.9a7 7 0 0 1-1.3 2.4c-1.3 1.8-3.6 2-5.8.5a20.7 20.7 0 0 1-3.8-2.8 13.4 13.4 0 0 1-2.7-4.4c-1.7-4.1-3.2-8.3-4.7-12.5l-3.7-10.7c-1-2.6-2.4-5-3.5-7.6a15.2 15.2 0 0 1-1.4-6.3 15.8 15.8 0 0 0-1-4.3c-.6-2.2.1-3 2.3-2.6a17 17 0 0 1 7.5 3 1 1 0 0 0 .8.2c2.1-.2 4.2-.4 6.3-.8.8-.1 1.4-1 2.2-1.4a31.1 31.1 0 0 1 4-2.2c1.4-.6 1.7-.3 2 1l.2 1.8h-.1c0 .7-.3 1.8.1 2.1a6.6 6.6 0 0 0 2.7 1.2c1.3.4 2.7.5 4 1 2 .9 2.4 1.9 2.3 3.4zm-1.1 10.1a86.1 86.1 0 0 0 0-8.8 10 10 0 0 0-.4-2.4c-.2-.7-.5-.7-1-.1l-.2.2-.2-.3c0-1.1-.8-1.1-1.5-1.1a5.6 5.6 0 0 0-.8-.5c-1.3-.4-1.4-.3-1.4 1a17.7 17.7 0 0 1-.1 2.3l-2.6 13.9a137 137 0 0 1-2.2 9.2c-.3 1.2-.3 2.5-.7 3.7-.5 1.7-1.2 3.2-1.8 4.9l-2.2 5.9c-.1.1-.1.4 0 .4l3.4 1.8.2-.2.7-.3.1 1.1v.6a2.6 2.6 0 0 0 3.2-.5 22.1 22.1 0 0 0 1.8-3.4 30 30 0 0 0 .8-3.2l2.2-8.3 1.1-5.1a44.6 44.6 0 0 0 .8-4.6l.8-6.2zm-6.5-11.2a14.4 14.4 0 0 0-.8-2.6c-.1-.3-.5-.4-.8-.6a2 2 0 0 0-.4.8c-.8 1.2-1.3 2.7-2.4 3.5-1.9 1.4-3.9 2.9-6.5 2.7a2.4 2.4 0 0 0-.8.2l-5.2 1.5a3.8 3.8 0 0 1-3.7-.8 23.3 23.3 0 0 1-2.8-2.6l-.9-.9.2 1.5a5.4 5.4 0 0 0 .5 1.1l4.8 11.2.6 1.5v-1.7c1-3.6 2.7-6.7 6.1-8.4.5-.2 1.5-.1 1.7.2a5.5 5.5 0 0 1 .7 2.5 7.2 7.2 0 0 1-2.7 6.7c-1.3 1-2.5 2.2-4.3 2.2-1.1 0-.9.4-.7 1.1l4.7 13.4a51.3 51.3 0 0 0 2.5 5.3c.1.3.5.4.8.6a5.5 5.5 0 0 0 .6-.8l1.6-4.6a22.5 22.5 0 0 0 2.3-7.5 35 35 0 0 1 1.3-5.6l1.5-6.8.8-4.7c.3-2.8.8-5.3 1.3-8.4zm-2.7-4.6a1.9 1.9 0 0 1-.2-.7L95 18.6l.7.4c1.2-.2.6-1.3 1-1.9zm-.4-2.8a2.4 2.4 0 0 0 .2-.8 1.1 1.1 0 0 0-.8 0c-4.6 2-7 4.5-7.5 9.6v.3l.1.8.5-.6a19.2 19.2 0 0 1 1.8-2.2 17.2 17.2 0 0 0 5.7-7.1zm-1.4 7a1.6 1.6 0 0 0 .5-1c-.3-.1-.7-.5-.9-.4a16.4 16.4 0 0 0-2.2 1.4l.3.3h.8v.1a8.3 8.3 0 0 0 1.5-.4zM92.7 23l-.2-.4c-1 0-2-.4-2.6.9l-.2.5.8.2 2.2-1.2zm-4.2-4.6c.4-1.2.5-1.2-.8-1.2h-.5v-.1l-2.7.5c-.2.2-.3.4-.2.6a129 129 0 0 1 1.8 3.7l.7 1.6.3.3.1-.4c.4-1.6.7-3.3 1.3-5zm0 12.4a.8.8 0 0 0-.2-.5l-.4.4-1.2 2.3-3.2 4.6-.2.5c0 .2.2.1.3.2l.4-.2c2.3-1.6 4.7-3.1 4.3-6.5l.2-.8zm-1.2-1.3l-.3-.3-1.7 1.3c.6.2 1 .5 1.1.4a5.5 5.5 0 0 0 .9-1.4zm-3.2 4.6l1.9-1.6c-.3-.2-.9-.7-1-.6a10.7 10.7 0 0 0-1.6 1.4 8.4 8.4 0 0 0 .7.8zm.6-10.7h.6a.8.8 0 0 0-.1-.5l-2.1-4.1a2.3 2.3 0 0 0-.7-.7 3 3 0 0 0-.2.8l.3 3.4a.7.7 0 0 0 .4.5zm-.2 2.1a5 5 0 0 0 1.3-.5 5.8 5.8 0 0 0-1.4-.5c-3.9-.8-6.9-3.2-9.5-6.1a2.2 2.2 0 0 1-.5-.3v.6a42.3 42.3 0 0 0 2.2 4.2 7.4 7.4 0 0 0 5 3.4l2.9-.8zm-.5 9.9a.6.6 0 0 0-.3-.6c-.9-.2-1.5.5-1.4 1.9l.2.4.5-.3a12.1 12.1 0 0 0 1-1.4zm-2.7-16.9c.2-1.2-.5-1.6-1.3-2.1-.5-.3-.8-.2-.8.5a16.6 16.6 0 0 0 .3 3.2c.2.7 1.1 1.1 1.7 1.7a4.7 4.7 0 0 1 .3-.9 6.5 6.5 0 0 1-.2-2.4zm-3.1 1.3l.2-.7c-.1-3.4-.3-3.7-2.6-4.2a4.9 4.9 0 0 0-1.2-.1c-.2 0-.4.4-.4.5l3.1 4a4 4 0 0 0 .9.5z"/> <path d="M96.5 16.4a1.9 1.9 0 0 0 .2.7c-.4.6.2 1.7-1 1.9l-.7-.4zM96.5 13.5a2.4 2.4 0 0 1-.2.8 17.2 17.2 0 0 1-5.7 7.1 19.2 19.2 0 0 0-1.8 2.2l-.5.6-.1-.8v-.3c.5-5.1 2.9-7.6 7.5-9.6a1.1 1.1 0 0 1 .8 0zM95.4 20.3a1.6 1.6 0 0 1-.5 1 8.3 8.3 0 0 1-1.5.4v-.1h-.8l-.3-.3a16.4 16.4 0 0 1 2.2-1.4c.2-.1.6.3.9.4zM92.5 22.6l.2.4-2.2 1.2-.8-.2.2-.5c.6-1.3 1.6-.9 2.6-.9zM88.3 30.3a.8.8 0 0 1 .2.5l-.2.8c.4 3.4-2 4.9-4.3 6.5l-.4.2-.3-.2c-.1-.1.1-.3.2-.5l3.2-4.6 1.2-2.3.4-.4zM87 29.2l.3.3a5.5 5.5 0 0 1-.9 1.4c-.1.1-.5-.2-1.1-.4l1.7-1.3zM86 32.5l-1.9 1.6a8.4 8.4 0 0 1-.7-.8 10.7 10.7 0 0 1 1.6-1.4c.1-.1.7.4 1 .6zM85.3 23.4h-.6l-1.8-.6a.7.7 0 0 1-.4-.5l-.3-3.4a3 3 0 0 1 .2-.8 2.3 2.3 0 0 1 .7.7l2.1 4.1a.8.8 0 0 1 .1.5zM85.8 25a5 5 0 0 1-1.3.5l-2.9.8a7.4 7.4 0 0 1-5-3.4 42.3 42.3 0 0 1-2.2-4.2v-.6a2.2 2.2 0 0 0 .5.3c2.6 2.9 5.6 5.3 9.5 6.1a5.8 5.8 0 0 1 1.4.5zM83.7 34.8a.6.6 0 0 1 .3.6 12.1 12.1 0 0 1-1 1.4l-.5.3-.2-.4c-.1-1.4.5-2.1 1.4-1.9zM80 16.4c.8.5 1.5.9 1.3 2.1a6.5 6.5 0 0 0 .2 2.4 4.7 4.7 0 0 0-.3.9c-.6-.6-1.5-1-1.7-1.7a16.6 16.6 0 0 1-.3-3.2c0-.7.3-.8.8-.5zM78.4 19.1l-.2.7a4 4 0 0 1-.9-.5l-3.1-4c0-.1.2-.5.4-.5a4.9 4.9 0 0 1 1.2.1c2.3.5 2.5.8 2.6 4.2z" class="g"/> <path d="M106.9 165.3c1.5.6 1.6 1.8 1.5 3.1l-.1 8.1-.2 4.7.2 2.8-.5 14.7v8.1c-.1 2-.5 3.9-2.7 4.7l-.1.1c-2.4 2.6-5.7 2.4-8.8 2.2s-6.1-.5-9.2-1a28.5 28.5 0 0 1-4.8-1.3c-1-.4-1.6-1.9-1.5-3.3a15.1 15.1 0 0 0 .2-3c-.3-5.2 1.7-9.6 4.1-14l3.4-6.2 5.1-8.1 5-8.3 3.2-4.4a5.6 5.6 0 0 1 1.7-.9c.2-.1.6 0 .6.1.7 1.3 1.9 1.5 2.9 1.9zm.3 4.2a3 3 0 0 0-1.5-3.3c-.2-.1-.5-.3-.7-.2a.8.8 0 0 0-.3.7v3.8l.2 7.1.3 3.3c-.1 2.5-.3 4.9-.3 7.4l.2 9.6v4.6l.9 4.8h-.2v.4l.2 1.6a6.4 6.4 0 0 0 .6-1.8l.4-20-.1-6.8.2-5.6.1-5.6zm-4.1 37.1c.6 0 1.5.3 1.3-.9a18.3 18.3 0 0 0-.6-2.5.4.4 0 0 0-.5-.1c-2.2 1.4-4.7 1.4-7.1 1.6a20.3 20.3 0 0 1-7.7-1.1l-5.9-1.9h-.1a4 4 0 0 0-.3 1.5 1.3 1.3 0 0 0 .4.9 28 28 0 0 0 11.8 2.3 50.6 50.6 0 0 1 8.7.2zm-.7 5.5c1.2-.1 2.1-.9 1.7-1.5s-1.3-.7-2-.8-1.3.4-1.9.4h-6.5a13.2 13.2 0 0 1-3.4-.4l-7-1.9c-.3-.1-.9-.1-1 .1a1.7 1.7 0 0 0 .9 2.3h.1c4.7 1.5 9.6 1.9 14.8 2.3zm.7-12.3c.7.2.7 0 .6-.6-.2-2.7-.3-5.5-.3-8.2l.2-12c0-1.4-.5-2.7-.4-4.1 0-3 .3-6 .4-9a5.6 5.6 0 0 0-.4-1.2 7 7 0 0 0-.9.6l-2.4 3.4-5.1 8.4-3.2 5.1c-.2.2-.6.6.2.7l.7.2c-.1.2-.2.6-.4.7a1 1 0 0 1-.8-.1c-.5-.8-.6-.1-.8.2a202.2 202.2 0 0 0-6.1 11.6l-1 2.3c-.7 1.8-.1 2.8 1.7 3.2l4.4 1.2c.6.2 1.2.4 1.7-.2.4-.4.8-.4.8.4a1 1 0 0 0 .6.7 3.8 3.8 0 0 0 2.1.2c.8-.3 2.3.7 2.3-1.1l.7-.3a2 2 0 0 0 .1.7 1.4 1.4 0 0 0 .2.7 4.6 4.6 0 0 0 3-1.1c.2-.2.8-.4.9-.3 1.1.7 1.3-.1 1.6-.9l-.3-.4h-.9l-.1-.4a1.5 1.5 0 0 1 .9-.4zm-.8 8.9c.3.2.5-.1.8-.4a5.5 5.5 0 0 0-.8-.6l-2.6-.6-.5.3a4.3 4.3 0 0 0 0 1.6l.4.3a.9.9 0 0 0 .6-.3v-.7l.3-.6.5.3c.2.1.1.5.2.5a2 2 0 0 0 1.1.2zm-4.1.6l.3-.9c-.1-1-.1-1-1.1-1.1a6.6 6.6 0 0 1-1.4-.1c-1.5-.2-1.5-.2-1.2 1.2.1.3.4.5.6.7l.6-.6a5.5 5.5 0 0 0 .6-.8l.6.7a1.8 1.8 0 0 0 1 .9zm-5.3-.1l.8-.9a7.3 7.3 0 0 1-.9-1c-.2.3-.5.5-.4.8a3.7 3.7 0 0 0 .5 1.1zm-2.3-.5l.8-.7-.8-.8-.5.5a9.3 9.3 0 0 0 .5 1zm-1.6-1l-.9-1.2c-.3.5-.7.8-.6.9a2.4 2.4 0 0 0 .9.8c.1.1.6-.5.6-.5zm-3.1 0c.1 0 .5-.4.4-.5l-1.1-1.7a4 4 0 0 0-.5.9c-.1 1 .6 1.1 1.2 1.3zm-1.8-1.5l-.6-.7a2.6 2.6 0 0 0-.5.9l.5.5z"/> <path d="M105.7 166.2a3 3 0 0 1 1.5 3.3l-.1 5.6-.2 5.6.1 6.8-.4 20a6.4 6.4 0 0 1-.6 1.8l-.2-1.6v-.4h.2l-.9-4.8v-4.6l-.2-9.6c0-2.5.2-4.9.3-7.4l-.3-3.3-.2-7.1v-3.8a.8.8 0 0 1 .3-.7c.2-.1.5.1.7.2zM104.4 205.7c.2 1.2-.7.9-1.3.9a50.6 50.6 0 0 0-8.7-.2c-4.2.3-8-.9-11.8-2.3a1.3 1.3 0 0 1-.4-.9 4 4 0 0 1 .3-1.5h.1l5.9 1.9a20.3 20.3 0 0 0 7.7 1.1c2.4-.2 4.9-.2 7.1-1.6a.4.4 0 0 1 .5.1 18.3 18.3 0 0 1 .6 2.5zM104.1 210.6c.4.6-.5 1.4-1.7 1.5l-4.3.5c-5.2-.4-10.1-.8-14.8-2.3h-.1a1.7 1.7 0 0 1-.9-2.3c.1-.2.7-.2 1-.1l7 1.9a13.2 13.2 0 0 0 3.4.4h6.5c.6 0 1.2-.5 1.9-.4s1.6.2 2 .8z" class="c"/> <path d="M104.3 24.3l-.4.8a1.6 1.6 0 0 1-.3-.9l.4-.3.3.4zM103.8 27a.8.8 0 0 1 .4.4 3.6 3.6 0 0 1-.7 1c-.1-.5-.3-.7-.2-.9a1.2 1.2 0 0 1 .5-.5zM103.7 31.1c.1.2-.3.5-.5.8l-.8-1.2.5-1a6.4 6.4 0 0 1 .8 1.4zM102.7 34.5l.5.6a3.1 3.1 0 0 1-.5 1c-.2-.2-.5-.5-.5-.7l.5-.9zM103.2 33.3v.3a.4.4 0 0 1-.5.2 10.8 10.8 0 0 1-1.9-.8 6 6 0 0 1 .7-1l1.7 1.3zM102.9 22.5l.7.5-1.3 1.6a2.2 2.2 0 0 1-.5-.4 7.1 7.1 0 0 1 1.1-1.7zM102.5 20.4l.2.6a6.9 6.9 0 0 1-.3.8l-.4-.3a2.8 2.8 0 0 1 .1-.9 1.4 1.4 0 0 0 .4-.2zM102.3 28c.2 0 .4.3.7.5-.3.2-.5.5-.7.5a1 1 0 0 1-.5-.6c-.1-.1.3-.4.5-.4zM102.4 26.7a3 3 0 0 1-.4.8c-.3-.3-.6-.5-.5-.6a1.2 1.2 0 0 1 .5-.5c.1-.1.4.2.4.3zM102 38.2l.7.6-.8.9a1.3 1.3 0 0 1-.4-.7c0-.2.3-.5.5-.8zM102.6 37.2l-.5.4a.7.7 0 0 1-.4-.5l.3-.5zM102.4 43.2l-.9.8c-.2-.2-.5-.5-.5-.8a.6.6 0 0 1 .6-.5c.3 0 .4.3.8.5zM101.7 29.8c.1.2.4.3.4.5s-.2.4-.4.6l-.5-.6.5-.5zM100.9 35.1s.3.3.2.4a1.8 1.8 0 0 1-.5.7 2.7 2.7 0 0 1-.4-.7 5.7 5.7 0 0 1 .7-.4zM100.9 40.6l.7.6-.8.6c-.1-.2-.3-.4-.2-.6a1.1 1.1 0 0 1 .3-.6zM100.6 46.7a1.4 1.4 0 0 1 .2.6l-.3.6a1.1 1.1 0 0 1-.8-.3l-1.2-1.5a1 1 0 0 1-.1-.8c0-.1.5-.3.6-.2l1.6 1.6zM102.5 192c.1-.1.4.1.7.3-.3.2-.5.5-.7.5s-.3-.2-.5-.3l.5-.5zM100.6 37.7a6.9 6.9 0 0 1-.3.8 7.8 7.8 0 0 1-.4-.7l.4-.6c0 .2.3.3.3.5zM100.8 39.8c-.4.2-.6.4-.8.3a2.6 2.6 0 0 1-.6-.5 3 3 0 0 1 .7-.5c.2 0 .4.4.7.7zM101.9 196.9c.2 0 .4.3.8.6l-1 .3-.3-.4.5-.5zM99.2 50.4c.2.3.5.8.4 1a6.9 6.9 0 0 1-1.1 1.3l-.4-.7a11.1 11.1 0 0 1 .7-1.6zM99.6 43.8a9.2 9.2 0 0 1-.3.9l-.8-.9c.2-.2.4-.4.6-.4a.7.7 0 0 1 .5.4zM100.2 41.9c-.4.3-.6.5-.8.5a.7.7 0 0 1-.5-.4l.4-.6a4.5 4.5 0 0 1 .9.5zM99.4 49.3l-.4.4-.7-.9.2-.2zM101.2 177.2a7.8 7.8 0 0 1 .7.4l-.8.4c-.2 0-.3-.2-.5-.3a2.6 2.6 0 0 1 .6-.5zM98.4 53.6l.7.9c-.3.2-.7.7-1.1.7s-.6-.4-.9-.7zM100.4 184.1c.1-.1.3.2.7.4a3.1 3.1 0 0 1-1 .5l-.5-.3.8-.6z"/> <path d="M98.1 47.8a3.5 3.5 0 0 0 .4.9l-.2.2-.6-.8zM100.8 193.9l-.9.6-.7-.7c.2-.2.5-.5.7-.5a4.7 4.7 0 0 1 .9.6zM99.9 188.6c.2 0 .4.3.8.6a1.9 1.9 0 0 1-1 .5c-.3 0-.5-.4-.5-.6a.8.8 0 0 1 .7-.5zM97.8 56.7a1.5 1.5 0 0 1-.2 1 2.1 2.1 0 0 1-1.1.4 3.8 3.8 0 0 1-1.5 0c-.2 0-.4-.3-.6-.5l.9-.5.2.3a7.5 7.5 0 0 1 1.2-.7zM99.7 200.9c0 .1-.4.6-.5.5a8.8 8.8 0 0 1-1-.6l.8-.9a6 6 0 0 1 .7 1zM97.6 49.9c.2 0 .3.2.5.5a3.4 3.4 0 0 0-.6.6 1 1 0 0 1-.3-.7c-.1-.2.2-.4.4-.4zM99.2 198a2.8 2.8 0 0 1-.5.8l-1-.9.7-.4a2.2 2.2 0 0 1 .8.5zM96.7 51.9c.2.2.5.5.4.6a1.8 1.8 0 0 1-.5.7l-.6-.5zM96.3 54.4l.2.6a1.8 1.8 0 0 1-.5.7c-.2-.2-.5-.4-.5-.6s.2-.3.4-.5zM96.3 60.2a.5.5 0 0 1-.6.8.5.5 0 0 0-.5 0 3.5 3.5 0 0 0-.8.5l-.7-1.3.1-.2a1.9 1.9 0 0 1 .7-.2 4 4 0 0 1 1.8.4zM97 199.3l.5.4-.8.9-.4-.6a1.6 1.6 0 0 1 .7-.7zM96.4 197a.8.8 0 0 1-.2.4 4.2 4.2 0 0 1-1 .4l-.4-.5.9-.6a2.1 2.1 0 0 1 .7.3zM96.1 192.3a4.4 4.4 0 0 1 .6.5 2.2 2.2 0 0 1-.8.5l-.5-.3zM95.8 180.4c.2 0 .4.2.8.5-.5.2-.7.5-.9.4l-.7-.5a6 6 0 0 1 .8-.4zM95.3 186.1c.2 0 .4.3.8.6a4.7 4.7 0 0 1-.9.6 1 1 0 0 1-.5-.6.9.9 0 0 1 .6-.6zM95.5 202.4l-.9.7-.8-.7c.3-.2.5-.5.8-.5s.6.3.9.5zM95.2 200l-.7.6a4.3 4.3 0 0 1-.6-.7c0-.1.3-.5.5-.5s.5.4.8.6zM93.3 200.6a2.6 2.6 0 0 1-.5.6c-.1.1-.3-.2-.6-.4l.7-.5c.2-.1.2.2.4.3zM92 191.1c.1-.1.3.1.8.3l-.9.6-.5-.4a1 1 0 0 1 .6-.5zM91.4 194.3c.2.3.5.5.4.6l-.5.5a1.8 1.8 0 0 1-.5-.7l.6-.4zM91.2 200.2l.6.5-.9.5-.3-.3a4.3 4.3 0 0 1 .6-.7zM90.7 197.7c.2.3.5.5.4.6l-.6.6c-.1-.2-.4-.4-.3-.5l.5-.7zM91.1 187.6c0 .2-.3.5-.6.9l-.5-1.2.5-.3c.1 0 .6.4.6.6zM89.4 199a1.7 1.7 0 0 1 .2.5 1.8 1.8 0 0 1-.5.7l-.3-.4.3-.6zM89.2 190.7c.2 0 .3.4.7.7a3.5 3.5 0 0 1-1 .2l-.3-.4c.1-.2.4-.5.6-.5zM88.2 195.2l.5.5-2.1 1.7c-.1-.3-.2-.6-.1-.7l1.7-1.5zM87.2 192.9l.3.4a1 1 0 0 1-.8.2c-.3-.1-.4-.3-.6-.5.2-.2.3-.4.6-.5s.3.2.5.4zM86.7 199.7a3 3 0 0 1 1 .5 3 3 0 0 1-1 .5c-.2 0-.4-.3-.4-.5a.7.7 0 0 1 .4-.5zM86.3 197.7l.4.4-.6.6-.5-.4zM85.6 195.7l-.4.6-.9-.6.2-.1zM84.1 198.8l.6.4c-.3.2-.5.5-.7.5s-.3-.3-.5-.5l.6-.4zM47.9 83.5c.3 1.1.8 2.4-.3 3.6-.3.3-.1 1-.1 1.6l-.4 4.7a9 9 0 0 1-.6 2.2 1.3 1.3 0 0 1-1.6.9.8.8 0 0 1-.4-.2c-1.6-.9-3.2-2-4.9-2.8-4.5-2.2-7.9-5.8-11.3-9.3L22.5 78a19 19 0 0 1-3.8-7.1l1.4-6.2a13 13 0 0 0 .7-3.3 5.3 5.3 0 0 1 2-3.8 64 64 0 0 1 5.4-5 12.1 12.1 0 0 1 3.2-2.2c1.7-.8 2.9-.4 3.6 1 1.5 2.9 2.9 5.7 4.2 8.7a142.3 142.3 0 0 1 8.7 23.4zm-2.1 10.8l.5-4.4h-.1c0-.6.2-1.2 0-1.6s-.8-.7-1.3-1a3.7 3.7 0 0 0-.5 1.1l-.2 4.9a2.7 2.7 0 0 0 .2 1.3c.2.3.7.3 1 .4a1.6 1.6 0 0 0 .4-.7zm-2.3-6a3.2 3.2 0 0 0-1.6-3.7l-.5-.2a.6.6 0 0 0-.1.4l-.3 3.8h.1V91a2.8 2.8 0 0 0 1.5 2.8l.6.3a1.5 1.5 0 0 0 .1-.7 43.5 43.5 0 0 1 .2-5.1zm-3.2-2.7c.2-1.5.1-2.8-1.3-3.8a6.1 6.1 0 0 1-1.5-1.7l-.1 2.6.1.6.5 7.2c.1.6 1.1 1.6 1.8 1.4.2-.1.3-.8.4-1.2a43.4 43.4 0 0 1 .1-5.1zm-3.5 3.9a10 10 0 0 0-.2-1.6c0-2.8 0-5.6-.2-8.4a3.8 3.8 0 0 0-.8-1.7 5.3 5.3 0 0 0-1.4-1.2c-.5-.4-.8-.3-.8.4v3.2a46.1 46.1 0 0 1 .2 5.5 4.6 4.6 0 0 0 2.4 4.1c.6.3.8.1.8-.3zm-4.1-2.9a.6.6 0 0 0 .1-.4l-.1-2.5v-7.1a5.7 5.7 0 0 0-.8-2.5 7.3 7.3 0 0 0-1.7-1.8l-.3-.3-.2.5-.4 5.9h.2V82a4 4 0 0 0 .4 1.8l2.4 2.6.4.2zm-3.9-14.3c.2-1.4-.5-2-1.1-2.8l-.7-.4a3.2 3.2 0 0 0-.3.9l-.4 6.2h.1a13 13 0 0 0 .1 3.4c.2.8 1.1 1.5 1.7 2.2a17 17 0 0 0 .4-2.2c.1-2.4-.2-4.9.2-7.3zm-3.2-1.7c.2-1.8.3-3.4-1.3-4.7l-.4-.4a1.4 1.4 0 0 0-.2.6 33.6 33.6 0 0 0-.8 9.5c-.1 1.4 1.1 1.8 1.6 2.6l.6.5a3 3 0 0 0 .2-.8c.1-2.5 0-4.9.3-7.3zm-2.7-6.1c.1-.6-.6-1.3-1-1.9a12.1 12.1 0 0 0-.5 1.4l-.1.2-1.4 6.6 1.4 3.2.3.2a.5.5 0 0 0 .3-.3 19.3 19.3 0 0 1 .1-2.4l.9-7z"/> <path fill="#9d3466" d="M47 84.3a1.3 1.3 0 0 1-.5 1.5 1 1 0 0 1-1.4-.1l-6.5-6.4-4.5-4.7c-.5-.5-.6-.8-.2-1.4.2-.3.1-.9.1-1.4l-1.7.2h-.6c-2.7-2.9-5.7-5.6-7.9-9-.4-.6-1.1-1.1-1.3-1.7s-.3-1.6 0-1.9l7.2-6.8.5-.3c2.8-1.5 3.3-1.5 4.9 1.7s3 6.5 4.4 9.7a1.3 1.3 0 0 1 .1.6l-.2 1c-.1.8 0 1 .9 1 .2 0 .3.3.4.5l2 4.7A80.2 80.2 0 0 1 47 84.3z"/> <path d="M44.6 82.3a4.4 4.4 0 0 1 .9.8c-.6.3-.9.6-1.2.6s-.5-.4-.8-.6a4.4 4.4 0 0 1 1.1-.8zM43.3 78c.2 0 .7.8.6 1a2.2 2.2 0 0 1-1 .9c-.2 0-.6-.5-1.1-1 .7-.5 1.1-.9 1.5-.9z"/> <path d="M40.7 142.1c1.9.6 2.5 1.8 1.8 3.9-1.3 3.6-5.2 4.5-7.9 1.7a6.4 6.4 0 0 1-.8-1.9 3.4 3.4 0 0 1 1.6-2.7 6.2 6.2 0 0 1 5.3-1zm.4 4.9c.9-1.1.8-3.1-.3-3.4a16 16 0 0 0-2.1-.5 4.5 4.5 0 0 0-1.6.3 2.6 2.6 0 0 0-1.9 2.2c-.1 1.3.9 1.6 1.7 2a3.6 3.6 0 0 0 1.1.4 3.4 3.4 0 0 0 3.1-1z" class="e"/> <path d="M40.8 143.6c1.1.3 1.2 2.3.3 3.4a3.4 3.4 0 0 1-3.1 1 3.6 3.6 0 0 1-1.1-.4c-.8-.4-1.8-.7-1.7-2a2.6 2.6 0 0 1 1.9-2.2 4.5 4.5 0 0 1 1.6-.3 16 16 0 0 1 2.1.5z" class="h"/> <path d="M41.2 72.7l.8.9-1 1.1c-.2-.3-.6-.6-.6-.8a8.3 8.3 0 0 1 .8-1.2zM41.2 127.2c.3 3.5-2.1 5.6-6 6.3-2.7.5-6.4-2.3-7-5.3-.3-1.3 1.1-5.2 2.2-5.3 1.8-.2 3.1-1.5 4.8-1.5a7.8 7.8 0 0 1 3.4.5c2.3 1.1 2.4 3.3 2.6 5.3zm-1.2.6a3.3 3.3 0 0 0 0-1.4 12.7 12.7 0 0 0-.6-1.8c-.4-1.2-2.4-2.5-3.6-2.1a26.7 26.7 0 0 0-4.6 2 3 3 0 0 0-1.4 4l.1.2c1.4 3.2 3.9 4.2 7.1 3.1 2.4-.8 3-1.6 3-4z"/> <path d="M40 126.4a3.3 3.3 0 0 1 0 1.4c0 2.4-.6 3.2-3 4-3.2 1.1-5.7.1-7.1-3.1l-.1-.2a3 3 0 0 1 1.4-4 26.7 26.7 0 0 1 4.6-2c1.2-.4 3.2.9 3.6 2.1a12.7 12.7 0 0 1 .6 1.8z" class="h"/> <path d="M39 102.6a6.2 6.2 0 0 1 1.2 7.4c-1.5 2.8-6 5-8.8 4a11.7 11.7 0 0 1-5.6-4.4c-.5-.7-.4-1.9-.6-2.8a7.8 7.8 0 0 1 2.3-5.8 4.7 4.7 0 0 1 3.9-1.4 11.4 11.4 0 0 1 7.6 3zm-4.9 10.6c3.2-.6 6-2.1 5.7-5.6a5.7 5.7 0 0 0-1.7-4.4c-2.2-2.2-5.1-2.7-8-2.6a3 3 0 0 0-1.9 1 6.7 6.7 0 0 0-.5 8.5 24.3 24.3 0 0 0 2.5 2 4.3 4.3 0 0 0 3.9 1.1z"/> <path d="M39.8 107.6c.3 3.5-2.5 5-5.7 5.6a4.3 4.3 0 0 1-3.9-1.1 24.3 24.3 0 0 1-2.5-2 6.7 6.7 0 0 1 .5-8.5 3 3 0 0 1 1.9-1c2.9-.1 5.8.4 8 2.6a5.7 5.7 0 0 1 1.7 4.4z" class="h"/> <path d="M39.6 76.4c0 .3-.5.7-.8 1.1l-1.3-1.4 1.4-1c.3.4.7.8.7 1.3zM39.7 70.2l-1.5 1.3a7.1 7.1 0 0 1-1-1.4c0-.1.6-.8.9-.8a4.5 4.5 0 0 1 1.6.9zM35.6 57.5c0 1.1-.8 2.2-1.5 2a2.4 2.4 0 0 1-1.2-1.4c-.2-1.1.8-1.3 1.6-1.4.5 0 .9.6 1.1.8zM35.4 64.1c.3 0 .6.3 1.2.6a8.3 8.3 0 0 1-1.3.7c-.2 0-.5-.4-.7-.6.3-.3.5-.7.8-.7zM31 65.1c.4 0 .8.8 1.2 1.2a1.6 1.6 0 0 1-1.4 1.6h-.3c-.3 0-.8-.6-.8-.8.3-.8.1-2 1.3-2zM30.4 59.4c.2.3.7.6.7.9s-.4.6-.7.9a3.1 3.1 0 0 1-.9-1.1c-.1-.2.3-.7.4-1zM30.1 55.6c.1-.1.4.2.9.4a11 11 0 0 1-1.1.6l-.5-.4.7-.6zM25.9 60.3c.2-.1.8.7 1.4 1.3-.6.6-1 1.2-1.5 1.3a1 1 0 0 1-1.2-.7v-.5a2.3 2.3 0 0 1 1.3-1.4z"/> <path d="M66.5 58.9c-.2 4.2-2.2 6.6-6.5 7a8.5 8.5 0 0 1-8.2-3.9 4.6 4.6 0 0 1-.6-4.1c.7-2.1 1.5-4.3 4-4.7 3.3-.5 6.7-.6 9.5 1.8a5 5 0 0 1 1.8 3.9z" class="b"/> <path d="M54.6 173l.9-1a10 10 0 0 0 1-1.2v-.4c-1.2 0-1-1.2-1.2-1.9a4.3 4.3 0 0 1 0-1.6c.2-1.2-1-2.3-2.7-2.3-1.9 0-3.6-1-3.6-3 0-2.7-1.7-3.9-4.3-3a1.4 1.4 0 0 1-.9-.2c-.1-.7-.5-.4-.8-.2l-1.3.6-.4.2.4.3c2.1.7 2.1.7 2.2 2.8v1.4a3 3 0 0 0 2.9 2.7.9.9 0 0 0 .5 0 2.1 2.1 0 0 1 2.6 1.3 1.7 1.7 0 0 1 .1.7c-.1 2.5.5 2.3 2.5 2.1h.5a1.6 1.6 0 0 1 1.6 1.3zm19.7-21.3l.4 2.7A12.2 12.2 0 0 1 73 160l-3.2 5.6-2.6 4-3.8 5.6-3.6 5a61.3 61.3 0 0 1-3.5 4.6 48.9 48.9 0 0 1-4 3.9c-.7.6-1.4.3-2.1-.2a5 5 0 0 0-2-.8c-1.2-.4-2.5-.5-3.8-.9-2.5-.8-5-1.7-7.4-2.7a27 27 0 0 1-3.7-2.1 38.7 38.7 0 0 1-3.7-3.2 3.6 3.6 0 0 1-.9-3.4v-.6c-.3-2.1.3-4 .7-6l.7-3.9a2.8 2.8 0 0 1 2.3-2.5c2.4-.7 4.4-2.1 6.6-3.2.8-.4 1.8-.6 2.6-1.1l5.4-2.9a68.9 68.9 0 0 1 13.1-5.6c3.3-1.2 6.7-2.3 10-3.7 2-.8 3.1 0 3.2 2.1a23 23 0 0 0 1 3.7zm-.8 3.3l-1-4.2c0-.2-.2-.3-.3-.4l-.2.4-2.6 4-8.5 12.2-4.3 5.8-6 7.5a2.3 2.3 0 0 0-.2 1.6c.5 1.6 1.5 3 .9 4.8v.9a5 5 0 0 0 1.2-.2 1.7 1.7 0 0 0 .6-.6l3.3-4c1.4-1.8 2.9-3.6 4.2-5.5l3.9-5.9 7.7-12.1a29.3 29.3 0 0 0 1.3-4.3zm-2.1-7.2c.1-.4.3-.9.2-1.1a1 1 0 0 0-1.1-.2l-5.6 2.2-.3.3.4.2c1.4.3 2 .9 1.9 2.1-.3.6-.1.7.5.7a1.4 1.4 0 0 1 1.1.2c.8.5 1.2.2 1.4-.5a4.3 4.3 0 0 1 .4-.7 20.2 20.2 0 0 0 1.1-3.2zm-3.7 7.3c.7-1.3.4-1.9-1.1-1.9-1 0-1.1-.4-1.1-1.2s0-1.6-1-1.7c-1.3-.1-2.7-.9-4.1-.1l-.6.3.5.4c.6.4 1.5.7 1.8 1.2a3.4 3.4 0 0 1 .2 2.2c-.1.7.1 1.2.8 1.1a3.9 3.9 0 0 1 3.3.6l.4.2a3.1 3.1 0 0 0 .9-1.1zm-2.7 4c.8-1.7.2-2.6-1.6-2.6h-.5c-1.9-.1-2.5-.8-1.7-2.5a1 1 0 0 0-.2-1.4l-.1-.1c-1-.7-2-1.4-3.3-1.1a18.4 18.4 0 0 0-2.5.9 2.5 2.5 0 0 0-.7.4 4.9 4.9 0 0 0 .7.3l1.8.5c1.7.6 1.9 1.1 1.5 2.8s-.2 1.9 1.6 1.7h.7c1.5-.1 2.3.2 2.7 1.1l.6 1.7a7.5 7.5 0 0 1 1-1.7zm-3 2.5c.2-1.9-.2-2.5-2.2-2.5h-.3v.1l-2-.3c-.9-.2-1.2-.7-.8-1.5l.3-.9c.5-1.4.3-1.5-1-2.1a2.4 2.4 0 0 0-.8-.2 21.6 21.6 0 0 0-3.5-.3c-.5 0-1.1.5-1.6.8l1.6.7c1.4.6 1.9 1.4 1.6 2.7a4.5 4.5 0 0 0-.3 1.6c0 .3.3.9.6.9a23.3 23.3 0 0 0 3.7.4 2.2 2.2 0 0 1 2.2 1.4l.8 2.9.1.5.3-.4a6.2 6.2 0 0 0 1.3-3.8zm-4.3 7.6a5.7 5.7 0 0 0 1-3.2 6 6 0 0 0-1-3.3 1.3 1.3 0 0 0-.8-.6l-3.9-.6c-.8-.1-1.5-.2-1.4-1.3l.3-2.2a1.2 1.2 0 0 0-.7-1.5l-3.2-.2a5.3 5.3 0 0 0-1.2.3l-.5.4.6.2c2 .2 3 1.2 3.2 3.3s1 3 3.2 3 3.3 1.2 3.2 3.8l.3 1.8c.1.7.6.6.9.1zm-4.5 4c.6-1.5.3-1.8-1.2-1.9l-.7.1a2 2 0 0 1-2.4-1.5v-.6c0-2-.3-2.3-2.3-2.1a2.9 2.9 0 0 1-3.3-2c-.3-1.2-.3-2.4-.5-3.6-.1-.4-.3-1-.6-1.1a7.6 7.6 0 0 0-2.1-.3h-.5c-.1-.9-.5-.4-.9-.2l-1.4.7c-.5.3-.7.3-.1.8a2.3 2.3 0 0 1 .6 1.6 20 20 0 0 1-.4 2.4c-.3 1.6.4 2.3 1.9 2.1h1c2.2-.2 2.8.3 2.6 2.4v.8c-.2.8.1 1.4 1 1.3a16.4 16.4 0 0 0 2.2-.2c2.1-.4 3.2.4 3.2 2.6a2 2 0 0 0 0 1.1c.2.5.4 1.1.8 1.3a2.2 2.2 0 0 0 1.6-.3 7.9 7.9 0 0 0 1.2-1.5v-1.3zm-2.8 5.4a3.5 3.5 0 0 1 .4-.9 2.8 2.8 0 0 0-.9.1 1 1 0 0 1-1.4-.4c-.7-.8-.4-1.6-.4-2.3 0-1.9-1.1-2.5-2.6-2a6 6 0 0 1-2.3.2 1.6 1.6 0 0 1-1.7-1.5l.1-1.9c0-.6-.1-1.1-.9-1l-2.1.2a1.7 1.7 0 0 1-2.1-1.2l-.1-.5c-.1-1.2 0-2.4 0-3.2.7-1.5-.2-1.8-.9-2a4.2 4.2 0 0 0-1.6.4c-2.4.9-2.5 1-1.5 3.3a13.6 13.6 0 0 0 2.1 3.7 37.2 37.2 0 0 0 4.9 4c1.6 1.2 3.3 2.5 5 3.6l3.6 2.1a1.4 1.4 0 0 0 2.2-.3l.2-.4zm-1 7.7c.3.1.7-.3 1-.5l-1.4-4.2-.5-.3c-2.1-1.2-4.3-2.3-6.4-3.7a67 67 0 0 1-6-4.5A18.2 18.2 0 0 1 33 170a10.5 10.5 0 0 1-1.4-2.8l-.3-.4-.2.2a54.8 54.8 0 0 0-1 5.6c-.2 2.4-.3 4.8 2.3 6.5s5 3.6 7.9 4.6 6.1 1.8 9.1 2.6z"/> <path d="M66.6 153.2c1.5 0 1.8.6 1.1 1.9a3.1 3.1 0 0 1-.9 1.1l-.4-.2a3.9 3.9 0 0 0-3.3-.6c-.7.1-.9-.4-.8-1.1a3.4 3.4 0 0 0-.2-2.2c-.3-.5-1.2-.8-1.8-1.2l-.5-.4.6-.3c1.4-.8 2.8 0 4.1.1 1 .1 1 .9 1 1.7s.1 1.2 1.1 1.2zM59.8 159.1c2 0 2.4.6 2.2 2.5a6.2 6.2 0 0 1-1.3 3.8l-.3.4-.1-.5-.8-2.9a2.2 2.2 0 0 0-2.2-1.4 23.3 23.3 0 0 1-3.7-.4c-.3 0-.6-.6-.6-.9a4.5 4.5 0 0 1 .3-1.6c.3-1.3-.2-2.1-1.6-2.7l-1.6-.7c.5-.3 1.1-.8 1.6-.8a21.6 21.6 0 0 1 3.5.3 2.4 2.4 0 0 1 .8.2c1.3.6 1.5.7 1 2.1l-.3.9c-.4.8-.1 1.3.8 1.5l2 .3v-.1zM56.5 170.4v.4a10 10 0 0 1-1 1.1l-.9 1.1v-1.4a1.6 1.6 0 0 0-1.6-1.4l-.5.1c-2 .2-2.6.4-2.5-2.1a1.7 1.7 0 0 0-.1-.7 2.1 2.1 0 0 0-2.6-1.4.9.9 0 0 1-.5.1 3 3 0 0 1-2.9-2.7v-1.4c-.1-2.1-.1-2.1-2.2-2.8l-.4-.3.4-.2 1.3-.6c.3-.2.7-.5.8.2a1.4 1.4 0 0 0 .9.1c2.6-.8 4.3.4 4.3 3 0 2.1 1.7 3.1 3.6 3.1 1.7 0 2.9 1.1 2.7 2.3a4.3 4.3 0 0 0 0 1.6c.2.7 0 1.8 1.2 1.9zM50.8 177.7a3.5 3.5 0 0 0-.4.9l-.2.4a1.4 1.4 0 0 1-2.2.3l-3.6-2.1c-1.7-1.1-3.4-2.4-5-3.6a37.2 37.2 0 0 1-4.9-4 13.6 13.6 0 0 1-2.1-3.7c-1-2.3-.9-2.4 1.5-3.3a4.2 4.2 0 0 1 1.6-.4c.7.2 1.6.5.9 2 0 .8-.1 2 0 3.2l.1.5a1.7 1.7 0 0 0 2.1 1.2l2.1-.2c.8-.1.9.4.9 1l-.1 1.9a1.6 1.6 0 0 0 1.7 1.5 6 6 0 0 0 2.3-.2c1.5-.5 2.6.1 2.6 2 0 .7-.3 1.5.4 2.3a1 1 0 0 0 1.4.4 2.8 2.8 0 0 1 .9-.1z" class="f"/> <path d="M76.8 178.6c1.1.3 1.2 2.3.3 3.4a3.4 3.4 0 0 1-3.1 1 3.6 3.6 0 0 1-1.1-.4c-.8-.4-1.8-.7-1.7-2a2.6 2.6 0 0 1 1.9-2.2 4.5 4.5 0 0 1 1.6-.3 16 16 0 0 1 2.1.5z" class="h"/> <path d="M77.1 182c.9-1.1.8-3.1-.3-3.4a16 16 0 0 0-2.1-.5 4.5 4.5 0 0 0-1.6.3 2.6 2.6 0 0 0-1.9 2.2c-.1 1.3.9 1.6 1.7 2a3.6 3.6 0 0 0 1.1.4 3.4 3.4 0 0 0 3.1-1zm1.4-1c-1.3 3.6-5.2 4.5-7.9 1.7a6.4 6.4 0 0 1-.8-1.9 3.4 3.4 0 0 1 1.6-2.7 6.2 6.2 0 0 1 5.3-1c1.9.6 2.5 1.8 1.8 3.9z" class="e"/></svg>
