<svg xmlns="http://www.w3.org/2000/svg" id="Warstwa_1" viewBox="0 0 198.4 198.4">
	<style>
		.st0 {
			fill: #39A348;
		}

		.st1 {
			fill: #DB5252;
		}

		.st2 {
			fill: #933A28;
		}

		.st3 {
			fill: #8F3C29;
		}

		.st4 {
			fill: #60A05B;
		}

		.st5 {
			fill: #B01E32;
		}

		.st6 {
			fill: #61BB48;
		}

		.st7 {
			fill: #629E5D;
		}

		.st8 {
			fill: #9D3466;
		}

		.st9 {
			fill: #010101;
		}

		.st10 {
			fill: none;
			stroke: #010101;
			stroke-miterlimit: 10;
		}

		.st11 {
			fill: #F6891F;
		}

		.st12 {
			fill: #FFFFFF;
		}

	</style>
	<rect x="0" y="0" width="198.4" height="198.4" fill="#fff"></rect>
	<path d="M46.6 111.7c-.6 1.9-1.2 3.8-1.9 5.7-.8 2.2-1.5 4.4-2.4 6.6-.4.5-1 .8-1.7.8-.5-.3-.9-.8-1-1.5-.2-2.6-.4-5.2-.5-7.8-.2-3.7-.3-7.4-.5-11.2 0-1.2-.1-2.4-.2-3.5 1.8-.6 2.1-.4 2.3 1.6.2 2.8.3 5.6.4 8.3.1 2.1.3 4.1.4 6.2 0 .9.1 1.8.2 2.7.7-1.9 1.4-3.9 2.1-5.8.8-2.4 1.6-4.9 2.5-7.4.2-.7 2-.8 2.3-.1.2.6.4 1.2.4 1.8l.9 8.8c.1 1.3.2 2.5.5 3.8.7-2.5 1.2-5 2-7.4 1.2-3.2 2.6-6.4 3.9-9.6.3-.7.1-1.6 1.3-1.3.8.2 1.1.6.8 1.4-.4 1.1-.9 2.2-1.3 3.3-1.2 3.5-2.4 6.9-3.6 10.4-.6 1.8-1 3.6-1.5 5.4-.2.9-.6 1.7-1 2.5-.2.4-.9.8-1.2.7-.5-.2-1.2-.7-1.3-1.2-.6-3.1-1-6.3-1.4-9.4-.2-1.2-.2-2.4-.2-3.5l-.3-.3zm76.5-15.6c.9-2.1 1.7-3.9 2.4-5.8.6-1.5 1-3 1.6-4.4.3-.8.7-1.7.9-2.5.4-1.8 2.4-2.9 3.6-1.9.7.7 1 1.6 1.1 2.5 0 2.4-.3 4.8-.4 7.2 0 1.8.2 3.5.3 5.3.1 2 .1 3.9.1 5.9 0 .4-.6.9-.8 1.3-1.8-.9-1.6-2.5-1.7-4-.1-2.6-.2-5.2-.2-7.9 0-2.2.2-4.3 0-6.6-.8 2.3-1.6 4.5-2.4 6.8-.6 1.5-1.3 2.9-1.9 4.3-.3.9-.7 1.8-1.1 2.7-.3.6-.9 1.3-1.4 1.3-1.1.1-1.7-1-1.9-1.9-.5-1.8-.9-3.7-1.2-5.6-.4-2.2-.7-4.4-1.1-6.6h-.4l-.6 4.7-.6 9.6c0 .4-.5 1-.7 1-.6 0-1.1-.2-1.6-.4.1-1.2.2-2 .3-2.8l.9-10.8c.1-1.1.2-2.2.5-3.2.2-.7.7-1.7 1.2-1.7.8 0 1.7.4 2.2 1 .5.9.9 1.8 1 2.8.3 1.3.6 2.6.8 3.9l1.1 5.8zM50 79.3c.6-1.7 1.2-3.3 1.8-5V74c-.3-.7-.4-1.3.7-1.2s1.7.6 1.4 1.6c-.4 1.8-1 3.5-1.8 5.2-.6 1.1-.6 2.4-.2 3.6 1.3 4.1.7 8.6-1.7 12.2-1.3 2.1-3.5 2.1-5.6 1.9-2.5-.3-4.1-1.9-5.2-4-1.3-2.5-1.9-5.4-1.5-8.2.1-.7.3-1.3.5-2 .2-.6.4-1.1.6-1.7.2-2.2 1.1-3.4 3.3-3.9 2.7-.7 5.6 0 7.7 1.8zm-.2 4.2c-2.7 1.8-6.2 2.1-9.1.7-.2.3-.3.6-.4.9-.2 2.3.1 4.5 1 6.6.8 2 2 3.4 4.4 3.3 1.8-.1 2.7-.2 3.3-1.9.7-1.8 1.2-3.8 1.4-5.7 0-1.4-.3-2.7-.6-3.9zm-8.1-1.4c1.9 1.1 4.3 1.1 6.2-.1.9-.7.9-1.2-.1-1.6-.6-.3-1.3-.6-2-.8-.9-.3-1.8-.1-2.5.6-.5.5-1 1.2-1.6 1.9zm51.9 10.4c1.8.1 3.7-.4 5.5 1.2-.8.5-1.6.9-2.4 1.2-1 .1-2 .1-3-.1l1.2 6.2c-2.3.8-2.4.7-2.8-1.5-.2-1.3-.5-2.6-.7-3.9-.1-.6-.1-.9-.9-.9-1.6 0-3.2-.2-4.9-.2-.4.1-.7.3-.9.6-.5 1.1-.8 2.3-1.2 3.5-.2.7-.7 1.1-1.4.8-.5-.3-1.2-.5-.9-1.4.9-2.2 1.7-4.5 2.6-6.8l3-7.2c.5-1.3 1-2.6 1.4-3.9.3-.9.8-1.7 1.9-1.6s1.2 1 1.4 1.8c1 3.4 1.2 7 1.6 10.5.2.6.3 1.2.5 1.7zM89.8 83h-.4c-.4 1.3-.9 2.6-1.3 3.8-.6 1.5-1.2 3-1.7 4.5-.1.3 0 .7.2.9 1.5.1 3 0 4.7 0L89.8 83zm57 14.3c.1 2 .4 3.9.4 5.7 0 .7-.4 1.4-1 1.9-.8.3-1.5-.7-1.5-1.9v-5.9l-5.7-.5c-.6 1.6-1.2 3.1-1.8 4.6-.2.6-.7 1.2-1.4.9-.6-.2-.9-.9-.7-1.5 0-.1 0-.1.1-.2.8-2.2 1.5-4.5 2.3-6.8 1-2.8 1.9-5.5 2.9-8.3.3-.7.6-1.4.9-2.2.4-1.1 1.7-1.6 2.7-1.1.4.2.7.4 1 .8.4.6.6 1.2.7 1.9.4 3.3.6 6.6 1 9.8 0 .2.4.5.7.5 1.3.2 2.6.2 3.8.5.8.2.6.8.2 1.3-.9 1-2.1.7-3.2.7-.5 0-.9-.1-1.4-.2zm-3.3-12.4h-.3l-3.4 9.5 4.7.3-1-9.8zM67 92.1c.1-3.1.9-6 2.5-8.6 1-1.9 2.6-3.4 4.5-4.3 2.1-.9 4.4-.8 6.5.1.4.3.6.7.6 1.2-.1.6-.7.7-1.3.5-2.6-.7-5.1-.5-6.9 1.7-1.9 2-3.1 4.6-3.4 7.4-.4 2.9.7 5.8 3 7.6 1 1 2.5 1.2 3.7.4.6-.4.9-1.5 1.1-2.3.3-1.3.3-2.7.6-4.1.2-1.1-.4-1.5-1.3-1.5h-2c-.7-.2-1.3-.5-1.8-1-.1-.2-.2-.4-.1-.6.3-.3.7-.8 1.1-.7 1.8.2 3.6.5 5.4.9 1.3.3 1.3 1.6 1.1 2.6-.3 2.3-.7 4.6-1.1 6.9-.3 1.7-2 2.9-3.7 2.6h-.1c-1.7-.1-3.2-.3-4.6-1.6-1.4-1.1-2.5-2.7-3-4.4-.2-1.2-.6-2.2-.8-2.8zm66.5 16.7c-.7 2.9-3.1 2.8-4.5 3.7 1.1 2.8 2.1 5.7 3.2 8.4.5 1.2 1.2 2.2 1.6 3.4.2.6.1 1.2-.1 1.8-.3.8-1.1 1-1.7.2-.7-1.1-1.4-2.2-1.8-3.4-.9-2.4-1.6-4.8-2.4-7.2-.1-.4-.3-.7-.5-1-.8-1.3-.9-1.3-2.2-.5-.5.4-1.1.8-1.8 1.1-1.4.4-1.4 1.3-1.3 2.6.2 2.2.2 4.5.3 6.7.1.7-.4 1.3-1 1.3h-.3c-.7-.3-1.2-.9-1.3-1.6-.2-2.2-.1-4.5-.1-6.8v-.1c-.2-.8-.9-2.2-.7-2.3.9-.6.7-1.6.8-2.3.1-1.3.1-2.7.1-4 0-.9 0-1.8.1-2.8.2-.4.6-.7 1-.7.6 0 1.3.1 1.2 1-.1 1.8-.2 3.6-.2 5.4v1.4c1.4-.7 2.9-1.4 4.3-2s2.9-1.6 4.4-2.1c.8-.1 1.9-.2 2.9-.2zm-28.1.1c0 1.7.1 3.2 0 4.7-.1.9.3 1.1 1.1 1.1h4.6c.6 0 1.2.2 1 .9s-.1 1.5-1.2 1.4c-1.8-.1-3.5-.2-5.4-.2-.2 1.9-.4 3.7-.5 5.6 0 .3.6.8 1 .8 1.5 0 3-.2 4.5-.3.2 0 .4.1.6.1.8 0 1.6.4 1.4 1.3s-1 1.1-1.9 1.1c-1.5 0-3 .2-4.5.2-2.7 0-3.8-.2-3.4-3.5.3-2.9.3-5.8.4-8.7.1-2 0-3.9.2-5.9 0-.3.7-.8 1.1-.8 1.8-.2 3.7-.3 5.5-.3 1.3-.1 2.5 0 3.8.1.5.1.9.7 1.3 1-.4.5-.5 1.3-1.5 1.3-2.1-.1-4.1 0-6.2 0-.5-.1-1.2 0-1.9.1zm-21 12.8c0 1.5.1 3 0 4.4 0 .5-.7 1-1 1.5-.4-.3-1.1-.6-1.2-1-.2-1.2-.3-2.5-.3-3.7 0-2.2.2-4.5.3-6.7.1-1.1.1-2.2.1-3.3-.1-1.1-.2-2.1-.4-3.2-.2-1 .3-1.6 1.1-1.6 1.9 0 3.8-.1 5.7.9s2.2 2.8 2.4 4.4c.4 2.4.3 4.8-1.7 6.6-1.2 1.5-3.1 2-5 1.7zm0-11.5c.1.8.2 1.6.2 2.4 0 2-.2 4.1-.2 6.1 0 .3.1.6.3.8 1-.2 2.1-.3 2.8-.9 1.6-1.4 1.6-3.3 1.2-5.2-.3-1.4-.8-2.9-2.6-3.2h-1.7zm-19 19.2c-1.2-.8-1.3-1.6-1-3.1.2-.8.3-1.7.3-2.6.2-2.3.5-4.7.7-7 .2-.9 0-1.8-.4-2.6-.7-1.5-1.4-3-2-4.5-.5-1.1-1.1-2.2-1.6-3.3-.2-.3-.2-1-.1-1.1s1-.4 1.2-.2c.7.6 1.3 1.3 1.8 2.1.8 1.7 1.5 3.6 2.3 5.3.3.3.7.4 1.1.3.7-.4 1.3-1 1.9-1.6 1.6-1.6 3.2-3.2 4.9-4.7.6-.3 1.2-.3 1.8 0 .7.4.3 1-.1 1.5-1 .9-2 1.8-3 2.8-.4.4-.7.9-1 1.3-.7.8-1.5 1.7-2.3 2.4-.2.3-.5.5-.8.6-1.1.2-1.4 1.1-1.5 1.9-.3 2.8-.5 5.7-.7 8.5 0 .9-.2 1.8-.4 2.7-.1.6-.7.9-1.1 1.3zm.2-33.9c-.6 1.8-1.3 2.1-3.1 1.7-1.5-.3-3-.1-4.5-.3-1.3 0-2.6-.6-3.4-1.7-.2-.3-.3-.7-.3-1.1.3-2.7.8-5.3 1.1-8s.7-5.2 1-7.7c.1-1 .9-1 1.5-.8s1.1.6.6 1.4c-.2.3-.3.7-.3 1.1l-1.2 11c-.1.9-.2 1.8-.2 2.7 0 .2.2.7.4.7 1 .2 2 .3 3 .3 1.9 0 3.7.2 5.4.7zm77.2 12.6c2.1.3 2.1.3 2.1 2.1 0 2.6-.1 5.1-.2 7.7-.1 1.8-.3 3.6-.4 5.3 0 .5.3 1 .2 1.4-.1.7-.4 1.3-.8 1.9-.3.3-.8.4-1.1.2-.5-.4-.8-.9-.9-1.5.1-2.3.4-4.5.5-6.8.2-2.6.3-5.2.4-7.8 0-.7.1-1.6.2-2.5zm-45.2 10.2c0 1.5-.1 4 0 6.5.1.7 0 1.5-.3 2.2-.3.6-.8.7-1.2.4s-1-.8-1-1.2c0-2.1.3-4.2.3-6.3-.1-2.5-.4-4.9-.6-7.4-.1-1-.2-2.1-.1-3.1 0-.3.8-.9.9-.8.5.2 1.3.7 1.3 1.1.4 2.4.5 5 .7 8.6zm99.7-36c.1 2.8-.3 5.5-1.2 8.2-.8 2.2-2.6 3-4.9 2.8-3.3-.3-6.6-.6-9.9-.8-3.5-.2-7-.2-10.5-.5-2.7-.2-5.3-.6-7.9-1.2-2.4-.8-4.7-1.8-7-2.9-1.5-.7-1.4-2.1-1.4-3.5.1-1.3.3-2.5.7-3.8.3-1 .9-1.9 1.7-2.5 2.6-1.6 5.4-3 8.1-4.4 2.1-1.2 4.1-2.4 6.2-3.6 2.4-1.4 4.8-2.7 7.3-4 .7-.4 1.3-.8 1.9-1.3.2-.2.1-.7.1-1.1-.1-.9-.2-1.8-.1-2.6.2-1.1.9-1.4 1.9-.8.5.3.6.2.8-.3.6-1.5 1.4-3 2.1-4.5.2-.7.9-1 1.6-.8h.1c.8.3.8 1 .6 1.7l-.6 3.7c-.1.8.1.7.7.5.8-.3 1.6-.6 2.4-.8s1.8-.5 2.3.6c.9 1.9 1.8 3.8 2.5 5.8 1.2 2.8 1.9 5.9 2 8.9-.2 2.5.5 4.8.5 7.2zm-1.1.5c.1-2.2 0-2.1-2.2-1.8-2.6.3-5.2.4-7.8.5-4.3.2-8.6.4-12.9.4s-8.4-.2-12.5-.4c-.8 0-1.7-.1-2.5-.2-2.3-.3-2.3-.3-2.4 2 .1.4.3.7.6.8 1.1.2 2.3.2 3.4.5 4.2 1.1 8.6 1.6 13 1.4 1.7-.1 3.5.1 5.2.1s3.4-.2 5-.3v.2c2.4-.2 4.8-.3 7.1-.7 1.8-.3 3.5-.8 5.2-1.4.4-.2.7-.6.8-1.1zm-.7 5.7c.1-.7-.2-.6-.6-.4-2.7 1-5.5 1.5-8.3 1.4-3.1 0-6.2.2-9.3.5-2 .2-4.1.3-6.1.2H170c.4.2.8.3 1.2.4 2.2.2 4.4.3 6.6.5 1 .1 2 .2 3.1.2 1.6 0 3.3-.1 4.9 0 2 .1 4 .3 6.1.4 2.6.1 3.2-.4 3.6-3.2zm-.5-10c0-1 .2-2.1.4-3.3-.1-1.2-.3-2.4-.6-3.6-.6-2.3-1.3-4.6-2-6.8-.4-1.2-1-2.4-1.7-3.5-.2-.3-.8-.5-1.2-.6-.1 0-.4.3-.5.5-.4.9-.7 1.9-1 2.8-.1.3 0 .9.1.9.8.1 1.3.9 1.2 1.6 0 .2-.1.5-.3.6-.9 1.6-2.1 3.1-3.1 4.7-.4.5-.7 1.1-1 1.7-.9 2-1.4 4.1-3.9 5-.6.2-1 1.2-1.5 1.8l1.7.2h.9c.1 0 .2-.3.2-.4.1-.3.1-.6.2-.9.3.1 1 .2 1 .3.1 1 .8.8 1.4.8s1.3-.2 2-.2c.5 0 1 .2 1-.7 0-.2.5-.4.8-.4s.5.4.5.6c-.3.8.2.5.6.5.9 0 1.9 0 2.8-.1.9-.2 2-.1 2-1.5zm-1.8 9c.6.2 1.6-.8 1.5-1.4 0-.3-.4-.8-.5-.8-.7.2-1.6 0-1.5 1.5.1.2.2.7.5.7zm-1.6-.2c0-.4-.4-.9-.8-1.6-.6.9-1.9.1-1.9 1.3 0 .4.6 1.3.8 1.2.7 0 1.9.4 1.9-.9zm-3.7-24.4c.1-.2.1-.5.1-.8-.3 0-.5 0-.8.1-.3.2-.6.5-.9.7s-.5.2-.6.1c-.2-.2-.3-.4-.3-.7.2-1.9.4-3.8.7-5.7v-.8c-.2.1-.4.3-.6.5l-.3.6c-.5 1.4-.9 2.8-1.5 4.1-.2.6-.4 1.5-1.5 1-.3-.2-.6-.3-.8-.5v1.2c.3 1.1.7 2.2 1 3.3.1.3 0 .6-.2.9-.2.2-.6.1-.9 0s-.4-.3-.6-.4c-.2-.1-.3-.1-.5-.2 0 .2 0 .4.1.6.8 1.5 1.5 3 2.5 4.4.4.7 1.3.9 1.9.5.1-.1.2-.1.3-.2.9-.9 1.8-1.9 2.6-2.9.4-.6.8-1.2 1.1-1.8-.4-.3-.6-.7-.9-.7-.8-.1-1.1-.5-.8-1.2l.9-2.1zm-1.7 25.6c.8-.4 1.7.2 1.6-1-.1-.4-.3-.7-.5-.9-.6.3-1.9-.3-1.8 1-.1.4.4.6.7.9zm-2.8 0c.9 0 1-.6.9-1.2-.1-.3-.6-.5-1-.8-.6.3-1.4.6-1.4.9 0 1 .7 1.2 1.5 1.1zm.4-14.3c.1-.3 0-1-.2-1.1-1.4-.6-2.3-2.2-4.1-2-.5 0-.9.1-1.4.2-.3.1-.5.2-.8.4.2.1.4.3.7.4 1.2.5 1.3 1 .4 1.8-.4.3-.9.6-1.4.7l-1.8.6c-.1.1-.2.4-.3.6.1.1.3.1.5.2.8 0 .9.3.4.9-.7.9-1.5 1.8-2.3 2.7-.1.2-.2.3-.2.5.2 0 .4.1.5 0l2.1-.9c.8-.4 1.5-1.1 2.2-1.5.3-.1.6-.1.9 0 .1.1.1.5.1.8s.1.6.1.8c.2-.2.5-.4.7-.6.6-.7 1-1.8 1.6-1.9 1.7-.1 1.9-1.4 2.3-2.6zM180.7 88c0-1.4-1.3-.8-1.9-1.2-.2.5-.4 1.1-.5 1.7 0 .2.4.4.7.6.8-.3 1.7.1 1.7-1.1zm-1-17.8l.7.1c-.1-.2-.1-.5-.2-.7-.4-.6-.7-1.3-.9-2-.2-.8-.6-.7-1.1-.4-2.6 1.5-5.3 3-7.9 4.5-2.6 1.5-5.3 3-7.9 4.5-1.7 1-3.3 1.9-4.9 3-.2.1-.2.4-.4.7.2.1.4.1.6.2 1.7.1 3.4.1 5.2.1 2.4.1 4.8.3 7.2.4.5 0 .9-.1 1.3-.3.9-.8 1.7-1.6 2.6-2.4.5-.5.4-.8-.1-1.1-.8-.6-.7-1.2.1-1.7s1.9-.9 2.8-1.4l.6-.3c-.2-.1-.3-.2-.5-.3-.2-.1-.5-.2-.8-.3-.7-.4-.8-1-.1-1.3 1.3-.6 2.5-1.1 3.9-1.5-.3 0-.3.1-.2.2zm-1.9 10c0-.2-.3-.4-.4-.6l-.8.6.6.6c.2-.2.5-.4.6-.6zm-1 8.8c.2-.1.6-.4.6-.5-.2-.5-.3-1.3-.7-1.4-.8-.2-1.6-.3-2.5-.2-.2 0-.4.3-.4.5-.1 1.5.2 1.8 1.6 1.8.4 0 .9-.1 1.4-.2zm-4.2-1c0-1.5-1.1-1-1.8-1-1.6.1-1.6.1-.8 1.4.1.1 0 .3.1.3.7.2 1.4.4 2.1.5.3-.4.4-.8.4-1.2zm-4.4.8c.5 0 .7.1.5-.6-.3-1-1.3-1.6-2.3-1.5-.7 0-1.2 0-1.3 1s.6.8 1 .8c.6.2 1.3.3 2.1.3zm-2.4 1.1l-.4-.3-.6.3c.1.1.2.1.4.2.1-.1.4-.2.6-.2zm-2-2.2c.1-.4-.2-1.2-.5-1.3-.8-.3-1.6-.5-2.5-.6-.2 0-.5 0-.6.1-.1.9.2 1.7.9 2.2l1.5.3.2.2c.4-.4 1-.6 1-.9zm-4.9-.7c.5-1.2-.3-2-2.2-2-.3 0-.5.1-.8.2-.1.1 0 .7.1.8.8.5 1.6 1 2.4 1.4.2.1.5-.2.5-.4z"
	/>
	<path d="M194.3 76.2v.3c-.3.1-.5.3-.8.2-.3-.1-.6-.3-.8-.5.3-.2.5-.6.8-.6s.5.4.8.6zm-.5-6.4l-1.1 1.2-.9-1c.3-.2.5-.7.8-.7.4.1.8.3 1.2.5zm-3 2.5c.4.4.7.7.7.8-.2.4-.4.7-.7 1-.2-.2-.7-.5-.7-.6.1-.5.4-.9.7-1.2zm.1-8.6c.2 0 .5.4.7.6l-1 .7-.7-.6c.3-.4.6-.6 1-.7zm-.8 6.3v.3c-.4.2-.7.3-1.1.4-.1 0-.2-.3-.4-.4.2-.2.5-.4.7-.5s.5.2.8.2zm-1.9 41.3c1.3 2 1.1 3.5-1.4 5.8-.8.8-1.7 1.5-2.7 2.1-1.7 1.2-4.1 1.2-5.8 0-1.4-.9-2.8-1.9-3.9-3.2-.4-.7-.8-1.4-.9-2.2h.3c-.3-2.5.8-5 2.7-6.5.6-.5 1.3-.8 2.1-.8 1.8 0 3.7.1 5.5.5 1.8.3 2.9 1.8 3.7 3.4.1.3.2.6.4.9zm-2.6 5.9c1.5-.9 2.3-2.6 2-4.3-.1-.9-.8-1.1-1-1.8-.9-2-2.8-3.4-5-3.5-3-.5-5.9 1.5-6.5 4.5-.1.4-.1.7-.1 1.1.2.8.4 1.5.7 2.2.9 1.5 2.4 2.6 4.1 3 .8.4 1.6.5 2.5.5 1.2-.3 2.3-.9 3.3-1.7z"
	/>
	<path d="M188 62.1c0 .3-.1.5-.1.8-.3.7-.7 1.4-.9 2.1s0 1.1.8 1.2c.3 0 .6.4.9.7-.3.6-.6 1.3-1.1 1.8-.8 1-1.7 2-2.6 2.9-.6.5-1.5.5-2 0-.1-.1-.1-.2-.2-.3-.9-1.4-1.7-2.9-2.5-4.4-.1-.2-.1-.4-.1-.6.2 0 .4.1.5.2.2.1.4.3.6.4s.7.2.9 0c.2-.2.3-.6.2-.9-.3-1.1-.7-2.2-1-3.3v-1.2c.3.2.6.3.8.5 1 .5 1.2-.3 1.5-1 .5-1.3 1-2.7 1.5-4.1l.3-.6c.2-.2.4-.4.6-.5v.8c-.2 1.9-.5 3.8-.7 5.7 0 .3.1.5.3.7.1.1.4 0 .6-.1s.6-.5.9-.7c.3-.1.6-.1.8-.1z"
	    class="st0" />
	<path d="M187.5 112.9c.3 1.7-.5 3.5-2 4.3-1 .8-2.1 1.3-3.3 1.7-.9 0-1.7-.1-2.5-.5-1.7-.4-3.2-1.5-4.1-3-.3-.7-.6-1.4-.7-2.2-.1-3.1 2.4-5.6 5.5-5.7.4 0 .7 0 1.1.1 2.2.1 4.1 1.4 5 3.5.3.7.9.9 1 1.8z"
	    class="st1" />
	<path d="M187.1 76.1c.2 0 .5.1 1 .3-.6.4-.8.6-1.1.7s-.4-.4-.5-.6c.1-.1.3-.3.6-.4z" />
	<path d="M183.6 73.2c.2.1.3.8.2 1.1-.4 1.2-.6 2.4-2.3 2.7-.6.1-1.1 1.3-1.6 1.9-.2.2-.4.4-.7.6 0-.3 0-.6-.1-.8s0-.7-.1-.8c-.3-.1-.6-.1-.9 0-.8.5-1.5 1.1-2.2 1.5-.7.4-1.4.7-2.1.9-.1.1-.4 0-.5 0 .1-.2.1-.3.2-.5.8-.9 1.5-1.8 2.3-2.7.5-.6.4-.9-.4-.9-.2 0-.3-.1-.5-.2.1-.2.1-.5.3-.6l1.8-.6c.5-.2 1-.4 1.4-.7 1-.8.8-1.3-.4-1.8-.2-.1-.5-.3-.7-.4.2-.2.5-.3.8-.4.5-.1.9-.1 1.4-.2 1.8-.4 2.7 1.3 4.1 1.9z"
	    class="st0" />
	<path d="M178.3 132c2.2 1.5 3.4 4.2 3 6.8-.9 4.8-5.2 7-8.7 7.1-2.2.1-4.8-.3-6.6-2.1-.8-.9-1.4-1.9-1.9-2.9-.4-.8-.6-1.7-.9-2.6.4-2.7 1-5 3.3-6.6.8-.7 1.7-1.2 2.7-1.6.9-.1 1.8-.1 2.7.1 2.2.3 4.4.4 6.4 1.8zm.2 10.2c2-1.4 2.2-5.9.8-7.8-1.9-2.4-4.4-3.1-7.2-3.2-1.8-.1-3.6.1-4.9 1.3-2.1 1.7-2.9 4.5-1.9 7 .6 1.5 1.3 3.1 2.8 3.8 1.7.7 3.4 1.2 5.1 1.6 2.2 0 3.7-1.5 5.3-2.7z"
	/>
	<path d="M179.2 134.5c1.5 1.9 1.2 6.4-.8 7.8-1.6 1.1-3.1 2.6-5.4 2.7-1.8-.4-3.5-.9-5.1-1.6-1.4-.7-2.2-2.3-2.8-3.8-1-2.5-.2-5.3 1.9-7 1.3-1.2 3.2-1.3 4.9-1.3 2.9.1 5.5.8 7.3 3.2z"
	    class="st1" />
	<path d="M173.2 72c0 .1-.3.3-.5.6-.3-.4-.6-.6-.6-.8s.3-.4.5-.7l.6.9zm-3.2 1.7c.3.3.7.7.6.7-.2.3-.4.6-.7.8-.1 0-.6-.4-.6-.5.2-.3.4-.7.7-1zm-1.4 4c.1 0 .5.4.5.4-.2.3-.4.6-.6.8-.3-.3-.6-.6-.6-.7.2-.1.5-.3.7-.5zm-1.2-39.9c.1 2.1 0 4.2-.1 6.2 0 .6-.3.8-.7 1.2-1.9 2.1-4.6 2.8-6.9 4.3-.7.5-1.4 1-2.2 1.4-2 1.3-4.1 2.6-6.1 3.9-2.7 1.8-5.4 3.6-8.1 5.3-1.8 1.2-3.6 2.2-5.5 3.3-1 .6-2 1.3-2.9 2-3 2.5-6.4 4.4-10.1 5.8-.8.4-1.7.1-2.1-.6-.1-.1-.1-.3-.1-.4-.3-1.9-.6-3.8-.8-5.7-.1-2.5 1.4-4.5 2.5-6.5l7.5-13.8c1.6-2.8 3.1-5.7 4.8-8.5 2.7-4.7 5.4-9.3 8.3-13.9 1.9-3 4.1-4 7.6-2.4 2.8 1.3 5.7 2.6 7.7 5 2.2 2.5 4.2 5.1 5.9 7.9.9 1.8 1.3 3.6 1.3 5.5zm-5.1 9c2.6-1.2 4.6-2.9 4.3-6.2l-.3-2.7c-.1-.7-.2-.6-.7-.3-1.2.9-2.4 1.8-3.7 2.6-.7.3-1.1 1.1-1 1.8.1 1.3.2 2.7.2 4 0 1 .4 1.2 1.2.8zm2.7-10.2c.8-.5 1.2-1.5.7-2.4-.4-1.2-1.1-2.3-1.8-3.4-2.2-2.5-3.8-5.6-6.8-7.3-2-1.1-4-2.2-6.1-3.2-.8-.2-1.6-.3-2.3-.1-.4 0-1 .1-1.1.3-1.1 1.5-2.2 3.1-3.3 4.6l-.3 1c.3-.1.7-.3 1-.4 1.6-1.2 3.2-2.3 4.6-2.2 2.5 0 4.7 2.1 4.5 3.5-.2 1.1-.4 2.2-.7 3.4v.6c.2 0 .4-.1.6-.1 1.6-.7 3.4-1 5.1-.8 1.8.1 3.5 1 4.6 2.3.9 1 1.2 2.5.7 3.8-.1.2.1.4.2.6l.4-.2zm-2.1-.6c.1-.3.2-.7.2-1-.1-.4-.2-.8-.4-1.2-.1-.2-.3-1-.7-.1-.1.2-.6.2-.9.3 0-.2-.1-.6 0-.7.9-.7.1-1-.3-1.2-1-.3-2-.5-3-.6-.1 0-.3.3-.4.5-.1.2-.1.6-.2 1 0 .1-.3.1-.5.1 0-.3-.1-.7 0-1 .4-.8-.1-.6-.5-.5-.3.1-.6.4-.7.7-.3.6-.6.8-1.1.2-.2-.2-.5-.2-.8-.2-1.3.8-2.2 2.1-2.5 3.6-.1.2-.2.5-.4.7 0 0-.4-.1-.4-.2v-.8c0-.3.1-.6.1-.8-.1-.4-.1-.8 0-1.1.4-1.1 1-2.1 1.4-3.2.1-.4-.1-.9-.1-1.3 0-.3 0-.8.2-.8.8-.3.8-.9.5-1.5-.5-1.3-1.8-2.1-3.1-2-1.6.1-3.1.8-4.1 2-.9.8-2.8.9-1.9 2.9v.4l-.1.1c-.2-.1-.5-.3-.7-.4-.2-.1-.5-.1-.6 0-.7.9-1.4 1.7-2 2.6l-.3.6c.2-.1.5-.2.7-.3.5-.4 1.1-.7 1.7-.9 2.4-.7 5 .4 6.1 2.7.1.1-.1.5-.3.7-.4.5-.9.9-.2 1.6.1.1-.2.6-.4.8s-.5.2-.7.4c-.1.2-.2.5-.3.7h.7c1.3-.5 2.7-.9 4-1.4.3-.1.5-.5.8-.7s.4-.3.6-.5c.1.2.4.4.4.6-.1.9.3.8.9.6.3-.1.8.2.9.3.2.7.4.9 1.1.5.2-.1.5 0 .6.1.1.2.1.4 0 .5-1.1.7-.4 1.7-.6 2.6-.1.2.2.5.3.7 0-.2.1-.4.1-.6 0-.4.1-.7.3-1.1.2-.3.4-.5.7-.8l.3.9c0 .3.1.5.1.8.2-.1.5-.1.8-.2.3-.2.7-.3 1-.5.1 0 .1-.2 0-.3s-.1-.5-.1-.8c.3 0 .6 0 .9.1.2 0 .5.1.7.2 0-.2.1-.4.1-.7 0-.8.2-1.1 1-.7.2.1.6.2.7.1.5-.6.4-1.4-.2-1.9-.1-.1-.3-.2-.4-.2-.2-.1-.4-.2-.6-.5 0-.1.2-.5.3-.5.3 0 .6.1.8.2.1.1.3.2.5.4zM160 47.1V43h-.2c0-.3 0-.6-.1-.9-.1-.2-.5-.4-.6-.3-1.1.6-2.2 1.3-3.3 1.8-.7.3-1.1 1-1 1.7v4.8c0 .3.1.7.2 1 .3-.1.7-.2 1-.4.9-.7 1.9-1.4 2.9-2 .7-.2 1.2-.9 1.1-1.6zm-6.4-5c.3-.7.6-1.6.4-2.2-.4-1-1.4-1.6-2.5-1.5-2.3.2-4.5 1.2-6.3 2.7-.3.3-.7.5-1 .8-.2.1-.3.1-.5.1 0-.2-.1-.5-.1-.6.7-1.4 1.3-2.8 2.1-4.1.5-.9.8-3 .3-3.5-.8-1-2.2-1.4-3.4-1-3 .9-4.5 3.5-6.3 5.7-.2.3-.3.6-.4 1h1s.4-.2.6-.2c.7-.2 1.5.3 1.6 1v.1c.5 1.8.2 3.8-.9 5.4-.1.2-.1.3-.2.5.2 0 .4 0 .6-.1 1.5-.9 3.1-1.5 4.8-1.7 1.9-.3 2.6.3 2.6 2.5v.7c.4-.1.7-.2 1.1-.4.6-.5 1.3-.9 2-1.3 2-.8 3.8-1.8 4.5-3.9zm.2 9.3c.1-1.7 0-3.4 0-5.2 0-.4-.1-.8-.1-1.2l-1 .5-1.2.6c-2.1.8-2.7 2.5-2.6 4.6.1 1.1.3 2.2.4 3.3.1.5.3.8.9.4.9-.6 1.9-1 2.8-1.7.4-.3.7-.8.8-1.3zm-5.6 3.1c0-1.9-.1-3.7-.1-5.6v-.6c-.2.1-.3.2-.5.2-.2.1-.5.3-.7.4-2.1.8-2.4 2.8-2.9 4.5-.1 1-.1 2 0 3.1h-.1c0 .3.1.7.1 1 .1.7.5.6.9.3 1-.6 1.9-1.3 2.9-2.1.3-.3.5-.8.4-1.2zm-3.8-7.6l.7-.4c-.4-.3-.8-.6-1.2-.8 0 0-.2.2-.4.3l.9.9zm-.6 2.1c.8-.6.6-1.4-.2-1.9-.3-.2-.5-.5-.7-.8-.1-.1-.2-.3-.2-.3-.5 0-.9.1-1.4.2.1.2.3.3.3.5.1.5.1 1 0 1.5 0 .2-.4.3-.6.4-.1-.4-.1-.8-.2-1.2v-.1c0-.7-.1-.8-.8-.4-1.1.8-2.2 1.6-3.3 2.3-.4.2-.8.2-1.2.2l.3-.9c.8-1.4 1.6-2.7 2.2-4.1.4-.7.8-1.6-.2-2.3-.1-.1 0-.5 0-.8 0-.2.1-.4.1-.6-.2 0-.4-.1-.5 0s-.6.4-.5.6c.1.8-.4.9-.8.6-.7-.5-.9 0-1.2.4-1.4 1.7-2.5 3.6-3.4 5.6-.2.5-.4 1.1-.7 1.6-.2.2-.4.3-.5.5-1 1.9-2 3.9-3.1 5.8-.3.5-.8.8.2 1.1.1 0 .3.4.2.6-.1.2-.3.4-.5.5-.2 0-.4-.1-.5-.3-.2-.8-.4-.2-.5 0s-.3.7-.6 1-.7.8.3.8c.1 0 .2.5.3.7-.3 0-.7.2-.8.1-.4-.9-.6-.2-.8.1l-.9 1.8c-.1.4-.1.8.1 1.2.3.2.8.2 1.1 0 2.3-1.6 4.5-3.2 6.7-4.9.3-.2.1-1 .3-1.3s1 .2 1.3 0c1.6-1 3.1-2 4.5-3.1 2.1-2 4.2-3.5 6.2-5.1zm-.9 4.8c0-.7.1-1.4.1-2.1l-1.6 1c-.1 0-.2 0-.2.1-.9.8-2.4 1.1-2.7 2.6-.2.9-.2 1.9-.4 2.8.1 1 .2 2 .4 3 .2.2.5.4.8.3 1.1-.7 2.3-1.5 3.3-2.3.2-.2.3-.6.3-1v-4.4zm-6.5 9.7c.8-.3 1.2-1.1 1.1-1.9-.1-1-.2-2.1-.2-3.2v-2.1s-.2-.6-.6-.3c-1 .7-1.9 1.4-2.9 2-1.7 1.1-2 2.8-1.7 4.6.1.8.3 1.5.4 2.3h-.1l.1.8c.2-.1.5-.2.7-.3 1-.6 2-1.4 3.2-1.9zm-5.6 3.6c.5-.3 1.6-.6.2-1.2-.1-.1 0-.4 0-.6.1-.3.1-.6.2-.9-.1-1-.3-1.9-.4-2.9 0-.3-.1-.5-.1-.8-.2.1-.5.2-.7.3-.7.4-1.4.9-2 1.4-1 .8-2.7 1.2-2.1 3.2.2 1 .3 2 .5 3 .2.3.5.5.9.4 1.1-.6 2.3-1.2 3.5-1.9zm-5.9 2.8c.3-.1.5-.4.5-.7l-.6-4.2c0-.2-.2-.4-.4-.6-.5.3-1.1.6-1.1.8.1 1.5.4 3 .6 4.5.1.1.7.2 1 .2zm37.9 81.3c2.4.1 3.8 1.3 3.8 3.1-.2 1.8-1.6 3.3-3.4 3.4-2.1 0-4.1-1.6-4-3.1 0-1.9 1.6-3.4 3.5-3.4h.1zm2.3 3.8c0-.8-.3-1.5-.9-2-.9-.3-1.8-.4-2.7-.2-.7.2-1.2.9-1.1 1.6 0 .1.1.3.1.4.5 1 1.5 1.6 2.6 1.8 1 0 1.9-.7 2-1.6z"
	/>
	<path d="M165.7 34.2c.5.8.2 1.9-.7 2.4l-.6.3c-.1-.2-.2-.5-.2-.6.5-1.3.2-2.8-.7-3.8-1.2-1.3-2.9-2.2-4.6-2.3-1.8-.2-3.5.1-5.1.8-.2.1-.4.1-.6.1v-.6c.2-1.1.5-2.2.7-3.4.2-1.5-2-3.5-4.5-3.5-1.4 0-3 1-4.6 2.2-.3.2-.7.3-1 .4 0-.3.1-.7.3-1 1.1-1.6 2.1-3.1 3.3-4.6.2-.2.8-.3 1.1-.3.8-.1 1.6-.1 2.3.1 2.1 1 4.1 2 6.1 3.2 3 1.7 4.6 4.8 6.8 7.3.9.9 1.5 2.1 2 3.3z"
	    class="st2" />
	<path d="M164.2 153c.6.5.9 1.2.9 2-.1.9-1 1.6-1.9 1.6-1.1-.2-2-.8-2.6-1.8-.4-.7-.1-1.5.5-1.9.1-.1.3-.1.4-.1.9-.2 1.9-.1 2.7.2z"
	    class="st1" />
	<path d="M164.2 77.9c0 .3-.1.7-.3 1l-.9-1c.2-.1.4-.3.7-.4.2.1.4.2.5.4zm-1.5 102.3c.4 3.2-1 5.6-3.7 7.2-1.8 1.2-3.6 2.2-5.6 3.1-2.3 1-4.7 1.8-7.1 2.5-1.9.4-3.9.7-5.8.9-2.5.3-4.2-1-5.4-3-2-3.4-3.8-7-5.9-10.4-2.3-3.8-3.7-7.9-5.4-11.9-.9-1.8-1.8-3.7-2.5-5.6-1-3.1-2.5-6.2-2.2-9.6.1-1.6.7-3.1 1.7-4.3 1.2-1.4 2.2-2.9 3.4-4.3l.9-.9c.6-.7 1.7-.7 2.3-.1l.1.1c2 1.8 4.1 3.7 6.2 5.4s4.2 3 6.4 4.4c1.6 1.1 3.2 2.2 4.9 3.1.7.4.4.8.2 1.2-.1.2-.7.2-.9.1-1-.6-2-1.3-3-1.9-2.4-1.6-4.9-3.1-7.1-4.8-2.4-1.9-4.6-4-7-6-.2-.2-.4-.3-.7-.4 0 .3-.1.6-.1.8 0 2.4 1.6 4.2 2.4 6.2 1.6 3.6 3.4 7.1 5.1 10.7 1.4 3 2.8 6.1 4.1 9.2.9 2.1 1.8 4.2 2.6 6.3.4 1.1 1 1.6 2.2 1.3 1.5-.4 3-.7 4.5-.9 1.7-.1 3.4-.5 5-1.2 2.9-.9 5.2-3.1 6.3-5.8.5-1.3 0-2.5-1.5-3.7-2.1-1.6-4.2-3.1-6.2-4.7-.6-.4-.8-.4-.9.4s-.6 1.6-.8 2.5c-.4.9-.1 2 .7 2.5 1.5 1 2 3.1.9 4.7-.2.3-.4.5-.7.8-1.7 1.7-5.6 2.4-7.6 1.1-.8-.6-1.4-1.5-1.7-2.6-.6-2.2.2-4 2.1-5.4 1.1-.8 2.3-.4 3.4-.3.9.2 1.8-.4 2-1.3v-.2c.1-.8.3-1.6.6-2.4.4-.9 0-1.4-.6-1.8l-.9-.6s-.8-.6-1.2-1c-.5.8-1.6 1.1-1.5 2.5.3 1.7-.8 3.3-2.6 3.6-.5.1-1 .1-1.4-.1-1.3-.2-2.7-.4-3.6-1.8s-.1-3.9 1.9-4.7c1.6-.6 2.9.1 4.1.9.4.4 1 .3 1.4-.1l.1-.1c1.5-1.6 3-3.1 4.4-4.7.4-.5.7-1 1-1.5.6-.8 1.6-1 2.4-.6 2 .7 3.6 2.3 4.1 4.4.3 1 .4 2 .6 3.1-.2.8-.4 1.7-.6 2.6-.9-.2-1.8-.6-2.7-1-.8-.7-1.6-1.5-2.3-2.3l-.5-.6c0 .2-.1.4-.2.6-.4.9-.1 1.5.7 2.1 2.3 1.7 4.6 3.4 6.9 5.2.8.7 1.5 1.4 2.2 2.1.1.1.2.3.2.5.7 3.7 1.4 7.1 1.9 10.5zm-1.6 1c.3-.2.1-1.2.1-1.8-.4 0-.9 0-1.2.1-.2 0-.4.1-.5.2-2.4 1.4-4.8 2.8-7.3 4.1-1.4.7-2.8 1.2-4.3 1.5-1.7.4-3.4.7-5.2.8-1.5.1-1.8.1-1.8 1.9 0 1.2 1 .2 1.4.6 1 0 2-.1 2.9-.2 4-.8 7.8-2.2 11.3-4.2 1.6-.9 3.1-1.9 4.6-3zm.1 2c0-.1 0-.3-.1-.4-.1 0-.2.1-.3.1l-9.6 4.8c-.1.1-.1.5-.2.7s0 .4-.1.7c-.3-.1-.8-.1-.8-.3-.3-1.1-.7-.5-1.1-.1-1.1.2-2.3.4-3.4.7-.1 0-.2.4-.4.5s-.3.6-.5.6-.7-.2-.7-.4c0-.8-.5-.6-.9-.5s-.8.1-1.2.1c-1.2.1-2.3 1-2.5 2.2 0 .2 0 .5.1.5.3.1.6.2.9.2v-.6c.1-.3.3-.5.6-.7.3-.1.6-.2.8-.1.3 0 .6.1.9.1-.2.2-.5.5-.8.7-.1.1-.3.1-.5.2.2.1.4.3.6.3 1.2-.2 2.5-.4 3.7-.7.1 0 .2-.4.3-.6s.2-.6.3-.8l.7.6c.2.1.4.3.5.3 1.2-.3 2.4-.7 3.6-1.1.4-.1.5-.7.9-.9.3-.2.6-.3 1-.4.3 0 .6-.1.9-.1.8-.3 1.8-.3 1.5-1.7 0-.1.9-.5 1-.4.5.5.8.3 1.2 0 .3-.2.6-.3.9-.5 1.4-.5 2.3-1.6 2.7-3zm-.5-7.5c0-.5-.1-1-.2-1.5-.1-.3-.3-.7-.6-.7-.4-.1-.9 0-1.3.3-.9.8-1.7 1.6-2.5 2.4-.1.1.1.4.1.5 0 .8.1 1.5.1 2.2 0 0-.1 0-.2.1-.6.2-.8-.1-.8-.7-.1-.4-.2-.8-.5-1.2-.4.2-.7.4-1.1.6-.1.1.2.5.2.7 0 .3 0 .6-.1.9-.3-.1-.6-.3-.9-.4-.1 0 0-.4-.1-.4-.2-.1-.5-.2-.8-.1-.2.1-.3.4-.4.6s-.1.7-.3.8-.8-.1-.8-.2c-.1-.7-.4-.4-.9-.3-1.8.5-3.6.9-5.4 1.2-1 .1-1.2.4-1 1.3-1.2-.1-1.4.1-1.6 1.6v.4c0 .3-.1.7 0 .9.2.3.5.5.8.6.2.1.5-.1.7-.1-.2-.2-.3-.4-.4-.6-.1-.3-.1-.6-.1-.9.3 0 .7-.1.8 0 .7 1.2 1.4.1 2.2.1.4 0 1.1-.9 1.3 0s-.7.6-1.1.7l-.6.3c.2.1.5.3.7.2.9-.1 1.7-.4 2.5-.6.3-.1.5-.3.7-.4-.2 0-.5 0-.7-.1-.3-.2-.5-.4-.7-.6.2-.2.4-.5.6-.5.7.1 1.4.2 2.1.4 1.8.1 3.4-.8 4.4-2.3.1-.3.7-.6.9-.6 1.1.8 1.9-.2 2.3-.8s.1-1.5.1-2.3c0-.3-.1-.6-.3-.9.2-.1.4-.1.6-.2.2.3.3.6.3.9 0 .7.8 1.5 1.4 1.3.4-.2.8-.5 1.1-.9-.3 0-.6-.1-.9-.2-.2-.1-.3-.4-.5-.6.2-.1.4-.3.6-.4s.3-.3.3-.5zm-4.9-14.9c.3-1.2.1-2.4-.6-3.4-.7-1.1-1.6-2.1-2.6-3-.1-.1-.7.1-.7.2-.1.7-.1 1.4-.2 2.1-.1 1.4 2 4.1 3.4 4.5.1.2.6-.2.7-.4zm-5.4-4.1c-.1-.4-.2-.8-.2-1.1-.2.2-.5.4-.7.6-.6.6-1.2 1.3-1.9 2-.5.5-.5.9.1 1.3.3.3.6.5 1 .6.2.1.8-.1.9-.3.3-1 .5-2.1.8-3.1zm-2.6 17.3c1.7-.3 2.6-2.1 2.2-3-.6-1.5-1.8-2.6-3.4-3.1-1-.3-2-.2-2.9.2-1.5.7-2.2 2.3-1.8 3.9.6 1.8 1.3 2.3 3.6 2.3.8-.2 1.6-.2 2.3-.3zm-4.4-11c.2-.4-.4-1.4-.9-1.8-.7-.5-1.5-.9-2.3-1-.9-.1-1.8.4-2.2 1.2-.4.6-.3 1.3.3 1.7.1 0 .1.1.2.1 1 .5 2.1 1 3.1 1.4.7-.5 1.6-.9 1.8-1.6zm-2.8 20.8c.1-.2.2-.4.2-.6l-.6-3.7c-.2-.8-.7-.6-1-.2-.7.8-1.1.5-1.7-.1 1.9-1.4 2-1.9.8-4-.2-.4-.4-.9-.6-1.3-.2-.6-.3-1.2-1.2-.8-.2.1-.5-.2-.8-.4 0 0 .1-.4.2-.5 1.1-.4.4-1 .2-1.5-.4-1-1.6-1.7-1.4-3 0-.1-.3-.2-.5-.3-.3 0-.6-.1-.9-.1.2-.2.3-.5.4-.7.1-.2.2-.5.2-.7-.2-.6-.5-1.2-.8-1.8-.1-.1-.2-.2-.4-.3-.3-.1-.7-.1-.8-.3s.1-.6.1-.9 0-1-.1-1c-.9-.2-.8-.7-.7-1.3 0-1.5-1-2.7-2.4-3.2-.3 0-.7.1-1 .2.1.2.2.5.3.7.2.4.5.9.7 1.3l.3 1.1c.3.6.1 1.7 1.4 1.2.1 0 .3.2.4.4 0 .2-.1.4-.3.6-.2.2-.6.5-.6.6.4 1.1.9 2.2 1.4 3.4.3.6.6 1.3.9 1.9.1.2.2.5.2.7-.1.8 0 1.2 1 1 .2-.1.6.2.8.3-.1.3-.2.6-.4.9-.2.2-.4.3-.7.4.3.3.6.5.9.7.5.3 1.1.4.3 1.1-.1.2-.2.4-.1.7.9 1.7 1.8 3.3 2.6 4.9l2 2.8.6 1.2c.5.5.8.6 1.1.6zm-.7 2.6c0-.1.1-.3.2-.7-.1-.2-.3-.6-.6-.9-.9-1.3-1.9-2.5-2.6-3.9-1.6-2.9-3.4-5.7-4.4-8.9-.7-2.2-1.7-4.2-2.5-6.3-1.1-2.7-2.1-5.5-3.1-8.2s-1.8-5.4-2.7-8.1c-.2-.5-.3-1.1-.5-1.6 0-.1-.4-.1-.6-.2-.2.6-.7 1.2-.5 1.7.8 2.6 1.6 5.1 2.5 7.7.7 2 1.4 3.9 2.2 5.9 1.2 3.5 2.5 7 3.7 10.6 1.6 4.8 3.9 9.3 6.9 13.4.5.5 1 .9 1.6 1.3.1-.6.2-1.2.4-1.8zm-1.2 3.3l-1.1.8c-.2.1-.4.3-.6.4.3.4.5.8.8 1.2.1.1.6 0 .6-.2.2-.8.4-1.6.5-2.4-.5-.4-1.1-.8-1.4-1.3-.4-.9-1.2 0-1.4-.5-.1-.6-.2-1.2-.2-1.7 0-.1-.1-.1-.2-.2-.9-1.4-1.7-2.8-2.6-4.1-.3-.5-.1-1.3-1.3-1-.5.1-1 .2-.9.6.2.6.7 1.4 1.1 1.5 1 .2 1.1.1.6 1.1-.3.6-.1.9.5 1 1.1.2 1.1.2.4 1.1-.1.1-.1.2-.1.3.6 1.1 1.3 2.2 1.9 3.2.1.1.4 0 .6 0l2.8.2zm-7.6-9.9c.8-.4 1-.9.4-1.7-.4-.5-.4-1.6-.8-1.7-.9-.3-.7-.6-.5-1.3.1-.3 0-1.2-.8-.5-.2.1-.6 0-1-.1 0-.6.3-.9.9-.8.1 0 .5-.4.5-.5l-1.2-3c-.2-1.4-.2-3.1-1.9-3.8-.2-.1-.2-.6-.2-.8.1-1.2-.2-2.3-.8-3.4-.1-.1-.2 0-.3 0s-.4-.1-.7-.2c.1-.3.1-.6.2-.8.6-.6.3-.9-.2-1.3-.1-.6-.2-1.3-.4-1.9s-.3-1.3-1.2-.9c-.1 0-.4-.1-.4-.2s0-.6.2-.6c1.5-.5.3-1.2.2-1.9l-.2-.7c-.2-.8-.5-1.5-.8-2.2l.1-.1-.2-.1c-.1-.3-.2-.6-.4-1-.2-.1-.5-.2-.7-.1-.8 1-1.2 2.3-1 3.6 0 .5-.1 1.1.7 1v.8c-.1.3-.4.6-.3.9.3 1.3.7 2.5 1.1 3.8 0 .2.5.2.7.3.2 0 .4.1.7.1-.1.3-.3.6-.4.8s-.5.4-.4.5l2.1 3.9.3.6c.2.8.1 2 .6 2.4 1.2.8.8 1.9 1.1 2.9.2.7.7 1.4.9 2.2s.6.9 1.2.7c-.1.7 0 1.4.1 2.1.4 1.1 1 2.1 1.7 3 .3.1.7.2 1.1 0zm-2.1-23.2c.1 0 .2-.8.1-1.1-.3-.9-.8-1.6-1.1-2.5-.5-1.2-1.7-2-1.8-3.4 0-.4-.4-.7-.6-1.1l-.4.1c-.1.3-.2.6-.2.9.4 1.2.8 2.5 1.2 3.7.2.5.2.9.9.7.2 0 .5.3.7.5 0 0-.1.4-.2.4-.5.4-.5 1.4 0 1.7.5.2 1 .2 1.4.1zm-3.5-10.2c-.3-.5-.5-.8-.7-1.1-.3.3-.6.8-.8 1.2-.1.2.4.6.7.9l.8-1z"
	/>
	<path d="M161.2 179.4c0 .6.2 1.6-.1 1.8-1.4 1.1-3 2.1-4.6 3-3.5 2-7.4 3.4-11.3 4.2-1 .1-1.9.2-2.9.2-.3-.4-1.4.5-1.4-.6 0-1.8.3-1.8 1.8-1.9 1.8-.1 3.5-.4 5.2-.8 1.5-.3 2.9-.9 4.3-1.5 2.5-1.3 4.9-2.7 7.3-4.1.2-.1.3-.2.5-.2.3-.1.8-.1 1.2-.1z"
	    class="st3" />
	<path d="M159.8 36.7c.2.1.5.3.4.4-.1.3-.3.6-.5.9-.2-.3-.4-.5-.4-.6.2-.3.3-.5.5-.7zm.9-4c-.3.3-.6.6-.7.6-.3-.2-.5-.4-.8-.7.2-.2.4-.5.5-.5.4.2.7.4 1 .6zm-1 1.9c.1-.1.4.2.8.4-.4.3-.7.6-1.1.8-.1 0-.3-.3-.5-.5.3-.2.5-.5.8-.7zm-.5 140l.7.6c-.3.2-.5.5-.6.5s-.4-.2-.6-.3c.1-.3.3-.5.5-.8zm-.7-138.4l-.3.5c-.2.1-.4.3-.6.2s-.4-.4-.4-.5c.1-.2.3-.4.5-.4.3 0 .6.1.8.2zm.2 2.4c-.4.3-.6.6-.9.6s-.5-.3-.6-.5.3-.5.4-.5.6.2 1.1.4zm-1.3-5.1c.1.2.4.4.4.5-.2.3-.4.5-.6.7-.2-.2-.3-.4-.4-.6.1-.2.4-.4.6-.6zm-.9 1.5c.2 0 .4.3.7.5-.4.2-.6.5-.8.4s-.3-.4-.4-.6.4-.3.5-.3z"
	/>
	<path d="M155.2 157.4c.7 1 .9 2.2.6 3.4-.1.2-.5.6-.7.5-1.4-.4-3.4-3.2-3.4-4.5 0-.7.1-1.4.2-2.1 0-.1.6-.3.7-.2 1 .9 1.8 1.9 2.6 2.9z"
	    class="st4" />
	<path d="M155.2 33.7c.1-.1.4.2.8.4-.3.2-.6.5-.9.7-.1 0-.3-.2-.5-.3.2-.3.4-.6.6-.8zm-1 1.5c.1 0 .5.4.4.5s-.3.5-.6.8c-.2-.4-.5-.7-.4-.8.1-.2.3-.4.6-.5zm.2 152.6l-.4 1.1-.5-.9.9-.2z"
	/>
	<path d="M154.1 39.9c.2.5-.1 1.5-.4 2.2-.8 2.1-2.6 3.1-4.5 4-.7.4-1.4.8-2 1.3-.3.2-.7.3-1.1.4v-.7c.1-2.2-.6-2.8-2.6-2.5-1.7.2-3.3.8-4.8 1.7-.2.1-.4.1-.6.1 0-.2.1-.4.2-.5 1-1.6 1.4-3.6.9-5.4-.1-.7-.8-1.2-1.6-1.1h-.1c-.2 0-.4.1-.6.2s-.7 0-1 0c.1-.4.2-.7.4-1 1.8-2.2 3.3-4.8 6.3-5.7 1.2-.4 2.6 0 3.4 1 .5.5.2 2.5-.3 3.5-.8 1.3-1.4 2.7-2.1 4.1-.1.2 0 .4.1.6.2 0 .4 0 .5-.1.3-.2.7-.5 1-.8 1.8-1.5 4-2.4 6.3-2.7 1.2-.2 2.2.4 2.6 1.4z"
	    class="st2" />
	<path d="M153.7 32.9c.2.3.4.6.4.7-.1.2-.3.4-.5.5 0 0-.4-.2-.3-.3.1-.3.2-.6.4-.9zm.6 148.1c-.5.3-.7.6-1 .6s-.4-.2-.6-.4c.2-.2.3-.5.5-.5s.5.2 1.1.3zm-2.6-154.2c.1.1.2.3.3.5-.2.1-.5.4-.6.3-.4-.2-.8-.4-1.1.2 0 .1-.4 0-.7 0 .1-.3.1-.8.3-.9.7 0 1.2-.1 1.8-.1zm0 154.7c0 .2-.3.4-.6.9-.2-.5-.4-.8-.3-1.1s.3-.4.5-.7c.1.4.4.6.4.9zm0-151.7c-.5.2-.7.5-.9.4-.2-.1-.4-.3-.5-.5 0-.1.3-.5.4-.4.4.1.7.3 1 .5zm-1.2 1.6c.1 0 .3.1.6.3-.2.2-.5.5-.8.6 0 0-.3-.3-.4-.5.2-.1.4-.2.6-.4z"
	/>
	<path d="M150 171c.4.9-.5 2.7-2.2 3-.7.1-1.5.2-2.2.2-2.3 0-3.1-.5-3.6-2.3-.4-1.6.3-3.2 1.8-3.9.9-.4 2-.4 2.9-.2 1.5.6 2.7 1.7 3.3 3.2z"
	    class="st5" />
	<path d="M149.8 25.3c.2 0 .4.2.8.4l-.9.8c-.1-.2-.4-.5-.4-.7s.3-.5.5-.5zm-.3 164.1c0 .1-.2.3-.4.4s-.3-.1-.4-.1c.1-.3.2-.6.4-.9.1.1.3.4.4.6zm.3-155.2c0 .2-.3.4-.5.6-.2-.2-.4-.3-.5-.5s.2-.3.4-.6c.3.1.6.3.6.5zm-1-5.2c.3.3.6.6.5.7s-.3.4-.6.5-.4-.3-.4-.4.3-.4.5-.8zm.3 3c.1.3 0 .6-.1.8 0 .1-.3.1-.5.2l-.6-1.8c0-.1.2-.2.5-.4.3.3.5.7.7 1.2zm0 156.7zm-.2-8.3c.1 0 .3.2.6.3l-.6.8c-.1-.2-.4-.4-.4-.6s.2-.4.4-.5zm-.1-144.2s.3.2.5.3l-.6.7c-.1-.1-.3-.3-.3-.4.1-.2.2-.4.4-.6zm-.9-10.5c.1 0 .4.3.4.4-.1.3-.3.6-.5.9-.2-.4-.5-.7-.5-.8.1-.3.3-.5.6-.5zm.7 2c-.3.3-.5.5-.7.5s-.5-.3-.4-.4c0-.2.2-.5.4-.6.2.1.4.3.7.5zm-3.6 1c.6 0 2.1 1.8 2 2.4 0 .2-.2.3-.3.4-.1 0-.4-.1-.4-.3-.1-.2-.2-.5-.3-.8-.2-.5-.2-1.1-1-.9-.1 0-.5-.3-.5-.6s.1-.5.2-.8l.3.6zm2.7 152.3c-.4.2-.6.5-.8.4-.3-.1-.6-.3-.9-.5.2-.2.4-.5.7-.5s.5.3 1 .6zm-1.4-153.5l-.5.4c-.2-.2-.3-.5-.5-.7 0-.1-.1-.3-.1-.4.1.1.3.1.4.2l.7.5zm-.5 154.3c0 .2 0 .5-.1.5-.7.2-1.4.4-2.1.5-.1-.3-.2-.7-.2-1 .7 0 1.4.9 2.1-.1-.1-.1.3 0 .3.1zm-.6-155.1zm-1.2 3.7l-.3.4-.5-.8.1-.1.7.5z"
	/>
	<path d="M142.6 161.3c.5.4 1.1 1.4.9 1.8-.3.7-1.1 1.1-1.8 1.6-1.1-.4-2.1-.8-3.1-1.4-.6-.3-.9-1.1-.6-1.7 0-.1.1-.1.1-.2.4-.8 1.3-1.3 2.2-1.2.8.2 1.6.5 2.3 1.1z"
	    class="st5" />
	<path d="M143.3 181.7v.1zm0 0zm-1.6-133c.2.2.5.4.5.5-.1.2-.3.4-.4.6-.2-.2-.4-.3-.4-.6s.1-.3.3-.5zm-1.7.9c.2 0 .4.2.8.4l-.8.7c-.1-.2-.4-.4-.4-.6 0-.2.2-.4.4-.5zm0 131.3l-.8 1.3v-1.4l.8.1z"
	/>
	<path d="M140 185.8c-.1.4-.1.5-.2.7-.1.6-.3 1.1-.4 1.7-.6-.4-1.1-.8-1.6-1.3-3-4-5.4-8.6-6.9-13.4-1.2-3.6-2.4-7.1-3.7-10.6-.7-2-1.5-3.9-2.2-5.9-.9-2.6-1.8-5.1-2.5-7.7-.1-.5.3-1.1.5-1.7.2.1.5.1.6.2.2.5.3 1.1.5 1.6.9 2.7 1.7 5.4 2.7 8.1s2 5.5 3.1 8.2c.8 2.1 1.9 4.1 2.5 6.3 1 3.2 2.8 6 4.4 8.9.8 1.4 1.8 2.6 2.6 3.9.3.4.5.8.6 1z"
	    class="st3" />
	<path d="M139.5 48.7c-.4.2-.6.4-.8.4s-.3-.2-.5-.4c.2-.2.4-.5.5-.5s.5.3.8.5zm-.6 3c-.2.2-.3.5-.4.5-.2 0-.4-.1-.6-.3-.3-.4-.5-.9-.7-1.4.2-.1.4-.2.5-.2.4.4.8.9 1.2 1.4zm-1.2 125.4c0 .1-.2.4-.4.7-.3-.3-.6-.5-.6-.7s.2-.4.4-.6c.2.3.5.4.6.6zm-.6-133.3c.2.3.3.5.3.6-.2.2-.3.5-.6.7-.1-.2-.4-.3-.3-.4.2-.4.4-.7.6-.9zm-.5 8.2s-.2.2-.3.4l-.5.3c-.1-.3-.2-.6-.2-.9 0-.2.4-.4.4-.4.3.2.5.4.6.6zm-.2-9.2l.6.5c-.3.1-.5.3-.6.3s-.4-.3-.3-.4c0-.1.2-.3.3-.4zm0 131.4c.1-.1.3.2.6.4l-.7.7c-.2-.2-.5-.4-.5-.5.1-.3.3-.5.6-.6zm-.6-127.7c.1 0 .4.2.4.3s-.2.4-.4.7c-.2-.3-.4-.4-.4-.6s.3-.4.4-.4zm.4 7.3c-.1.2-.3.4-.5.5-.1 0-.3-.2-.4-.3.1-.2.2-.4.4-.5s.3.2.5.3zm-1-10c.2.5.4.7.4.9s-.2.4-.4.6c-.1-.2-.4-.3-.4-.5s.2-.3.4-1zm.3 5.4zm0 0zm0 3.7c-.4.2-.6.4-.8.3-.3-.1-.5-.3-.8-.5.2-.2.5-.6.6-.6.4.2.7.5 1 .8zm-1.1-3.4c.3-.1.7-.2 1-.2-.4.7-.9 1.3-1.4 1.9-.1.1-.7-.1-1-.2.2-.3.4-.5.6-.7.2-.3.5-.6.8-.8zm.5-1.5c-.2.2-.4.4-.6.5-.4.1-.8.2-1.1.1-.3-.1-.5-.3-.6-.6 0-.3 0-.6.2-.9.1-.2.3-.5.5-.7l.4.7-.2.4c.3 0 .6.1.8.2.1.1.4.2.6.3zm-.9 7.3l-.6.5-.3-.6s-.3-.5-.4-.8-.3-.4-.3-.5c.1-.2.3-.4.5-.5.1 0 .4.2.5.3.3.5.4 1 .6 1.6zm-.6-10.5c.1.2.2.3.2.3-.1.1-.2.3-.3.4l-.2-.2c.1-.2.2-.4.3-.5zm-1 120.9l.4.5-1.1.5v-.1l.7-.9zm-.3-114.2l.5.5c-.3.4-.6.7-.9 1-.1-.2-.3-.4-.3-.5.3-.3.5-.6.7-1zm-1.3-2.3l1.4.2c-.2.2-.4.3-.6.5-.7.4-.8-.1-.8-.7-.1 0 0 0 0 0zm.9 117.5zm-1.1-112l.8.4c-.1.1-.1.3-.2.4-.3.1-.6.1-.8.1h-.9c-.3 0-.5-.1-.8-.1 0-.2.1-.4.1-.7.1-.3.2-.5.4-.7.2-.2.4-.3.6-.5.1.2.3.5.4.7.1.2.1.4.1.5l.3-.1zm.2-3.9c.2.1.5.3.5.4-.2.4-.4.7-.6 1.1-.2-.3-.4-.4-.3-.5.1-.4.2-.7.4-1zm-.2 126.9c0 .2-.2.4-.4.9-.2-.4-.4-.9-.5-1.4 0-.1.3-.2.4-.4.2.3.4.6.5.9zm-.4-18.6c0 .3-.1.6-.2.9l-.4-.2c-.2-.1-.4-.2-.6-.2.2-.2.4-.4.7-.6.1-.1.5 0 .5.1zm-.4-101.9c.1 0 .3.2.6.5-.5.3-1.1.5-1.7.7-.2 0-.5-.4-.8-.6.6-.2 1.2-.4 1.9-.6zm-.8 102.3zm-.5 10.7c-.2.3.3 1.2-.6.8-.3-.1-.4-.6-.6-.8h1.2zm-.8 2.3c.1.3.3.5.3.7s-.3.3-.4.5c-.1-.2-.3-.4-.3-.5s.2-.4.4-.7zM127 59.4c.2.2.5.4.5.5s-.3.5-.6.9c-.2-.4-.4-.7-.4-.9s.4-.3.5-.5zm-.2 108.9c.2 0 .4.3.7.6-.4.2-.6.4-.8.4s-.4-.3-.4-.4c.1-.3.3-.6.5-.6zm-1.2-.9c.1-.1.3.2.6.4l-.7.7c-.2-.2-.5-.4-.5-.6s.4-.4.6-.5zm.6-2.9c-.4.2-.6.4-.8.4s-.3-.3-.5-.5c.2-.2.3-.4.6-.5s.3.3.7.6zm-.7-102.8c0 .2-.2.5-.5 1-.2-.6-.4-.8-.4-1s.2-.4.4-.6c.2.2.5.4.5.6zm-.7 98.3c-.2.2-.3.5-.5.6-.3.1-.5 0-.7-.2-.1-.2-.1-.4 0-.6.2-.1.5-.1.7-.1.2.1.3.2.5.3zm-.8 3.2c.2.1.4.3.8.6l-.8.6c-.2-.2-.3-.5-.4-.8-.1-.1.2-.5.4-.4zm-1.1-9.4l.2.7c-.1.1-.2.2-.3.2l-1.2-.3c0-.1 0-.4.1-.4.4-.1.8-.1 1.2-.2zm-1 4.1c.3.4.5.6.4.7-.1.2-.3.4-.5.5 0 0-.4-.3-.3-.4 0-.3.2-.6.4-.8zm.3-6.4l-.1.1-.1-.2.2.1z"
	/>
	<path d="M122.1 151.4l.1.2-.9.9c-.2-.2-.5-.5-.6-.8s.4-.5.6-.6c.2 0 .5.1.8.3zm-2.2-115.7c.5.9.6 2 .4 3.1-.4 1.6-1.4 3-2.9 3.9-3.1 1.9-6.8 2.2-10.2.8-4-1.5-5.4-7.3-1.7-10.3 2-1.7 3.7-1.8 6.7-2 3.1.1 6 1.8 7.7 4.5zm-2.9 5.9c2.1-1.1 3.3-3.9 1.3-5.8-1.1-1-2.3-1.9-3.7-2.6-2.7-1.5-6.1-1.1-8.4 1.1-1.9 1.7-2 4.7-.3 6.6l.5.5c1.6 1.3 3.3 1.7 6.1 1.8 1.5-.5 3.1-1 4.5-1.6z"
	/>
	<path d="M118.3 35.7c2 2 .8 4.8-1.3 5.8-1.4.6-2.9 1.2-4.5 1.5-2.7-.1-4.5-.5-6.1-1.8-2-1.6-2.3-4.6-.7-6.6.1-.2.3-.3.5-.5 2.2-2.2 5.6-2.6 8.4-1.1 1.4.8 2.6 1.7 3.7 2.7z"
	    class="st1" />
	<path d="M115.5 186.3c-.2 2.9-1 5.1-2.9 6.5-1.6 1-3.4 1.3-5.2 1.1-2 0-4-.8-5.4-2.3-2.5-2.8-2.4-7 .4-9.6.1-.1.2-.2.3-.2 1.7-1.6 3.8-1.7 6.1-1.3 2.4.3 4.6 1.6 5.9 3.6.3.6.6 1.4.8 2.2zm-4.7 5.9c2.3-.4 4.1-3.9 3.3-6.2-1.1-3.1-3.5-4.5-7.3-4.6-.6 0-1.3.1-1.9.3-3.4 1.1-4.4 6-1.8 8.8 2.1 2.3 4.9 2.2 7.7 1.7z"
	/>
	<path d="M114.1 186c.8 2.3-.9 5.7-3.3 6.2-2.8.5-5.6.6-7.7-1.7-2.6-2.8-1.6-7.6 1.8-8.8.6-.2 1.2-.2 1.9-.3 3.8.1 6.1 1.5 7.3 4.6z"
	    class="st1" />
	<path d="M89.5 16.7c0 2.2.3 4.5.2 6.7-.2 3.3-.7 6.6-1.2 9.9-.4 2.8-1 5.5-1.6 8.2-.5 2.1-.9 4.2-1.5 6.3-.7 2.7-1.5 5.3-2.3 7.9-.3.9-.7 1.7-1.3 2.4-1.3 1.8-3.6 2-5.8.5-1.4-.8-2.6-1.7-3.8-2.8-1.2-1.3-2.1-2.8-2.7-4.4-1.7-4.1-3.2-8.3-4.7-12.5-1.3-3.6-2.4-7.2-3.7-10.7-1-2.6-2.4-5-3.5-7.6-.9-2-1.4-4.1-1.4-6.3-.1-1.5-.5-2.9-1-4.3-.6-2.2.1-3 2.3-2.6 2.7.4 5.3 1.4 7.5 3 .2.2.5.2.8.2 2.1-.2 4.2-.4 6.3-.8.8-.1 1.4-1 2.2-1.4 1.3-.8 2.6-1.6 4-2.2s1.7-.3 2 1c.1.6.1 1.2.2 1.8h-.1c0 .7-.3 1.8.1 2.1.8.6 1.7 1 2.7 1.2 1.3.4 2.7.5 4 1 2 .9 2.4 1.9 2.3 3.4zm-1.1 10.1c.2-2.9.1-5.9 0-8.8 0-.8-.2-1.6-.4-2.4-.2-.7-.5-.7-1-.1-.1.1-.2.1-.2.2-.1-.1-.2-.2-.2-.3 0-1.1-.8-1.1-1.5-1.1-.2-.2-.5-.3-.8-.5-1.3-.4-1.4-.3-1.4 1 0 .8 0 1.5-.1 2.3-.9 4.7-1.7 9.3-2.6 13.9-.6 3.1-1.4 6.2-2.2 9.2-.3 1.2-.3 2.5-.7 3.7-.5 1.7-1.2 3.2-1.8 4.9-.7 2-1.5 3.9-2.2 5.9-.1.1-.1.4 0 .4 1.1.6 2.2 1.2 3.4 1.8l.2-.2.7-.3c0 .4.1.7.1 1.1 0 .2-.1.5 0 .6 1 .6 2.4.4 3.2-.5.7-1.1 1.3-2.2 1.8-3.4.3-1 .6-2.1.8-3.2.7-2.8 1.5-5.5 2.2-8.3.4-1.7.7-3.4 1.1-5.1s.6-3.1.8-4.6c.3-2.1.6-4.1.8-6.2zm-6.5-11.2c-.1-.6-.4-1.6-.8-2.6-.1-.3-.5-.4-.8-.6-.2.2-.3.5-.4.8-.8 1.2-1.3 2.7-2.4 3.5-1.9 1.4-3.9 2.9-6.5 2.7-.3 0-.5.1-.8.2L65 21.1c-1.3.4-2.7.1-3.7-.8-1-.8-2-1.7-2.8-2.6l-.9-.9c.1.5.1 1 .2 1.5.1.4.3.7.5 1.1 1.6 3.7 3.2 7.5 4.8 11.2l.6 1.5v-1.7c1-3.6 2.7-6.7 6.1-8.4.5-.2 1.5-.1 1.7.2.4.8.7 1.6.7 2.5.4 2.6-.7 5.1-2.7 6.7-1.3 1-2.5 2.2-4.3 2.2-1.1 0-.9.4-.7 1.1 1.6 4.5 3.1 8.9 4.7 13.4.7 1.8 1.6 3.6 2.5 5.3.1.3.5.4.8.6.2-.2.4-.5.6-.8.6-1.5 1-3.1 1.6-4.6 1.2-2.4 2-4.9 2.3-7.5.3-1.9.7-3.8 1.3-5.6l1.5-6.8c.3-1.5.5-3.1.8-4.7.3-2.8.8-5.3 1.3-8.4zM79.2 11c-.1-.2-.2-.5-.2-.7l-1.5 2.2c.2.1.5.4.7.4 1.2-.2.6-1.3 1-1.9zm-.4-2.8c.1-.3.2-.5.2-.8-.3-.1-.5-.1-.8 0-4.6 2-7 4.5-7.5 9.6v.3c0 .3.1.5.1.8l.5-.6c.5-.8 1.2-1.5 1.8-2.2 2.5-1.8 4.5-4.3 5.7-7.1zm-1.4 7c.3-.2.4-.6.5-1-.3-.1-.7-.5-.9-.4-.8.4-1.5.9-2.2 1.4l.3.3h.8v.1c.5-.1 1-.2 1.5-.4zm-2.2 1.7s-.1-.4-.2-.4c-1 0-2-.4-2.6.9l-.2.5.8.2c.7-.4 1.5-.8 2.2-1.2zM71 12.3c.4-1.2.5-1.2-.8-1.2h-.5V11c-.9.2-1.8.3-2.7.5-.2.2-.3.4-.2.6.6 1.2 1.2 2.4 1.8 3.7.3.5.4 1.1.7 1.6l.3.3c0-.1.1-.2.1-.4.4-1.6.7-3.3 1.3-5zm0 12.4c0-.2-.1-.4-.2-.5-.1.1-.3.2-.4.4-.4.8-.8 1.6-1.2 2.3-1 1.6-2.2 3.1-3.2 4.6-.1.2-.2.3-.2.5.1.1.2.1.3.2.2-.1.3-.1.4-.2 2.3-1.6 4.7-3.1 4.3-6.5 0-.3.2-.6.2-.8zm-1.2-1.3l-.3-.3c-.5.4-1 .7-1.7 1.3.6.2 1 .5 1.1.4.4-.5.7-.9.9-1.4zm-2.6-6.1h.6c0-.2 0-.4-.1-.5-.7-1.4-1.4-2.7-2.1-4.1-.2-.3-.4-.5-.7-.7-.1.3-.2.6-.2.8.1 1.3.2 2.3.3 3.4 0 .2.2.4.4.5l1.8.6zm1.3 9.1c-.3-.2-.9-.7-1-.6-.6.4-1.1.9-1.6 1.4 0 0 .3.4.7.8l1.9-1.6zm-1.5-7c.5-.1.9-.3 1.3-.5-.4-.2-.9-.4-1.4-.5-3.9-.8-6.9-3.2-9.5-6.1-.2-.1-.4-.2-.5-.3 0 .2-.1.5 0 .6.6 1.4 1.4 2.8 2.2 4.2 1.1 1.8 2.9 3 5 3.4.9-.3 1.9-.5 2.9-.8zm-.5 9.9c0-.3-.1-.5-.3-.6-.9-.2-1.5.5-1.4 1.9l.2.4c.2-.1.3-.2.5-.3.4-.5.7-.9 1-1.4zm-2.7-16.9c.2-1.2-.5-1.6-1.3-2.1-.5-.3-.8-.2-.8.5 0 1.1.1 2.2.3 3.2.2.7 1.1 1.1 1.7 1.7.1-.4.2-.7.3-.9-.2-.8-.3-1.6-.2-2.4zm-3.1 1.3l.2-.7c-.1-3.4-.3-3.7-2.6-4.2-.4-.1-.8-.1-1.2-.1-.2 0-.4.4-.4.5l3.1 4c.3.2.6.4.9.5zm26.7 127.5c1.5.6 1.6 1.8 1.5 3.1 0 2.7-.1 5.4-.1 8.1 0 1.6-.2 3.1-.2 4.7 0 .9.2 1.9.2 2.8-.1 4.9-.3 9.8-.5 14.7v2.1c0 2 .1 4 0 6s-.5 3.9-2.7 4.7l-.1.1c-2.4 2.6-5.7 2.4-8.8 2.2s-6.1-.5-9.2-1c-1.6-.3-3.2-.7-4.8-1.3-1-.4-1.6-1.9-1.5-3.3.2-1 .2-2 .2-3-.3-5.2 1.7-9.6 4.1-14 1.1-2.1 2.2-4.2 3.4-6.2l5.1-8.1s3.3-5.6 5-8.3c1-1.5 2.1-3 3.2-4.4.5-.4 1.1-.7 1.7-.9.2-.1.6 0 .6.1.7 1.3 1.9 1.5 2.9 1.9zm.3 4.2c.3-1.3-.3-2.7-1.5-3.3-.2-.1-.5-.3-.7-.2s-.3.4-.3.7c0 1.3-.1 2.6 0 3.8 0 2.4.1 4.7.2 7.1 0 1.1.3 2.2.3 3.3-.1 2.5-.3 4.9-.3 7.4 0 3.2.1 6.4.2 9.6v4.6c.2 1.6.6 3.2.9 4.8h-.2v.4c.1.5.1 1.1.2 1.6.3-.6.5-1.2.6-1.8.2-6.7.3-13.3.4-20 0-2.2-.1-4.5-.1-6.8 0-1.9.1-3.7.2-5.6s0-3.8.1-5.6zm-4.1 37.1c.6 0 1.5.3 1.3-.9-.2-.9-.3-1.7-.6-2.5-.1-.1-.3-.2-.5-.1-2.2 1.4-4.7 1.4-7.1 1.6-2.6.1-5.2-.2-7.7-1.1-2-.6-3.9-1.3-5.9-1.9H63c-.2.5-.3 1-.3 1.5 0 .3.2.8.4.9 3.8 1.4 7.6 2.6 11.8 2.3 2.9-.2 5.8-.1 8.7.2zm-.7 5.5c1.2-.1 2.1-.9 1.7-1.5s-1.3-.7-2-.8-1.3.4-1.9.4c-2.2.1-4.3.1-6.5 0-1.1 0-2.3-.1-3.4-.4-2.4-.6-4.7-1.3-7-1.9-.3-.1-.9-.1-1 .1-.4.9 0 1.9.9 2.3h.1c4.7 1.5 9.6 1.9 14.8 2.3l4.3-.5zm.7-12.3c.7.2.7 0 .6-.6-.2-2.7-.3-5.5-.3-8.2 0-4 .2-8 .2-12 0-1.4-.5-2.7-.4-4.1 0-3 .3-6 .4-9-.1-.4-.2-.8-.4-1.2-.3.2-.7.4-.9.6-.8 1.1-1.6 2.2-2.4 3.4l-5.1 8.4c-1.1 1.7-2.2 3.4-3.2 5.1-.2.2-.6.6.2.7.2.1.5.1.7.2-.1.2-.2.6-.4.7s-.7 0-.8-.1c-.5-.8-.6-.1-.8.2-1.2 2.1-2.4 4.3-3.5 6.4-.9 1.7-1.8 3.5-2.6 5.2-.3.8-.7 1.5-1 2.3-.7 1.8-.1 2.8 1.7 3.2 1.5.4 3 .8 4.4 1.2.6.2 1.2.4 1.7-.2.4-.4.8-.4.8.4.1.3.3.6.6.7.7.3 1.4.3 2.1.2.8-.3 2.3.7 2.3-1.1 0-.1.4-.2.7-.3 0 .2 0 .4.1.7 0 .2.1.6.2.7 1.1 0 2.2-.4 3-1.1.2-.2.8-.4.9-.3 1.1.7 1.3-.1 1.6-.9 0-.1-.2-.4-.3-.4h-.9l-.1-.4c.2-.2.6-.4.9-.4zm0 8.5c-.2-.2-.5-.4-.8-.6-.8-.2-1.6-.4-2.6-.6-.1.1-.5.2-.5.3-.1.5-.1 1.1 0 1.6 0 .1.3.3.4.3.2 0 .4-.1.6-.3.1-.2 0-.5 0-.7l.3-.6c.2.1.3.2.5.3.1.1.1.5.2.5.3.2.7.2 1.1.2.3.2.5-.1.8-.4zm-4.9 1l.3-.9c-.1-1-.1-1-1.1-1.1-.5 0-.9 0-1.4-.1-1.5-.2-1.5-.2-1.2 1.2.1.3.4.5.6.7l.6-.6s.4-.5.6-.8c.2.2.4.5.6.7.2.5.6.7 1 .9zm-5.3-.1l.8-.9c-.4-.4-.7-.7-.9-1-.2.3-.5.5-.4.8.1.4.3.8.5 1.1zm-2.3-.5l.8-.7-.8-.8c-.2.2-.5.4-.5.5.2.4.3.7.5 1zm-2.2-.5c.1.1.6-.5.6-.5l-.9-1.2c-.3.5-.7.8-.6.9.2.3.5.6.9.8zm-2.5-.5c.1 0 .5-.4.4-.5-.3-.5-.6-1-1.1-1.7-.2.3-.4.6-.5.9-.1 1 .6 1.1 1.2 1.3zm-1.8-1.5l-.6-.7c-.2.3-.4.5-.5.9 0 .1.3.4.5.5l.6-.7z"
	/>
	<path d="M86.2 142.1c1.2.6 1.8 2 1.5 3.3-.2 1.9-.2 3.8-.2 5.6s-.1 3.7-.2 5.6c0 2.2.1 4.5.1 6.8-.1 6.7-.2 13.3-.4 20-.1.6-.3 1.2-.6 1.8-.1-.5-.1-1.1-.2-1.6v-.4h.2l-.9-4.8v-4.6c-.1-3.2-.2-6.4-.2-9.6 0-2.5.3-5 .3-7.4 0-1.1-.2-2.2-.3-3.3-.1-2.4-.1-4.7-.2-7.1v-3.8c0-.2.1-.6.3-.7s.6 0 .8.2z"
	    class="st3" />
	<path d="M86.8 18.2c0 .2-.2.4-.4.8-.2-.3-.3-.6-.3-.9 0-.1.2-.2.4-.3.1.1.3.3.3.4zm-.5 2.7c.1 0 .4.3.4.4-.2.4-.4.7-.7 1-.1-.5-.3-.7-.2-.9.2-.3.3-.4.5-.5zm-.1 4.1c.1.2-.3.5-.5.8-.3-.4-.5-.8-.8-1.2l.5-1c.3.4.6.9.8 1.4zm-1 3.4c.3.3.5.5.5.6-.1.4-.3.7-.5 1-.2-.2-.5-.5-.5-.7s.3-.4.5-.9zm.5-1.2v.3s-.3.3-.5.2c-.7-.2-1.3-.5-1.9-.8.2-.3.4-.7.7-1 .6.5 1.2.9 1.7 1.3zm-.3-10.8s.4.3.7.5l-1.3 1.6c-.2-.1-.4-.3-.5-.4.3-.7.7-1.2 1.1-1.7zm-.4-2.1c.1.2.1.4.2.6-.1.3-.2.6-.3.8-.2-.1-.4-.2-.4-.3 0-.3 0-.6.1-.9 0 0 .3-.1.4-.2zm.1 0z"
	/>
	<path d="M84.9 181.6c.1 1.2-.7.9-1.3.9-2.9-.3-5.8-.4-8.7-.3-4.2.3-8-.9-11.8-2.3-.2-.1-.4-.6-.4-.9 0-.5.1-1 .3-1.5h.2c2 .6 3.9 1.3 5.9 1.9 2.5.8 5.1 1.2 7.7 1.1 2.5-.2 4.9-.2 7.1-1.6.2 0 .4 0 .5.1.2.9.4 1.7.5 2.6z"
	    class="st3" />
	<path d="M84.8 21.9c.2 0 .4.3.7.5-.3.2-.5.5-.7.5-.2-.1-.4-.3-.5-.6-.1-.1.3-.4.5-.4zm.1-1.3c-.1.3-.2.5-.4.8-.3-.3-.6-.5-.5-.6.1-.2.3-.4.5-.5.1-.1.4.2.4.3zm-.4 11.5l.7.6-.8.9c-.2-.2-.4-.5-.4-.7s.3-.5.5-.8z"
	/>
	<path d="M84.5 186.6c.4.6-.5 1.3-1.7 1.5l-4.5.6c-5.2-.4-10.1-.8-14.8-2.3-.9-.4-1.3-1.4-1-2.3v-.1c.1-.2.7-.2 1-.1 2.4.6 4.7 1.4 7 1.9 1.1.2 2.3.4 3.4.4 2.2.1 4.3.1 6.5 0 .7 0 1.3-.5 1.9-.4s1.9.3 2.2.8z"
	    class="st3" />
	<path d="M85.1 31.1c-.2.2-.5.5-.5.4-.2-.1-.4-.3-.4-.5 0-.1.2-.3.3-.5l.6.6zm-.2 6l-.9.8c-.2-.2-.5-.5-.5-.8s.3-.5.6-.5.4.3.8.5zm-.7-13.4c.1.2.4.3.4.5s-.2.4-.4.6c-.2-.2-.5-.5-.5-.6s.3-.3.5-.5zm-.8 5.3s.3.3.2.4c-.1.3-.3.5-.5.7-.2-.3-.4-.6-.4-.7.3-.2.5-.3.7-.4zm0 5.5l.7.6-.8.6c-.1-.2-.3-.4-.2-.6 0-.1.1-.4.3-.6zm-.3 6.1c.1.2.2.4.2.6-.1.2-.2.6-.3.6-.3 0-.6-.1-.8-.3L81 40c-.1-.2-.2-.5-.1-.8 0-.1.5-.3.6-.2.6.5 1.1 1.1 1.6 1.6zM83 167.9c.1-.1.4.1.7.3-.3.2-.5.5-.7.5s-.3-.2-.5-.3c.2-.2.3-.4.5-.5zm.1-136.3c-.1.3-.2.6-.3.8-.2-.4-.4-.6-.4-.7s.3-.4.4-.6c0 .2.3.3.3.5zm.2 2.1c-.4.2-.6.4-.8.3s-.4-.3-.6-.5c.2-.2.5-.4.7-.5.2 0 .4.4.7.7zm-.9 139.1c.2 0 .4.3.8.6l-1 .3c-.1 0-.3-.4-.3-.4s.4-.5.5-.5zm-.7-128.5c.2.3.5.8.4 1-.3.5-.7.9-1.1 1.3-.1-.2-.4-.5-.4-.7.2-.5.4-1.1.7-1.6h.4zm.4-6.6c0 .2-.2.5-.3.9l-.8-.9c.2-.2.4-.4.6-.4.2 0 .4.2.5.4zm.6-1.9c-.4.3-.6.5-.8.5s-.5-.3-.5-.4.3-.6.4-.6.4.2.9.5zm-.8 7.4l-.4.4-.7-.9.2-.2.9.7zm-.2 109.9c.1 0 .3.2.7.4-.4.2-.6.4-.8.4s-.3-.2-.5-.3c.2-.2.4-.4.6-.5zm-.8-105.6l.7.9c-.3.2-.7.7-1.1.7s-.6-.4-.9-.7l1.3-.9zm0 112.5c.1-.1.3.2.7.4-.3.2-.6.4-1 .5-.1 0-.3-.2-.5-.3.3-.2.5-.4.8-.6z"
	/>
	<path d="M80.6 41.7c.1.3.2.6.4.9l-.2.2-.6-.8.4-.3zm.7 128.1l-.9.6-.7-.7c.2-.2.5-.5.7-.5.3.2.6.3.9.6zm-.9-5.3c.2 0 .4.3.8.6-.4.3-.7.5-1 .5s-.5-.4-.5-.6c.1-.3.4-.5.7-.5zm-.1-113.9c0 .4 0 .8-.2 1-.3.2-.7.4-1.1.4-.5.1-1 .1-1.5 0-.2 0-.4-.3-.6-.5l.9-.5.2.3c.4-.3.8-.5 1.2-.7h1.1zm-.1 126.2c0 .1-.4.6-.5.5-.4-.2-.7-.4-1-.6l.8-.9c.3.3.5.7.7 1zm-.1-133c.2 0 .3.2.5.5-.3.2-.4.4-.6.6-.2-.2-.3-.5-.3-.7-.1-.2.2-.4.4-.4zm-.4 130.1c0 .1-.2.4-.5.8l-1-.9c.2-.1.5-.4.7-.4.3.1.6.3.8.5zm-.5-128.1c.2.2.5.5.4.6-.1.3-.3.5-.5.7l-.6-.5.7-.8z"
	/>
	<path d="M79 10.3c.1.2.2.4.2.7-.4.6.2 1.8-1 1.9-.2 0-.5-.3-.7-.4l1.5-2.2z" class="st6" />
	<path d="M78.8 48.3c0 .2.2.5.2.6-.1.3-.3.5-.5.7-.2-.2-.5-.4-.5-.6s.2-.3.4-.5l.4-.2z" />
	<path d="M79 7.4c0 .3-.1.5-.2.7-1.2 2.9-3.2 5.3-5.7 7.2-.7.7-1.3 1.4-1.8 2.2l-.5.6c0-.3-.1-.5-.1-.8V17c.5-5.1 2.9-7.6 7.5-9.6h.8z"
	    class="st7" />
	<path d="M78.8 54.1c.2.1.2 1-.6.8-.2-.1-.3-.1-.5 0-.3.1-.5.3-.8.5l-.7-1.3c0-.1 0-.2.1-.2.2-.1.5-.2.7-.2.6 0 1.2.1 1.8.4zm-1.3 121.1c.1 0 .3.2.5.4l-.8.9-.4-.6c.2-.3.4-.6.7-.7z"
	/>
	<path d="M77.9 14.2c-.2.3-.3.8-.5 1-.5.2-1 .4-1.5.5v-.1h-.8c-.1 0-.2-.2-.3-.3.7-.5 1.4-1 2.2-1.5.2-.1.6.3.9.4z" class="st6"
	/>
	<path d="M76.9 172.9c0 .1-.1.3-.2.4-.3.2-.7.3-1 .4-.1 0-.2-.3-.4-.5l.9-.6c.2 0 .5.2.7.3zm-.3-4.7s.3.2.6.5c-.2.2-.5.4-.8.5-.1 0-.3-.2-.5-.3l.7-.7zm-.3-11.9c.2 0 .4.2.8.5-.5.2-.7.5-.9.4s-.4-.3-.7-.5c.2-.1.5-.3.8-.4zm-.5 5.7c.2 0 .4.3.8.6-.3.2-.6.5-.9.6-.1 0-.5-.4-.5-.6.1-.3.3-.5.6-.6zm.2 16.3l-.9.7-.8-.7c.3-.2.5-.5.8-.5s.6.3.9.5z"
	/>
	<path d="M75.1 16.5c.1 0 .2.4.2.4-.8.4-1.6.8-2.2 1.2l-.8-.2.2-.5c.6-1.3 1.6-.9 2.6-.9z" class="st6" />
	<path d="M75.7 175.9l-.7.6c-.2-.2-.4-.4-.6-.7 0-.1.3-.5.5-.5s.5.4.8.6zm-1.9.6c-.1.2-.3.4-.5.6-.1.1-.3-.2-.6-.4.3-.2.5-.4.7-.5s.2.2.4.3zm-1.3-9.5c.1-.1.3.1.8.3l-.9.6c-.1 0-.3-.2-.5-.4.1-.2.3-.4.6-.5zm-.6 3.2c.2.3.5.5.4.6s-.3.4-.5.5c-.2-.2-.4-.4-.5-.7.2-.1.4-.3.6-.4zm-.2 5.9c.1 0 .3.2.6.5-.3.2-.6.3-.9.5-.1 0-.3-.3-.3-.3.2-.3.4-.5.6-.7zm-.5-2.5c.2.3.5.5.4.6l-.6.6c-.1-.2-.4-.4-.3-.5s.3-.5.5-.7zm.4-10.1c0 .2-.3.5-.6.9-.2-.4-.3-.8-.5-1.2 0-.1.4-.3.5-.3s.6.4.6.6z"
	/>
	<path d="M70.9 24.1c.1.2.1.3.2.5 0 .3-.2.5-.1.8.4 3.4-2 4.9-4.3 6.5-.1.1-.3.1-.4.2-.1 0-.2-.1-.3-.1 0-.2.1-.4.2-.5 1.1-1.5 2.2-3.1 3.2-4.6.5-.7.8-1.5 1.2-2.3 0-.2.1-.3.3-.5z"
	    class="st7" />
	<path d="M69.9 174.9c.1.2.2.4.2.5-.1.3-.3.5-.5.7-.1-.1-.3-.3-.3-.4l.3-.6.3-.2z" />
	<path d="M69.6 23.1l.3.3c-.2.5-.5.9-.8 1.3-.1.1-.6-.2-1.1-.4.6-.5 1.1-.9 1.6-1.2z" class="st6" />
	<path d="M69.7 166.6c.2 0 .3.4.7.7-.3.1-.7.2-1 .2-.1 0-.3-.4-.3-.4.1-.2.4-.5.6-.5zm-1 4.5c.2.2.4.3.5.5l-2.1 1.7c-.1-.3-.2-.6-.1-.7.5-.5 1.1-1 1.7-1.5zm-1-2.3l.3.4c-.2.1-.5.3-.8.2s-.4-.3-.6-.5c.2-.2.3-.4.6-.5s.3.2.5.4z"
	/>
	<path d="M67.9 17.3h-.6l-1.8-.6c-.2-.1-.3-.3-.4-.5-.1-1-.2-2.1-.3-3.4 0-.1.1-.5.2-.8.3.2.5.4.7.7.7 1.3 1.4 2.7 2.1 4.1 0 .2.1.4.1.5zm-.4 8.4c.2-.1.7.4 1 .6l-1.9 1.5c-.3-.4-.7-.8-.7-.8.5-.4 1-.9 1.6-1.3z"
	    class="st6" />
	<path d="M68.4 18.9c-.4.2-.9.4-1.3.5-1 .3-2 .5-2.9.7-2.1-.4-3.9-1.6-5-3.4-.8-1.3-1.6-2.7-2.2-4.2-.1-.2 0-.4 0-.6.2.1.4.2.5.3 2.5 2.9 5.5 5.2 9.5 6.1.5.2.9.4 1.4.6z"
	    class="st7" />
	<path d="M67.2 175.6c.2 0 .5.2 1 .5-.5.3-.8.5-1 .5s-.4-.3-.4-.5.2-.4.4-.5zm-.4-2l.4.4-.6.6c-.1 0-.3-.2-.5-.4l.7-.6z" />
	<path d="M66.2 28.6c.2.2.3.4.3.6-.3.5-.7 1-1.1 1.4-.1.1-.3.2-.5.3l-.2-.5c.1-1.3.6-2 1.5-1.8z" class="st6" />
	<path d="M66.1 171.6l-.4.6-.9-.6c.1 0 .1-.1.2-.1l1.1.1zm-1.5 3.1c.1 0 .3.2.6.4-.3.2-.5.5-.7.5s-.3-.3-.5-.5c.2-.1.3-.3.6-.4z"
	/>
	<path d="M62.5 10.3c.8.4 1.5.9 1.3 2.1 0 .8.1 1.7.2 2.5-.1.2-.2.5-.3.9-.6-.6-1.4-1-1.7-1.7-.3-1.1-.4-2.2-.3-3.3-.1-.7.2-.8.8-.5zM60.8 13l-.2.7c-.3-.1-.6-.3-.8-.5-1.1-1.3-2.1-2.7-3.1-4 0-.1.2-.5.4-.5.4 0 .8 0 1.2.1 2.3.5 2.4.8 2.5 4.2z"
	    class="st6" />
	<path d="M49 52.8c-.2 4.2-2.2 6.6-6.5 7-3.2.4-6.4-1.1-8.2-3.9-.8-1.2-1.1-2.7-.6-4.1.7-2.1 1.5-4.3 4-4.7 3.3-.5 6.7-.6 9.5 1.8 1.2 1 1.8 2.4 1.8 3.9zm-1.9 3.6c2.6-4.1-.5-7.5-3.8-8.1-.9-.2-1.9-.2-2.8-.3-2.2 0-2.2 0-4.1 1.4-1.5 1.4-1.9 3.6-1 5.5C37 57.6 40 59 43 58.6c1.6 0 3.1-.8 4.1-2.2z"
	    class="st1" />
	<path d="M43.2 48.3c3.4.7 6.4 4 3.8 8.2-.9 1.3-2.4 2.1-4 2.2-3.1.5-6.1-1-7.7-3.7-.9-1.8-.5-4.1 1-5.5 1.8-1.4 1.8-1.5 4-1.4 1.1 0 2 0 2.9.2z"
	    class="st1" />
	<path d="M30.4 77.4c.3 1.1.8 2.4-.3 3.6-.3.3-.1 1-.1 1.6-.1 1.6-.2 3.2-.4 4.7-.1.7-.3 1.5-.6 2.2-.2.7-.9 1.1-1.6.9-.1 0-.3-.1-.4-.2-1.6-.9-3.2-2-4.9-2.8-4.5-2.2-7.9-5.8-11.3-9.3-2-2-3.8-4.1-5.8-6.2-1.3-1.3-3.8-5.8-3.8-7.1l1.4-6.2c.4-1.1.6-2.2.7-3.3 0-1.7 1-2.8 2-3.8 1.7-1.8 3.5-3.4 5.4-5 .9-.9 2-1.6 3.2-2.2 1.7-.8 2.9-.4 3.6 1 1.5 2.9 2.9 5.7 4.2 8.7 1.9 4.3 3.6 8.6 5.3 12.9 1.3 3.5 2.4 7 3.4 10.5zM29 79.7c.6-.4.6-.9.5-1.5-1.1-4.4-2.5-8.7-4.3-12.8-.7-1.5-1.3-3.1-2-4.7-.1-.2-.2-.5-.4-.5-.9 0-1-.2-.9-1 .1-.3.1-.7.2-1 0-.2 0-.4-.1-.6-1.4-3.2-2.8-6.5-4.4-9.7s-2.1-3.2-4.9-1.7c-.2.1-.3.2-.5.3C9.9 48.8 7.4 51 5 53.3c-.3.3-.2 1.3 0 1.9s.9 1.1 1.3 1.7c2.2 3.4 5.2 6.1 7.9 9 .1.1.4 0 .6 0l1.7-.2c0 .5.1 1.1-.1 1.4-.4.6-.3.9.2 1.4 1.5 1.5 3 3.2 4.5 4.7 2.1 2.2 4.3 4.3 6.5 6.4.3.4.9.5 1.4.1zm-.7 8.5c.2-1.5.4-3 .5-4.4h-.1c0-.6.2-1.2 0-1.6s-.8-.7-1.3-1c-.2.3-.4.7-.5 1.1-.1 1.6-.2 3.3-.2 4.9 0 .5 0 .9.2 1.3.2.3.7.3 1 .4.2-.2.3-.4.4-.7zm-2.3-6c.4-1.5-.3-3-1.6-3.7-.2-.1-.3-.2-.5-.2-.1.1-.1.3-.1.4l-.3 3.8h.1v2.4c-.1 1.2.5 2.3 1.5 2.8l.6.3c.1-.2.1-.4.1-.7 0-1.7 0-3.4.2-5.1zm-3.2-2.7c.2-1.5.1-2.8-1.3-3.8-.6-.5-1.1-1-1.5-1.7 0 .9-.1 1.7-.1 2.6 0 .2.1.4.1.6.2 2.4.3 4.8.5 7.2.1.6 1.1 1.6 1.8 1.4.2-.1.3-.8.4-1.2 0-1.7-.1-3.4.1-5.1zm-3.5 3.9c0-.5-.1-1-.2-1.6 0-2.8 0-5.6-.2-8.4-.1-.6-.4-1.2-.8-1.7s-.9-.9-1.4-1.2c-.5-.4-.8-.3-.8.4v3.2c.1 1.5.3 3.5.2 5.5 0 1.7.9 3.3 2.4 4.1.6.3.8.1.8-.3zm-4.1-2.9c.1-.1.1-.3.1-.4 0-.8-.1-1.7-.1-2.5 0-2.4.1-4.7 0-7.1-.1-.9-.3-1.7-.8-2.5-.5-.7-1-1.3-1.7-1.8l-.3-.3c-.1.2-.2.3-.2.5-.1 2-.2 4-.4 5.9h.2v3.6c0 .6.1 1.2.4 1.8.8.9 1.6 1.8 2.4 2.6.2.1.3.1.4.2zm-3.9-14.3c.2-1.4-.5-2-1.1-2.8-.2-.1-.5-.3-.7-.4-.1.3-.3.6-.3.9-.2 2.1-.3 4.2-.4 6.2h.1c-.1 1.1-.1 2.3.1 3.4.2.8 1.1 1.5 1.7 2.2.2-.7.3-1.5.4-2.2.1-2.4-.2-4.9.2-7.3zm-3.2-1.7c.2-1.8.3-3.4-1.3-4.7l-.4-.4c-.1.2-.2.4-.2.6-.7 3.1-1 6.3-.8 9.5-.1 1.4 1.1 1.8 1.6 2.6.1.2.4.3.6.5.1-.3.2-.6.2-.8.1-2.5 0-4.9.3-7.3zm-2.7-6.1c.1-.6-.6-1.3-1-1.9-.2.5-.4 1-.5 1.4 0 .1-.1.1-.1.2-.5 2.1-.9 4.2-1.4 6.6.4 1 .9 2.1 1.4 3.2 0 .1.2.2.3.2s.3-.2.3-.3c0-.8 0-1.6.1-2.4.2-2.2.6-4.6.9-7z"
	/>
	<path d="M29.5 78.3c.1.6.2 1-.5 1.5-.4.3-1.1.3-1.4-.2-2.2-2.1-4.3-4.2-6.5-6.4-1.5-1.6-3-3.2-4.5-4.7-.5-.5-.6-.8-.2-1.4.2-.3.1-1 .1-1.4l-1.7.2c-.2 0-.6.2-.6 0-2.7-2.9-5.7-5.6-7.9-9-.4-.6-1-1.1-1.3-1.7s-.3-1.6 0-1.9c2.4-2.3 4.8-4.5 7.3-6.7.1-.1.3-.2.5-.3 2.8-1.5 3.3-1.4 4.9 1.8s3 6.5 4.4 9.7c.1.2.1.4.1.6-.1.3-.2.7-.2 1-.1.9 0 1 .9 1 .1 0 .3.3.4.5.7 1.6 1.3 3.1 2 4.7 1.7 4 3.1 8.3 4.2 12.7zM28 77c-.5-.4-.8-.8-.9-.8-.4.2-.8.4-1.1.7.3.2.5.6.8.6s.7-.2 1.2-.5zm-1.6-4.2c.1-.2-.4-1-.6-1-.4 0-.8.4-1.5.8.6.6.9 1.1 1.1 1 .4 0 .8-.3 1-.8zm-2-5.3c-.3-.4-.6-.7-.8-.9-.3.4-.6.7-.8 1.2-.1.2.4.6.6.8l1-1.1zm-3.1 3.8c.3-.3.8-.7.8-1.1s-.4-.9-.7-1.3L20 70l1.3 1.3zm-.6-5.9l1.5-1.3c-.7-.4-1.1-.9-1.5-.8s-1 .6-.9.8c.3.4.6.9.9 1.3zm-4.1-12c.6.2 1.5-.9 1.5-2-.2-.2-.7-.8-1-.7-.8.1-1.8.3-1.6 1.4.2.5.6 1 1.1 1.3zm2.5 5.1c-.6-.3-1-.6-1.2-.6s-.5.4-.8.7c.2.2.5.6.7.6.5-.2.9-.4 1.3-.7zm-4.5 1.7c-.4-.4-.8-1.2-1.2-1.2-1.1 0-.9 1.2-1.3 2 0 .1.5.8.8.8.8.1 1.6-.4 1.7-1.3v-.3zm-1.1-6c0-.3-.4-.6-.7-.9l-.4-.3c-.2.3-.5.8-.4 1 .2.4.5.8.9 1.1.2-.3.7-.6.6-.9zm0-4.3c-.5-.2-.8-.5-.9-.4-.3.2-.5.4-.7.7.2.1.4.4.5.4.4-.3.7-.4 1.1-.7zm-3.7 5.5c-.6-.6-1.2-1.3-1.4-1.3-.6.3-1.1.7-1.3 1.3-.2.5.1 1.1.7 1.2.2.1.4.1.5 0 .5 0 .9-.6 1.5-1.2z"
	    class="st8" />
	<path d="M27.1 76.2c.1 0 .5.4.9.8-.6.3-.9.6-1.2.6s-.5-.4-.8-.6c.3-.3.7-.6 1.1-.8zm-1.3-4.3c.2 0 .7.8.6 1-.2.4-.6.7-1 .9-.2 0-.6-.5-1.1-1 .7-.5 1.1-.9 1.5-.9z"
	/>
	<path d="M23.2 136c1.9.6 2.5 1.8 1.8 3.9-1.3 3.6-5.2 4.5-7.9 1.7-.4-.6-.6-1.2-.8-1.9.1-1.1.6-2.1 1.6-2.7 1.5-1.1 3.4-1.5 5.3-1zm.4 4.9c.9-1.1.8-3.1-.3-3.4-.7-.2-1.4-.4-2.1-.5-.5 0-1.1.1-1.6.3-1 .3-1.8 1.1-1.9 2.2-.1 1.3.9 1.6 1.7 2 .3.2.7.3 1.1.4 1.2.2 2.4-.2 3.1-1z"
	    class="st9" />
	<path d="M23.4 137.4c1 .4 1.2 2.3.3 3.4-.8.9-2 1.3-3.1.9-.4-.1-.8-.2-1.1-.4-.8-.4-1.8-.7-1.7-2 .1-1 .9-1.9 1.9-2.2.5-.2 1-.3 1.6-.3l2.1.6z"
	    class="st1" />
	<path d="M23.7 66.6c.2.3.5.5.8.9l-1 1.1c-.2-.3-.6-.6-.6-.8.2-.4.5-.8.8-1.2zm0 54.5c.3 3.5-2.1 5.6-6 6.3-2.7.5-6.4-2.3-7-5.3-.3-1.3 1.1-5.2 2.2-5.3 1.8-.2 3.1-1.5 4.8-1.5 1.2-.1 2.3.1 3.4.5 2.3 1.1 2.4 3.3 2.6 5.3zm-1.2.6c.1-.5.1-1 0-1.4-.1-.6-.4-1.2-.6-1.8-.4-1.2-2.4-2.5-3.6-2.1-1.6.5-3.1 1.2-4.6 2-1.5.7-2.1 2.5-1.4 4 0 .1.1.1.1.2 1.4 3.2 3.9 4.2 7.1 3.1 2.4-.8 3-1.6 3-4zm-1-25.2c2 2 2.5 4.9 1.2 7.4-1.5 2.8-6 5-8.8 4-2.3-.9-4.3-2.4-5.6-4.4-.5-.7-.4-1.9-.6-2.8-.1-2.2.8-4.3 2.3-5.8 1-1 2.4-1.6 3.9-1.4 2.8 0 5.5 1.1 7.6 3zm-4.9 10.6c3.2-.6 6-2.1 5.7-5.6.1-1.6-.5-3.2-1.7-4.4-2.2-2.2-5.1-2.7-8-2.6-.7.1-1.4.4-1.9 1-2.2 2.3-2.4 5.9-.5 8.5.8.7 1.6 1.4 2.5 2 1 1 2.5 1.4 3.9 1.1z"
	/>
	<path d="M22.5 120.3c.1.5.1 1 0 1.4 0 2.4-.6 3.2-3 4-3.2 1.1-5.7.1-7.1-3.1-.8-1.4-.3-3.3 1.1-4.1.1 0 .1-.1.2-.1 1.5-.8 3-1.5 4.6-2 1.2-.4 3.2.8 3.6 2.1.2.6.5 1.2.6 1.8zm-.2-18.8c.3 3.5-2.5 5-5.7 5.6-1.4.3-2.8-.1-3.9-1.1-.9-.6-1.7-1.3-2.5-2-2-2.6-1.8-6.2.5-8.5.5-.6 1.2-.9 1.9-1 2.9 0 5.8.4 8 2.6 1.2 1.2 1.8 2.8 1.7 4.4z"
	    class="st1" />
	<path d="M22.1 70.3c0 .3-.5.7-.8 1.1L20 70l1.4-1c.3.4.7.8.7 1.3zm.1-6.2l-1.5 1.3c-.4-.4-.7-.9-1-1.4 0-.1.6-.8.9-.8s.9.4 1.6.9zm-4.1-12.7c0 1.1-.8 2.2-1.5 2-.6-.3-1-.8-1.2-1.4-.2-1.1.8-1.3 1.6-1.4.5 0 .9.6 1.1.8zm-.2 6.6c.3 0 .6.3 1.2.6-.4.3-.9.5-1.3.7-.2 0-.5-.4-.7-.6.3-.3.5-.7.8-.7zm-4.4 1c.4 0 .8.8 1.2 1.2 0 .8-.6 1.5-1.4 1.6H13c-.3 0-.8-.6-.8-.8.3-.8.1-2 1.3-2zm-.6-5.7c.2.3.7.6.7.9s-.4.6-.7.9c-.4-.3-.7-.7-.9-1.1-.1-.2.3-.7.4-1l.5.3zm-.3-3.8c.1-.1.4.2.9.4-.3.2-.7.4-1.1.6-.1 0-.3-.2-.5-.4.2-.2.5-.4.7-.6zm-4.2 4.7c.2-.1.8.7 1.4 1.3-.6.6-1 1.2-1.5 1.3-.5.1-1.1-.2-1.2-.7v-.5c.3-.7.7-1.2 1.3-1.4z"
	/>
	<path d="M49 52.8c-.2 4.2-2.2 6.6-6.5 7-3.2.4-6.4-1.1-8.2-3.9-.8-1.2-1.1-2.7-.6-4.1.7-2.1 1.5-4.3 4-4.7 3.3-.5 6.7-.6 9.5 1.8 1.2 1 1.8 2.4 1.8 3.9z"
	    class="st10" />
	<path d="M33.2 171.6c-.1.3-.2.6-.4.9 0 .2-.1.3-.2.4-.6.8-1.2.9-2.2.3-1.2-.7-2.5-1.3-3.6-2.1-1.7-1.1-3.3-2.4-5-3.6-1.7-1.2-3.4-2.5-4.9-4-.9-1.1-1.7-2.4-2.1-3.7-1-2.3-.9-2.4 1.5-3.3.5-.3 1-.4 1.6-.4.8.1 1.6.5.9 2v3.2c0 1 .8 1.7 1.7 1.7.2 0 .4 0 .5-.1.7-.1 1.4-.1 2.1-.2s1 .4.9 1c-.1.6-.1 1.3-.1 1.9 0 .9.7 1.6 1.6 1.6.8.1 1.6 0 2.3-.2 1.6-.5 2.7 0 2.6 2 0 .8-.3 1.6.4 2.3.4.5.8.7 1.4.4.4 0 .7-.1 1-.1z"
	    class="st11" />
	<path d="M56.8 145.6c.2 1 .3 2 .4 2.7-.1 2-.7 3.9-1.7 5.6-1 1.9-2.1 3.7-3.2 5.6-.8 1.4-1.7 2.6-2.6 4l-3.8 5.6c-1.2 1.7-2.4 3.3-3.6 5s-2.3 3.2-3.5 4.6c-1.3 1.4-2.6 2.7-4 3.9-.7.6-1.4.3-2.1-.2-.6-.4-1.3-.7-2-.8-1.2-.4-2.5-.5-3.8-.9-2.5-.8-5-1.7-7.4-2.7-1.3-.6-2.5-1.3-3.7-2.1-1.3-1-2.6-2.1-3.7-3.2-.9-.9-1.2-2.2-.9-3.4v-.6c-.3-2.1.3-4 .7-6 .3-1.3.5-2.6.7-3.9.1-1.3 1.1-2.3 2.3-2.5 2.4-.7 4.4-2.1 6.6-3.2.8-.4 1.8-.6 2.6-1.1 1.8-.9 3.6-1.9 5.4-2.9 4.2-2.3 8.5-4.2 13.1-5.6 3.3-1.2 6.7-2.3 10-3.7 2-.8 3.1 0 3.2 2.1.2 1 .5 2.4 1 3.7zm-.8 3.3c-.3-1.5-.7-2.9-1-4.2 0-.2-.2-.3-.3-.4l-.2.4c-.9 1.3-1.7 2.7-2.6 4-2.8 4.1-5.6 8.2-8.5 12.2-1.4 2-2.8 3.9-4.3 5.8l-6 7.5c-.3.5-.3 1.1-.2 1.6.5 1.6 1.5 3 .9 4.8v.9c.4 0 .8-.1 1.2-.2.2-.1.4-.3.6-.6 1.1-1.3 2.2-2.7 3.3-4 1.4-1.8 2.9-3.6 4.2-5.5s2.6-3.9 3.9-5.9c2.6-4 5.2-8 7.7-12.1.6-1.6 1-2.9 1.3-4.3zm-2.1-7.2c.1-.4.3-.9.2-1.1-.3-.3-.7-.3-1.1-.2-1.9.7-3.7 1.4-5.6 2.2-.1 0-.2.2-.3.3.1.1.3.1.4.2 1.4.3 2 .9 1.9 2.1-.3.6-.1.7.5.7.4-.1.8 0 1.1.2.8.5 1.2.2 1.4-.5.1-.3.3-.5.4-.7.5-1.1.8-2.1 1.1-3.2zm-3.7 7.3c.7-1.3.4-1.9-1.1-1.9-1 0-1.1-.4-1.1-1.2s0-1.6-1-1.7c-1.3-.1-2.7-.9-4.1-.1l-.6.3c.2.1.3.3.5.4.6.4 1.5.7 1.8 1.2.3.7.4 1.5.2 2.2-.1.7.1 1.2.8 1.1 1.1-.3 2.4-.1 3.3.6.1.1.2.1.4.2.4-.3.7-.7.9-1.1zm-2.7 4c.8-1.7.2-2.6-1.6-2.6h-.5c-1.9-.1-2.5-.8-1.7-2.5.3-.5.2-1.1-.2-1.4l-.1-.1c-1-.7-2-1.4-3.3-1.1-.9.2-1.7.6-2.5.9-.2.1-.5.2-.7.4.2.1.4.2.7.3.6.2 1.2.3 1.8.5 1.7.6 1.9 1.1 1.5 2.8s-.2 1.9 1.6 1.7h.7c1.5-.1 2.3.2 2.7 1.1.2.6.4 1.1.6 1.7.2-.6.6-1.1 1-1.7-.1.1 0 0 0 0zm-3 2.5c.2-1.9-.2-2.5-2.2-2.5H42v.1l-2-.3c-.9-.2-1.2-.7-.8-1.5l.3-.9c.5-1.4.3-1.5-1-2.1-.3-.1-.5-.2-.8-.2-1.2-.2-2.4-.3-3.5-.3-.5 0-1.1.5-1.6.8l1.6.7c1.4.6 1.9 1.4 1.6 2.7-.2.5-.3 1.1-.3 1.6 0 .3.3.9.6.9 1.2.2 2.5.4 3.7.4.9-.1 1.8.5 2.2 1.4.3 1 .6 1.9.8 2.9 0 .2.1.3.1.5l.3-.4c.8-1 1.3-2.4 1.3-3.8zm-4.3 7.6c1.3-2 1.2-4.6-.1-6.5-.2-.3-.4-.5-.7-.6l-3.9-.6c-.8-.1-1.5-.2-1.4-1.3l.3-2.2c.2-.6-.1-1.3-.7-1.5-.1 0-.2-.1-.3-.1-1-.1-1.9-.1-2.9-.1-.4 0-.8.2-1.2.3-.2.1-.3.3-.5.4.2.1.4.1.6.2 2 .2 3 1.2 3.2 3.3.2 2 1 3 3.2 3s3.3 1.2 3.2 3.8c.1.4.2 1.1.3 1.8s.6.6.9.1zm-1.2 1.6v-.4c-1.2-.1-1-1.2-1.2-1.9-.1-.5-.1-1 0-1.6.2-1.2-1-2.3-2.7-2.3-1.9 0-3.6-1-3.6-3.1 0-2.6-1.7-3.8-4.3-3-.3.1-.6 0-.9-.1-.1-.7-.5-.4-.8-.2s-.9.4-1.3.6l-.4.2c.1.1.3.2.4.3 2.1.7 2.1.7 2.2 2.8v1.4c.1 1.5 1.4 2.7 2.9 2.7.2 0 .3 0 .5-.1 1.1-.3 2.2.3 2.6 1.4.1.2.1.5.1.7-.1 2.5.5 2.3 2.5 2.1.2 0 .3-.1.5-.1.8.1 1.5.5 1.6 1.4v1.4l.9-1.1c.4-.4.7-.7 1-1.1zm-3.3 2.4c.6-1.5.3-1.8-1.2-1.9-.2 0-.5.1-.7.1-1.1.2-2.1-.4-2.4-1.5 0-.2-.1-.4 0-.6 0-2-.3-2.3-2.3-2.1-1.4.3-2.9-.6-3.3-2-.3-1.2-.3-2.4-.5-3.6-.1-.4-.3-1-.6-1.1-.7-.2-1.4-.3-2.1-.3h-.5c-.1-.9-.5-.4-.9-.2s-.9.4-1.4.7-.7.3-.1.8c.4.4.6 1 .6 1.6-.1.8-.2 1.6-.4 2.4-.3 1.6.4 2.3 1.9 2.1h1c2.2-.2 2.8.3 2.6 2.4v.8c-.2.8.1 1.4 1 1.3.7 0 1.5-.1 2.2-.2 2.1-.4 3.2.4 3.2 2.6-.1.4-.1.7 0 1.1.2.5.4 1.1.8 1.3.6.1 1.1 0 1.6-.3.5-.5.9-1 1.2-1.5v-1.3l.3-.6zm-2.8 5.4c.1-.3.2-.6.4-.9-.3 0-.6 0-.9.1-.6.3-1 .1-1.4-.4-.7-.8-.4-1.6-.4-2.3 0-1.9-1.1-2.5-2.6-2-.8.2-1.5.3-2.3.2-.9 0-1.6-.6-1.7-1.5 0-.6.1-1.3.1-1.9 0-.6-.1-1.1-.9-1s-1.4.1-2.1.2c-.9.3-1.9-.3-2.1-1.2 0-.2-.1-.3-.1-.5-.1-1.2 0-2.4 0-3.2.7-1.5-.2-1.8-.9-2-.6 0-1.1.2-1.6.4-2.4.9-2.5 1-1.5 3.3.5 1.3 1.2 2.6 2.1 3.7 1.5 1.5 3.2 2.8 4.9 4 1.6 1.2 3.3 2.5 5 3.6 1.2.8 2.4 1.4 3.6 2.1.9.6 1.6.5 2.2-.3.1-.1.1-.3.2-.4zm-1 7.7c.3.1.7-.3 1-.5-.5-1.6-1-2.9-1.4-4.2 0-.1-.3-.2-.5-.3-2.1-1.2-4.3-2.3-6.4-3.7s-4.1-2.9-6-4.5c-1.1-.9-2.2-1.9-3.1-3.1-.6-.9-1.1-1.8-1.4-2.8-.1-.1-.2-.3-.3-.4-.1.1-.2.1-.2.2-.4 1.9-.8 3.7-1 5.6-.2 2.4-.3 4.8 2.3 6.5s5 3.6 7.9 4.6 6.1 1.8 9.1 2.6z"
	/>
	<path d="M55 144.6c.3 1.4.6 2.7 1 4.2-.3 1.4-.8 2.7-1.4 4-2.5 4.1-5.1 8.1-7.6 12.2-1.3 2-2.5 3.9-3.9 5.8s-2.8 3.7-4.2 5.5c-1.1 1.4-2.2 2.7-3.3 4-.1.2-.3.5-.6.6-.4.1-.7.2-1.1.2v-.9c.6-1.8-.4-3.2-.9-4.8-.2-.5-.1-1.1.2-1.6 1.9-2.5 4-5 6-7.5 1.5-1.9 2.9-3.8 4.3-5.8 2.9-4 5.7-8.1 8.5-12.2.9-1.3 1.7-2.7 2.6-4l.2-.4c0 .4.2.6.2.7zm-.9-4c.2.2-.1.7-.2 1.1-.3 1.1-.7 2.1-1 3.2-.1.3-.3.5-.4.7-.3.7-.7 1-1.4.5-.3-.2-.7-.2-1.1-.2-.6 0-.8-.1-.5-.7.1-1.3-.4-1.9-1.9-2.1-.1 0-.3-.1-.4-.2.1-.1.2-.3.3-.3 1.8-.8 3.7-1.5 5.6-2.2.3-.1.7 0 1 .2z"
	    class="st12" />
	<path d="M49.1 147c1.5 0 1.8.6 1.1 1.9-.2.4-.5.8-.8 1.3-.2-.1-.3-.1-.4-.2-.9-.7-2.1-.9-3.2-.7-.6.1-.8-.4-.8-1.1.1-.8.1-1.5-.2-2.2-.3-.6-1.2-.8-1.8-1.2-.2-.1-.3-.3-.5-.4l.6-.3c1.4-.8 2.7-.1 4.1.1 1 .1 1 1 1 1.7s0 1.2.9 1.1z"
	    class="st11" />
	<path d="M45.9 150.4c1.8 0 2.4 1 1.6 2.6l-.1.1c-.4.5-.7 1-1.1 1.5-.2-.6-.4-1.1-.6-1.7-.3-.9-1.2-1.2-2.7-1.1h-.7c-1.8.2-2 0-1.6-1.7s.3-2.2-1.5-2.8c-.6-.2-1.2-.3-1.8-.5-.2-.1-.5-.2-.7-.3.2-.1.5-.3.7-.4.8-.4 1.6-.7 2.5-.9 1.3-.3 2.3.4 3.3 1.1.5.2.7.8.5 1.3 0 0 0 .1-.1.1-.8 1.7-.2 2.5 1.7 2.5l.6.2z"
	    class="st12" />
	<path d="M42.4 153c2 0 2.4.6 2.2 2.5-.1 1.4-.6 2.7-1.5 3.8l-.3.4c0-.2 0-.3-.1-.5-.2-1-.5-2-.8-2.9-.3-.9-1.2-1.4-2.2-1.4-1.2-.1-2.5-.2-3.7-.4-.2-.1-.5-.6-.6-.9l.3-1.6c.3-1.4-.2-2.1-1.6-2.7l-1.6-.7c.5-.3 1.1-.8 1.6-.8 1.2 0 2.4.1 3.5.3.3 0 .5.1.8.2 1.3.6 1.5.6 1 2.1l-.3.9c-.4.9-.1 1.4.8 1.5l2 .3v-.1h.5z"
	    class="st11" />
	<path d="M40.2 156.6c1.3 2 1.3 4.5.1 6.5-.4.5-.7.6-.8-.1s-.3-1.4-.3-1.8c.1-2.6-.9-3.8-3.2-3.8s-3-1-3.2-3c-.2-2.1-1.2-3.1-3.2-3.3-.2 0-.4-.1-.6-.2.1-.1.3-.4.5-.4.4-.2.8-.3 1.2-.3 1 0 1.9 0 2.9.1.6.1 1.1.6 1.1 1.3 0 .1 0 .2-.1.3-.2.7-.2 1.5-.3 2.2-.2 1.1.6 1.2 1.4 1.3l3.9.6c.2.1.4.3.6.6z"
	    class="st12" />
	<path d="M39 164.3v.4c-.2.4-.5.7-.8 1l-.9 1.1v-1.4c-.1-.9-.8-1.3-1.6-1.4-.1 0-.3.1-.5.1-2 .2-2.5.4-2.5-2.1.1-1.1-.8-2.1-1.9-2.2-.3 0-.6 0-.8.1-1.5.4-3-.5-3.4-2 0-.2-.1-.4-.1-.6v-1.4c-.1-2.1-.1-2.1-2.2-2.8-.2-.1-.3-.2-.4-.3l.4-.2c.4-.2.9-.4 1.3-.6s.6-.4.8.2c.3.1.6.2.9.1 2.6-.8 4.3.3 4.3 3 0 2.1 1.7 3.1 3.6 3.1 1.7 0 2.8 1.1 2.7 2.3-.1.5-.1 1 0 1.6 0 .8-.1 1.8 1.1 2z"
	    class="st11" />
	<path d="M34.4 165.3c1.5 0 1.8.4 1.2 1.9-.1.2-.1.4-.2.5v1.3c-.4.6-.8 1.1-1.3 1.5-.5.3-1.1.4-1.6.3-.4-.1-.6-.8-.8-1.3-.1-.4-.1-.7 0-1.1 0-2.1-1.1-3-3.2-2.6-.7.1-1.5.2-2.2.2-.9 0-1.2-.5-1-1.3v-.8c.2-2.2-.4-2.6-2.6-2.4h-1c-1.5.2-2.2-.5-1.9-2.1.2-.8.3-1.6.4-2.4 0-.6-.2-1.2-.6-1.6-.6-.5-.2-.6.1-.8s.9-.4 1.4-.7.7-.7.9.2h.5c.7 0 1.4.1 2.1.3.3.1.5.7.6 1.1.2 1.2.2 2.4.5 3.6.4 1.4 1.8 2.3 3.3 2 2-.2 2.3 0 2.3 2.1-.1 1.1.7 2.1 1.8 2.1h.6c.3.1.5 0 .7 0zM33 179.7c-.4.2-.8.6-1 .5-3-.7-6.1-1.4-9.1-2.4s-5.4-2.9-7.9-4.6-2.5-4.1-2.3-6.5c.2-1.9.6-3.8 1-5.6 0-.1.1-.1.2-.2.1.1.2.2.3.4.4 1 .8 1.9 1.3 2.8.9 1.1 2 2.2 3.1 3.1 2 1.6 4 3.1 6.1 4.5s4.3 2.5 6.4 3.7c.2.1.4.1.5.3.4 1.1.8 2.4 1.4 4z"
	    class="st12" />
</svg>
