<svg id="Warstwa_1" data-name="Warstwa 1" xmlns="http://www.w3.org/2000/svg" viewBox="0 0 198.43 198.43"><defs><style>.cls-1{fill:#39a348;}.cls-2{fill:#db5252;}.cls-3{fill:#933a28;}.cls-4{fill:#8f3c29;}.cls-5{fill:#60a05b;}.cls-6{fill:#b01e32;}.cls-7{fill:#61bb48;}.cls-8{fill:#629e5d;}.cls-9{fill:#9d3466;}.cls-10{fill:#010101;}.cls-11{fill:none;stroke:#010101;stroke-miterlimit:10;}.cls-12{fill:#f6891f;}.cls-13{fill:#fff;}</style></defs><title>Obszar roboczy 1</title><path d="M51.83,109.95c-.62,1.88-1.22,3.78-1.87,5.65-.76,2.2-1.5,4.41-2.41,6.55a1.92,1.92,0,0,1-1.68.79,2,2,0,0,1-1-1.46c-.25-2.58-.36-5.17-.49-7.76-.19-3.72-.34-7.44-.51-11.16-.05-1.18-.13-2.36-.19-3.52,1.78-.55,2.12-.38,2.27,1.6.21,2.77.27,5.55.42,8.33.11,2.06.28,4.11.39,6.17a13.17,13.17,0,0,0,.24,2.7c.7-1.95,1.42-3.89,2.09-5.85.84-2.45,1.64-4.93,2.49-7.38.25-.71,2-.78,2.31-.07a5.38,5.38,0,0,1,.42,1.81q.47,4.4.88,8.81a23.62,23.62,0,0,0,.49,3.77c.66-2.48,1.17-5,2-7.43,1.15-3.25,2.6-6.39,3.86-9.61.27-.69.14-1.57,1.3-1.33.78.17,1.14.56.83,1.36-.43,1.12-.92,2.21-1.32,3.34-1.21,3.46-2.43,6.91-3.56,10.39-.57,1.76-.95,3.59-1.46,5.38a11.68,11.68,0,0,1-1,2.48c-.21.38-.91.85-1.17.74-.53-.21-1.22-.74-1.31-1.23-.57-3.13-1-6.28-1.44-9.43-.16-1.17-.17-2.36-.24-3.54Z"/><path d="M128.33,94.35c.89-2.1,1.7-3.94,2.44-5.81.57-1.46,1-3,1.56-4.44.3-.84.69-1.66.91-2.52.44-1.77,2.44-2.93,3.57-1.86a3.84,3.84,0,0,1,1.09,2.49c0,2.39-.31,4.78-.35,7.18,0,1.77.23,3.54.29,5.32.07,2,.13,3.92.07,5.88,0,.44-.55.87-.83,1.29-1.8-.92-1.63-2.54-1.69-4-.11-2.62-.23-5.25-.23-7.87,0-2.17.17-4.35,0-6.58-.81,2.26-1.58,4.53-2.43,6.77-.56,1.46-1.26,2.86-1.87,4.3a26.18,26.18,0,0,1-1.14,2.74c-.32.56-.92,1.32-1.43,1.35-1.09.06-1.66-1-1.9-1.87-.5-1.85-.86-3.74-1.2-5.62-.4-2.21-.72-4.43-1.07-6.64l-.43,0c-.19,1.55-.45,3.09-.56,4.65-.23,3.21-.36,6.42-.6,9.62,0,.38-.46,1-.74,1a5.22,5.22,0,0,1-1.64-.36c.11-1.16.2-2,.27-2.85.31-3.62.6-7.23.94-10.85a16.79,16.79,0,0,1,.53-3.24c.19-.65.74-1.65,1.17-1.67a3,3,0,0,1,2.22,1,7.92,7.92,0,0,1,1,2.83c.33,1.28.55,2.59.82,3.88Z"/><path d="M55.24,77.62c.61-1.67,1.22-3.31,1.82-5a.56.56,0,0,0,0-.35c-.28-.69-.36-1.26.67-1.2s1.69.59,1.42,1.58a32,32,0,0,1-1.75,5.23,4.69,4.69,0,0,0-.23,3.62,14.27,14.27,0,0,1-1.72,12.2c-1.35,2.14-3.48,2.13-5.64,1.89-2.53-.29-4.09-1.86-5.22-4a13.46,13.46,0,0,1-1.49-8.18,13.16,13.16,0,0,1,.55-2,9.42,9.42,0,0,0,.56-1.74c.21-2.18,1.14-3.39,3.29-3.87A8.27,8.27,0,0,1,55.24,77.62ZM55,81.77a9.29,9.29,0,0,1-9.13.7,3.3,3.3,0,0,0-.36.9,14.17,14.17,0,0,0,1,6.63c.85,2,2,3.42,4.38,3.32,1.77-.07,2.66-.24,3.33-1.94a22.38,22.38,0,0,0,1.41-5.74A14.56,14.56,0,0,0,55,81.77Zm-8.08-1.43a5.82,5.82,0,0,0,6.2-.14c.89-.67.89-1.15-.08-1.63A8.18,8.18,0,0,0,51,77.8a2.27,2.27,0,0,0-2.48.57C48,79,47.49,79.66,46.95,80.33Z"/><path d="M98.8,90.79c1.76.05,3.7-.44,5.54,1.17a10.49,10.49,0,0,1-2.45,1.22,12.91,12.91,0,0,1-3-.09l1.15,6.21c-2.29.75-2.42.66-2.76-1.51-.21-1.31-.48-2.62-.65-3.94-.08-.62-.12-.9-.94-.88-1.62,0-3.25-.2-4.87-.23a1.19,1.19,0,0,0-.89.63c-.47,1.14-.81,2.34-1.25,3.5-.24.65-.72,1.14-1.44.75-.5-.27-1.24-.53-.88-1.43.89-2.25,1.72-4.51,2.63-6.75,1-2.4,2-4.78,3-7.18.52-1.27,1-2.58,1.45-3.86.34-.88.76-1.73,1.94-1.57s1.17,1,1.44,1.84c1,3.43,1.19,7,1.58,10.5A16.39,16.39,0,0,0,98.8,90.79Zm-3.75-9.5h-.43c-.44,1.28-.86,2.57-1.33,3.84-.56,1.5-1.18,3-1.72,4.47a1.39,1.39,0,0,0,.18.95c1.51.06,3,0,4.65,0Z"/><path d="M152.07,95.54c.14,2,.36,3.86.35,5.73a2.42,2.42,0,0,1-1,1.88c-.78.35-1.53-.68-1.53-1.88,0-1.86,0-3.72,0-5.87l-5.68-.51c-.61,1.59-1.19,3.09-1.77,4.59-.25.64-.67,1.19-1.39.86a1.16,1.16,0,0,1-.57-1.67c.83-2.24,1.51-4.53,2.29-6.79,1-2.76,1.94-5.52,2.92-8.27.26-.73.59-1.44.88-2.16a2.1,2.1,0,0,1,3.71-.32,4.69,4.69,0,0,1,.7,1.94c.36,3.27.62,6.55,1,9.83,0,.21.44.5.71.54,1.28.2,2.59.23,3.84.51.75.17.58.82.16,1.28-.91,1-2.11.71-3.23.66A7,7,0,0,1,152.07,95.54Zm-3.36-12.4-.31,0L145,92.67l4.66.35Z"/><path d="M72.26,90.4a17.25,17.25,0,0,1,2.54-8.63,10.24,10.24,0,0,1,4.53-4.27,8.2,8.2,0,0,1,6.5.1,1.4,1.4,0,0,1,.61,1.19c-.12.64-.65.65-1.3.48-2.58-.67-5.07-.48-6.94,1.65a12.85,12.85,0,0,0-3.43,7.4,8.45,8.45,0,0,0,3,7.64,3.06,3.06,0,0,0,3.71.45c.6-.37.87-1.47,1.05-2.29.29-1.34.32-2.73.57-4.07.22-1.14-.39-1.46-1.28-1.53a13.57,13.57,0,0,1-2,0A6.48,6.48,0,0,1,78,87.56a.66.66,0,0,1-.12-.61c.32-.3.74-.75,1.08-.72a43,43,0,0,1,5.44.87c1.28.31,1.26,1.6,1.14,2.6-.29,2.31-.69,4.6-1.14,6.88a3.21,3.21,0,0,1-3.8,2.55C78.95,99,77.35,98.8,76,97.54a8.65,8.65,0,0,1-3-4.43C72.81,92,72.43,91,72.26,90.4Z"/><path d="M138.7,107.05c-.67,2.91-3.08,2.8-4.54,3.71,1.08,2.83,2.12,5.65,3.24,8.43.46,1.16,1.17,2.22,1.59,3.38a2.79,2.79,0,0,1-.1,1.83c-.34.84-1.13,1-1.66.25a15.77,15.77,0,0,1-1.82-3.39c-.89-2.37-1.61-4.81-2.41-7.22a4.54,4.54,0,0,0-.52-1c-.84-1.28-.91-1.29-2.19-.5a9.06,9.06,0,0,1-1.76,1.07c-1.36.44-1.44,1.33-1.32,2.58.21,2.23.18,4.49.28,6.74a1.19,1.19,0,0,1-1.34,1.35,2.26,2.26,0,0,1-1.3-1.64c-.17-2.24-.1-4.5-.12-6.75a.42.42,0,0,0,0-.12c-.25-.79-.89-2.16-.7-2.29.94-.63.69-1.58.8-2.33a29.71,29.71,0,0,0,.09-4,18.07,18.07,0,0,1,.13-2.76,1.29,1.29,0,0,1,1-.74c.6,0,1.3.05,1.25,1-.1,1.82-.17,3.64-.24,5.45,0,.48,0,1,0,1.41,1.44-.69,2.87-1.36,4.28-2s2.86-1.57,4.36-2.14A11.94,11.94,0,0,1,138.7,107.05Z"/><path d="M110.6,107.14c0,1.68.08,3.21,0,4.72-.07.92.29,1.1,1.05,1.09,1.54,0,3.08,0,4.61,0,.62,0,1.17.17,1,.94s-.11,1.48-1.18,1.42c-1.76-.11-3.52-.16-5.4-.25-.18,1.88-.39,3.72-.47,5.57,0,.26.64.8,1,.79,1.51,0,3-.19,4.52-.3.18,0,.37.09.56.09.84,0,1.57.37,1.43,1.28s-1,1.08-1.92,1.1c-1.49,0-3,.2-4.48.2-2.68,0-3.81-.24-3.42-3.51.34-2.88.3-5.8.4-8.7.07-2,0-3.94.2-5.9,0-.32.71-.79,1.13-.83,1.84-.19,3.68-.29,5.53-.35a23,23,0,0,1,3.78.12c.48.06.88.66,1.32,1-.44.48-.48,1.32-1.47,1.29-2.06-.06-4.12,0-6.18,0C112,107,111.35,107.07,110.6,107.14Z"/><path d="M89.66,120c0,1.5.09,3,0,4.44,0,.52-.65,1-1,1.49-.42-.34-1.13-.62-1.2-1a18,18,0,0,1-.26-3.69c0-2.25.21-4.49.32-6.74.05-1.09.13-2.18.09-3.26a25.36,25.36,0,0,0-.37-3.15c-.16-1,.33-1.64,1.14-1.62,1.91,0,3.82-.14,5.67.88s2.15,2.8,2.44,4.43c.43,2.36.31,4.78-1.71,6.63A5.86,5.86,0,0,1,89.66,120Zm0-11.49a21.17,21.17,0,0,1,.24,2.42c0,2-.15,4.09-.19,6.14a1.82,1.82,0,0,0,.28.81c1-.24,2.14-.28,2.84-.88,1.6-1.36,1.58-3.35,1.16-5.22-.32-1.42-.82-2.89-2.61-3.15C90.84,108.51,90.32,108.51,89.63,108.46Z"/><path d="M70.65,127.71c-1.18-.78-1.35-1.57-1-3.06A16.56,16.56,0,0,0,70,122.1c.24-2.33.54-4.65.71-7a4,4,0,0,0-.39-2.56,44.45,44.45,0,0,1-2-4.49c-.51-1.13-1.13-2.22-1.63-3.35-.15-.34-.23-1-.07-1.13s1-.36,1.23-.16a7.06,7.06,0,0,1,1.79,2.07c.85,1.72,1.48,3.56,2.29,5.31a1.19,1.19,0,0,0,1.14.27,10.82,10.82,0,0,0,1.9-1.56c1.64-1.58,3.2-3.24,4.91-4.74a2,2,0,0,1,1.79,0c.7.36.33,1-.1,1.47-1,.95-2,1.82-3,2.76-.4.39-.67.91-1,1.34q-1.12,1.25-2.29,2.45a1.86,1.86,0,0,1-.84.59c-1.11.21-1.4,1.07-1.49,1.95-.28,2.83-.46,5.67-.71,8.51a12.09,12.09,0,0,1-.44,2.69C71.59,127,71,127.31,70.65,127.71Z"/><path d="M70.83,93.82c-.58,1.83-1.3,2.05-3.05,1.69-1.46-.3-3-.14-4.52-.32a4.21,4.21,0,0,1-3.41-1.68,1.77,1.77,0,0,1-.28-1.07c.35-2.67.77-5.33,1.14-8s.66-5.15,1-7.72c.12-1,.87-1,1.5-.79s1.11.59.64,1.41a2.89,2.89,0,0,0-.29,1.1q-.6,5.48-1.17,11c-.09.89-.21,1.79-.25,2.69,0,.25.22.7.39.73a23.39,23.39,0,0,0,3,.29A15.56,15.56,0,0,1,70.83,93.82Z"/><path d="M148,106.33c2.08.31,2.12.31,2.09,2.12,0,2.57-.12,5.13-.25,7.7-.09,1.78-.33,3.56-.44,5.34,0,.48.32,1,.24,1.45a4.89,4.89,0,0,1-.75,1.89,1.19,1.19,0,0,1-1.15.23,2.47,2.47,0,0,1-.92-1.53c.08-2.26.36-4.52.52-6.78.18-2.59.29-5.19.44-7.78C147.82,108.13,147.91,107.28,148,106.33Z"/><path d="M102.84,116.56c0,1.52-.06,4,0,6.47a3.81,3.81,0,0,1-.27,2.18c-.33.6-.77.72-1.22.42s-1-.81-1-1.22c0-2.12.31-4.24.27-6.35-.05-2.48-.37-4.95-.55-7.42a20.71,20.71,0,0,1-.11-3.13c0-.32.76-.9.94-.83.52.22,1.27.69,1.32,1.12C102.51,110.39,102.61,113,102.84,116.56Z"/><path d="M197.32,82.32a21,21,0,0,1-1.25,8.16c-.83,2.15-2.57,3-4.87,2.76-3.29-.34-6.59-.56-9.89-.75-3.49-.21-7-.23-10.47-.52a43.74,43.74,0,0,1-7.91-1.21,46.92,46.92,0,0,1-7-2.94c-1.52-.69-1.39-2.14-1.45-3.54a22.53,22.53,0,0,1,.67-3.79A4.87,4.87,0,0,1,156.85,78c2.61-1.6,5.38-3,8.06-4.43,2.09-1.16,4.13-2.4,6.21-3.57,2.41-1.36,4.84-2.68,7.26-4a10.55,10.55,0,0,0,1.89-1.26c.21-.19.15-.72.14-1.1A13.91,13.91,0,0,1,180.3,61c.18-1.14.89-1.39,1.86-.76.54.35.55.15.75-.33.65-1.53,1.37-3,2.13-4.49a1.26,1.26,0,0,1,1.66-.77c.8.31.77,1,.63,1.69-.23,1.24-.36,2.5-.61,3.74-.15.75.15.74.69.54.81-.29,1.62-.56,2.43-.84s1.8-.48,2.3.64c.86,1.92,1.77,3.83,2.5,5.8a25.36,25.36,0,0,1,2,8.94C196.58,77.55,197.26,79.93,197.32,82.32Zm-1.17.49c.06-2.22,0-2.09-2.2-1.84-2.57.3-5.18.4-7.77.5-4.31.16-8.63.36-12.93.36s-8.35-.24-12.53-.39a22.71,22.71,0,0,1-2.48-.18c-2.3-.33-2.32-.35-2.39,2a1.06,1.06,0,0,0,.62.81c1.11.23,2.29.23,3.39.5a42.78,42.78,0,0,0,13,1.43c1.73-.1,3.47.11,5.2.09s3.35-.17,5-.26c0,.07,0,.14,0,.21,2.38-.22,4.78-.33,7.14-.71a33.54,33.54,0,0,0,5.19-1.43A1.43,1.43,0,0,0,196.15,82.81Zm-.65,5.69c.11-.74-.18-.63-.62-.45a22.42,22.42,0,0,1-8.3,1.44,82.14,82.14,0,0,0-9.28.52,53.73,53.73,0,0,1-6.09.21l-1.22,0a5.4,5.4,0,0,0,1.18.42c2.19.18,4.39.32,6.59.47,1,.07,2,.17,3.06.19,1.63,0,3.26-.07,4.89,0,2,.09,4,.29,6.06.45C194.47,91.83,195.11,91.27,195.51,88.5Zm-.51-10c0-1,.25-2.1.4-3.27a32.34,32.34,0,0,0-.56-3.64c-.6-2.28-1.27-4.55-2-6.78a20.14,20.14,0,0,0-1.67-3.5c-.18-.32-.77-.45-1.19-.56-.13,0-.43.3-.52.52-.35.94-.69,1.89-1,2.85-.08.28,0,.86.15.9a1.42,1.42,0,0,1,.87,2.28c-.92,1.62-2.09,3.11-3.14,4.66a11.74,11.74,0,0,0-1,1.66c-.86,2-1.45,4.13-3.86,5-.63.23-1,1.21-1.48,1.84l1.71.15a3.71,3.71,0,0,0,.94,0c.11,0,.19-.27.23-.43.08-.31.13-.62.2-.93.33.11,1,.2,1,.33.06,1,.8.85,1.37.83s1.32-.18,2-.24c.47,0,1,.19,1-.66,0-.17.52-.41.82-.45s.53.45.48.56c-.33.77.18.54.56.52a23.72,23.72,0,0,0,2.8-.14C193.93,79.85,195,79.88,195,78.53Zm-1.78,9c.6.19,1.57-.76,1.49-1.4,0-.3-.37-.83-.47-.81-.66.17-1.6,0-1.52,1.53C192.77,87,192.93,87.48,193.22,87.57Zm-1.59-.19c0-.42-.42-.88-.79-1.59-.65.93-1.89.06-1.87,1.32,0,.44.58,1.29.76,1.25C190.42,88.23,191.56,88.59,191.63,87.38ZM187.87,62.9a3.21,3.21,0,0,0,.14-.76,2.24,2.24,0,0,0-.75.11c-.34.19-.62.5-.94.71s-.52.21-.63.12a.88.88,0,0,1-.28-.67c.2-1.91.44-3.82.66-5.73a5,5,0,0,0,0-.77,3.46,3.46,0,0,0-.58.5,2.35,2.35,0,0,0-.3.64c-.49,1.37-.93,2.75-1.46,4.1-.24.61-.44,1.49-1.47,1-.28-.16-.55-.34-.83-.51a5,5,0,0,0,0,1.16c.32,1.11.74,2.18,1,3.28a1,1,0,0,1-.23.89c-.18.15-.61.06-.89,0s-.39-.28-.59-.4a3,3,0,0,0-.53-.18,1.61,1.61,0,0,0,.06.55c.81,1.49,1.54,3,2.47,4.43a1.41,1.41,0,0,0,2.19.28,24.7,24.7,0,0,0,2.6-2.88,12.6,12.6,0,0,0,1.05-1.85c-.35-.28-.61-.65-.89-.67-.83-.08-1.06-.48-.8-1.19S187.57,63.61,187.87,62.9Zm-1.7,25.62c.75-.37,1.73.25,1.6-1a2.25,2.25,0,0,0-.53-.95c-.65.29-1.89-.34-1.82,1C185.44,88,185.92,88.24,186.17,88.52Zm-2.78,0c.87,0,1-.57.9-1.17-.06-.29-.6-.48-1-.76-.6.35-1.38.59-1.39.87C181.86,88.42,182.59,88.55,183.39,88.55Zm.38-14.28c.11-.32,0-1-.16-1.08-1.39-.6-2.33-2.24-4.14-2a11,11,0,0,0-1.4.17,3,3,0,0,0-.79.42,5.73,5.73,0,0,0,.68.4c1.2.47,1.34,1,.37,1.82a5.33,5.33,0,0,1-1.45.72c-.59.23-1.2.37-1.78.61-.14.07-.18.38-.27.58a1.2,1.2,0,0,0,.47.17c.83,0,.9.34.45.91-.74.91-1.51,1.78-2.26,2.68a2.27,2.27,0,0,0-.25.49c.18,0,.38.1.53,0a15.28,15.28,0,0,0,2.11-.92c.78-.45,1.46-1.06,2.24-1.53a1,1,0,0,1,.86,0c.15.1.09.52.12.8s.06.55.09.83a5.24,5.24,0,0,0,.67-.58c.55-.65,1-1.83,1.61-1.91C183.17,76.7,183.37,75.44,183.76,74.27ZM180.7,88c0-1.37-1.26-.8-1.92-1.17a10,10,0,0,0-.47,1.65c0,.15.43.37.67.55C179.8,88.82,180.69,89.16,180.7,88Zm-1-17.8.68.07c-.08-.23-.15-.47-.25-.7a13,13,0,0,1-.9-2c-.22-.85-.57-.72-1.13-.39q-3.94,2.3-7.88,4.54c-2.63,1.51-5.3,3-7.93,4.5-1.66,1-3.31,1.94-4.94,3-.18.11-.23.43-.35.66a3,3,0,0,0,.63.19c1.72.06,3.44.06,5.16.14,2.4.11,4.79.3,7.19.4a2.13,2.13,0,0,0,1.33-.33c.9-.75,1.69-1.63,2.57-2.42.52-.47.4-.76-.11-1.1-.84-.56-.71-1.2.06-1.66s1.86-.91,2.79-1.37c.2-.1.39-.23.58-.35a3.49,3.49,0,0,0-.52-.33c-.25-.11-.54-.15-.78-.28-.7-.38-.82-1-.14-1.35a36.7,36.7,0,0,1,3.86-1.5C179.6,70,179.64,70.1,179.67,70.22Zm-1.95,10c0-.2-.26-.41-.4-.62l-.81.64.62.57C177.4,80.57,177.72,80.41,177.72,80.23Zm-1,8.8c.23-.07.61-.38.58-.48-.16-.51-.32-1.31-.67-1.42a7.75,7.75,0,0,0-2.47-.19c-.16,0-.43.34-.45.54-.13,1.46.18,1.77,1.64,1.79A12.11,12.11,0,0,0,176.72,89ZM172.63,88c0-1.5-1.06-1-1.77-1-1.58.05-1.58.05-.83,1.39.06.1,0,.31.12.33a14.35,14.35,0,0,0,2.14.48A3,3,0,0,0,172.63,88Zm-4.47.82c.46,0,.71.11.46-.61a2.09,2.09,0,0,0-2.32-1.48c-.69,0-1.2,0-1.26,1s.61.76,1,.85A14.38,14.38,0,0,0,168.15,88.78Zm-2.38,1.08-.4-.33-.64.27a1.11,1.11,0,0,0,.38.15A3,3,0,0,0,165.78,89.86Zm-2-2.23c.06-.42-.18-1.17-.51-1.31a10.77,10.77,0,0,0-2.49-.61c-.19,0-.52,0-.59.08a2.41,2.41,0,0,0,.92,2.24c.49.14,1,.22,1.49.32l.22.2C163.21,88.24,163.77,88,163.82,87.63ZM158.94,87c.5-1.18-.26-2-2.24-2a1.8,1.8,0,0,0-.75.22c-.11.07,0,.72.13.83a22.32,22.32,0,0,0,2.43,1.38C158.57,87.5,158.85,87.2,158.94,87Z"/><path d="M194.26,76.18l0,.35c-.26.09-.53.29-.77.25a2.65,2.65,0,0,1-.79-.46c.26-.21.5-.56.78-.6S194,76,194.26,76.18Z"/><path d="M193.76,69.79,192.68,71l-.94-1c.27-.24.54-.68.81-.68A3.4,3.4,0,0,1,193.76,69.79Z"/><path d="M190.78,72.3c.35.37.74.68.7.77a4.43,4.43,0,0,1-.74,1c-.24-.21-.71-.47-.67-.61A4.27,4.27,0,0,1,190.78,72.3Z"/><path d="M190.88,63.65c.2,0,.48.36.72.56l-1,.66-.66-.61A3.14,3.14,0,0,1,190.88,63.65Z"/><path d="M190.1,70a2.73,2.73,0,0,0,0,.29,9,9,0,0,1-1.12.43c-.07,0-.23-.29-.35-.45.24-.18.46-.45.72-.51S189.84,70,190.1,70Z"/><path d="M188.16,111.3c1.31,2,1.06,3.54-1.43,5.85a21,21,0,0,1-2.66,2.13,5.15,5.15,0,0,1-5.8,0,20.85,20.85,0,0,1-3.93-3.15,6.31,6.31,0,0,1-.93-2.2l.28,0a7.41,7.41,0,0,1,2.72-6.54,3.35,3.35,0,0,1,2.09-.82,31.55,31.55,0,0,1,5.5.46c1.82.34,2.9,1.76,3.73,3.36A10.48,10.48,0,0,0,188.16,111.3Zm-2.59,5.94a4.12,4.12,0,0,0,2-4.35c-.15-.86-.78-1.13-1-1.77a5.66,5.66,0,0,0-5-3.47,5.57,5.57,0,0,0-6.55,5.58,10.37,10.37,0,0,0,.72,2.18,6.56,6.56,0,0,0,4.08,3,5.58,5.58,0,0,0,2.47.5A10.09,10.09,0,0,0,185.56,117.24Z"/><path class="cls-1" d="M188,62.14a3.21,3.21,0,0,1-.14.76c-.3.71-.68,1.38-.94,2.09s0,1.11.8,1.19c.29,0,.55.39.89.67a12.6,12.6,0,0,1-1.05,1.85,24.7,24.7,0,0,1-2.6,2.88,1.41,1.41,0,0,1-2.19-.28c-.92-1.41-1.66-2.94-2.47-4.43a1.61,1.61,0,0,1-.06-.55,3,3,0,0,1,.53.18c.2.12.37.34.59.4s.72.17.89,0a1,1,0,0,0,.23-.89c-.31-1.1-.73-2.17-1-3.28a5,5,0,0,1,0-1.16c.28.17.55.35.83.51,1,.54,1.23-.34,1.47-1,.53-1.35,1-2.73,1.46-4.1a2.35,2.35,0,0,1,.3-.64,3.46,3.46,0,0,1,.58-.5,5,5,0,0,1,0,.77c-.22,1.91-.46,3.82-.66,5.73a.88.88,0,0,0,.28.67c.11.09.45,0,.63-.12s.61-.52.94-.71A2.24,2.24,0,0,1,188,62.14Z"/><path class="cls-2" d="M187.52,112.89a4.12,4.12,0,0,1-2,4.35,10.09,10.09,0,0,1-3.33,1.65,5.58,5.58,0,0,1-2.47-.5,6.56,6.56,0,0,1-4.08-3,10.37,10.37,0,0,1-.72-2.18,5.57,5.57,0,0,1,6.55-5.58,5.66,5.66,0,0,1,5,3.47C186.75,111.76,187.37,112,187.52,112.89Z"/><path d="M187.05,76.13c.22,0,.48.14,1,.34-.56.36-.81.63-1.09.68s-.35-.36-.52-.56C186.65,76.43,186.84,76.17,187.05,76.13Z"/><path class="cls-1" d="M183.6,73.19c.19.08.27.76.16,1.08-.4,1.17-.6,2.43-2.32,2.65-.61.08-1.06,1.26-1.61,1.91a5.24,5.24,0,0,1-.67.58c0-.28,0-.55-.09-.83s0-.7-.12-.8a1,1,0,0,0-.86,0c-.78.47-1.46,1.08-2.24,1.53a15.28,15.28,0,0,1-2.11.92c-.15.06-.35,0-.53,0a2.27,2.27,0,0,1,.25-.49c.75-.9,1.52-1.77,2.26-2.68.46-.57.38-.93-.45-.91a1.2,1.2,0,0,1-.47-.17c.09-.2.13-.51.27-.58.58-.24,1.19-.38,1.78-.61a5.33,5.33,0,0,0,1.45-.72c1-.82.84-1.35-.37-1.82a5.73,5.73,0,0,1-.68-.4,3,3,0,0,1,.79-.42,11,11,0,0,1,1.4-.17C181.28,70.95,182.21,72.59,183.6,73.19Z"/><path d="M178.29,132a7.08,7.08,0,0,1,3,6.83c-.86,4.83-5.2,7-8.71,7.08-2.24.06-4.81-.28-6.58-2.15a11.65,11.65,0,0,1-1.89-2.95,17.3,17.3,0,0,1-.86-2.61c.38-2.71,1-5,3.27-6.55a10.89,10.89,0,0,1,2.67-1.61,6.42,6.42,0,0,1,2.67.12C174.11,130.48,176.31,130.63,178.29,132Zm.22,10.25c2-1.37,2.24-5.89.75-7.75-1.9-2.36-4.41-3.09-7.21-3.19-1.75-.06-3.6.07-4.94,1.27a6.08,6.08,0,0,0-1.89,7c.56,1.54,1.3,3.1,2.75,3.82a31.23,31.23,0,0,0,5.13,1.6C175.4,144.87,176.87,143.38,178.5,142.24Z"/><path class="cls-2" d="M179.25,134.49c1.49,1.86,1.21,6.38-.75,7.75-1.63,1.14-3.1,2.63-5.41,2.74a31.23,31.23,0,0,1-5.13-1.6c-1.45-.72-2.2-2.28-2.75-3.82a6.08,6.08,0,0,1,1.89-7c1.34-1.2,3.19-1.33,4.94-1.27C174.84,131.4,177.35,132.13,179.25,134.49Z"/><path d="M173.18,72c0,.1-.29.34-.54.64-.27-.37-.58-.61-.57-.84s.33-.44.52-.66A4.25,4.25,0,0,1,173.18,72Z"/><path d="M170,73.73c.31.35.68.65.63.74a1.84,1.84,0,0,1-.73.76c-.09,0-.62-.39-.59-.48A4.81,4.81,0,0,1,170,73.73Z"/><path d="M168.65,77.73c.09,0,.51.37.48.44a4.35,4.35,0,0,1-.65.84c-.27-.33-.58-.63-.55-.68A2,2,0,0,1,168.65,77.73Z"/><path d="M167.45,37.79a59.67,59.67,0,0,1-.13,6.25c0,.56-.28.82-.67,1.25-1.91,2.09-4.61,2.82-6.85,4.32-.72.48-1.43,1-2.17,1.44-2,1.31-4.08,2.58-6.09,3.91-2.69,1.76-5.35,3.58-8.05,5.32-1.79,1.15-3.65,2.17-5.46,3.28a28,28,0,0,0-2.92,2A36,36,0,0,1,125,71.32a1.54,1.54,0,0,1-2.23-1.07c-.33-1.9-.55-3.81-.82-5.72C121.83,62,123.34,60,124.45,58q3.71-6.9,7.51-13.76c1.56-2.84,3.12-5.67,4.75-8.47,2.72-4.66,5.42-9.33,8.27-13.9,1.9-3,4.11-4,7.62-2.37,2.77,1.3,5.66,2.61,7.7,5a60,60,0,0,1,5.9,7.94A12.84,12.84,0,0,1,167.45,37.79Zm-5.19,9c2.62-1.24,4.56-2.93,4.3-6.23-.11-.89-.24-1.79-.32-2.69-.06-.66-.25-.6-.7-.26a43.51,43.51,0,0,1-3.66,2.6,1.83,1.83,0,0,0-1,1.83c.06,1.34.19,2.68.22,4C161.1,47,161.47,47.2,162.26,46.82ZM165,36.58a1.76,1.76,0,0,0,.68-2.4,13.16,13.16,0,0,0-1.82-3.36c-2.21-2.48-3.81-5.57-6.83-7.27-2-1.12-4-2.21-6.14-3.16a5.59,5.59,0,0,0-2.33-.14c-.4,0-1,.06-1.14.31-1.15,1.5-2.23,3.06-3.29,4.62a3.26,3.26,0,0,0-.28,1,4.54,4.54,0,0,0,1-.44c1.56-1.24,3.2-2.27,4.56-2.23,2.5,0,4.72,2.08,4.5,3.54-.18,1.13-.45,2.25-.66,3.37a4.67,4.67,0,0,0,0,.65,4.83,4.83,0,0,0,.55-.12,10.49,10.49,0,0,1,5.14-.79,7,7,0,0,1,4.65,2.31,3.7,3.7,0,0,1,.69,3.79c-.06.17.11.42.18.64A4.07,4.07,0,0,0,165,36.58Zm-2.13-.6a2.74,2.74,0,0,0,.2-1,3.34,3.34,0,0,0-.44-1.21c-.12-.22-.32-1-.67-.06-.07.18-.6.19-.91.27,0-.24-.13-.62,0-.7.89-.69.1-1-.32-1.17a21,21,0,0,0-3-.64c-.09,0-.3.28-.36.47s-.08.65-.2,1c0,.1-.33.09-.51.13,0-.33-.15-.72,0-1,.41-.78-.1-.65-.48-.49a1.54,1.54,0,0,0-.73.7c-.29.61-.55.83-1.09.25a.84.84,0,0,0-.77-.16A5.08,5.08,0,0,0,151.11,36a2.1,2.1,0,0,1-.35.68s-.36-.1-.38-.19a3.75,3.75,0,0,1,0-.82c0-.28.06-.56.07-.83a3.54,3.54,0,0,1,0-1.13c.44-1.09,1-2.13,1.43-3.23.14-.36-.11-.86-.11-1.3,0-.28,0-.76.19-.83.77-.34.75-.88.54-1.53a3.22,3.22,0,0,0-3.13-2,6.28,6.28,0,0,0-4.14,2h0c-.86.8-2.78.88-1.92,2.86a.85.85,0,0,1,0,.35l-.12.11a4.76,4.76,0,0,0-.7-.39c-.18-.06-.5-.09-.58,0-.71.85-1.37,1.72-2,2.59a4.88,4.88,0,0,0-.34.58c.23-.09.46-.16.68-.27a9.25,9.25,0,0,1,1.72-.92,5.18,5.18,0,0,1,6.14,2.74c.08.14-.13.48-.27.68-.35.5-.94.92-.22,1.59.08.07-.17.6-.38.83s-.54.17-.72.36a2.13,2.13,0,0,0-.29.74,2.77,2.77,0,0,0,.71-.05c1.34-.46,2.67-.91,4-1.43.31-.12.54-.46.82-.7s.39-.32.59-.48c.13.19.39.41.36.59-.15.92.29.76.89.63.26-.06.81.16.85.34.16.7.43.87,1.07.55a.74.74,0,0,1,.63.14.61.61,0,0,1,0,.54c-1.08.65-.41,1.72-.64,2.57-.06.2.18.48.29.72,0-.22.09-.43.14-.64a4.76,4.76,0,0,1,.26-1.08,4.19,4.19,0,0,1,.69-.78,7.68,7.68,0,0,1,.31.92,5.32,5.32,0,0,1,.06.8c.25-.08.52-.14.76-.24a8.68,8.68,0,0,0,1-.55c.06,0,.06-.22,0-.33s-.1-.52-.14-.78c.32,0,.64,0,.94.07a5.63,5.63,0,0,1,.68.18,5.1,5.1,0,0,0,.09-.65c0-.77.23-1.07,1-.66.2.11.59.19.7.09a1.36,1.36,0,0,0-.63-2.13,1.16,1.16,0,0,1-.59-.45c0-.1.2-.52.32-.52a1.71,1.71,0,0,1,.84.24A4,4,0,0,1,162.86,36ZM160,47.11c0-1.38,0-2.76,0-4.13h-.18a2.6,2.6,0,0,0-.09-.93c-.08-.18-.51-.41-.63-.34-1.11.59-2.18,1.26-3.28,1.85a1.72,1.72,0,0,0-1,1.74c0,1.6,0,3.2,0,4.81a5.06,5.06,0,0,0,.19,1,4.76,4.76,0,0,0,1-.42,27,27,0,0,1,2.9-2A1.53,1.53,0,0,0,160,47.11Zm-6.35-5c.27-.69.64-1.62.39-2.17a2.47,2.47,0,0,0-2.47-1.51,11.53,11.53,0,0,0-6.33,2.67,11.35,11.35,0,0,1-1,.78,1.46,1.46,0,0,1-.53.1c0-.22-.15-.48-.07-.64.68-1.37,1.34-2.75,2.11-4.07.52-.92.8-3,.3-3.47a3.24,3.24,0,0,0-3.43-1c-3,.91-4.46,3.5-6.26,5.73a3.27,3.27,0,0,0-.36,1c.34,0,.69,0,1,0s.38-.15.57-.16a1.36,1.36,0,0,1,1.63,1.1,6.72,6.72,0,0,1-.86,5.41,3.17,3.17,0,0,0-.17.52,1.57,1.57,0,0,0,.55-.09,12.81,12.81,0,0,1,4.82-1.72c1.9-.32,2.63.27,2.55,2.46,0,0,0,.39,0,.74a6.55,6.55,0,0,0,1.07-.39,21.15,21.15,0,0,1,2-1.28C151.14,45.2,152.9,44.19,153.69,42.09Zm.1,9.26c.1-1.72,0-3.44,0-5.16,0-.39-.06-.78-.09-1.17l-1,.5a13.46,13.46,0,0,1-1.25.64c-2.11.84-2.67,2.5-2.57,4.59.14,1.09.27,2.18.42,3.27.08.52.28.77.86.4.92-.59,1.95-1,2.83-1.67A2.05,2.05,0,0,0,153.79,51.35Zm-5.54,3.09c0-1.86-.07-3.72-.12-5.59,0-.19,0-.37,0-.56-.17.08-.34.15-.51.24a6.19,6.19,0,0,1-.73.37c-2.09.76-2.4,2.75-2.9,4.5a11.21,11.21,0,0,0,0,3.06h-.09c0,.35.06.71.11,1,.11.68.53.62.94.33a32.52,32.52,0,0,0,2.86-2.06A1.94,1.94,0,0,0,148.25,54.44Zm-3.79-7.6.71-.4c-.41-.28-.82-.57-1.24-.82,0,0-.24.19-.36.3ZM143.83,49c.75-.58.6-1.4-.23-1.94a3.36,3.36,0,0,1-.67-.85c-.08-.1-.16-.28-.23-.27-.47,0-.92.13-1.39.2.12.16.32.31.33.48a5,5,0,0,1,0,1.45c0,.17-.42.27-.65.4-.07-.41-.13-.82-.2-1.24a.36.36,0,0,1,0-.11c0-.68-.14-.85-.75-.39-1.06.79-2.16,1.56-3.28,2.27a3.3,3.3,0,0,1-1.19.25,6.2,6.2,0,0,1,.28-.86c.75-1.37,1.56-2.71,2.25-4.11.35-.72.84-1.57-.2-2.27-.13-.09,0-.55,0-.83a4.64,4.64,0,0,1,.11-.63c-.18,0-.4-.12-.51,0s-.56.4-.53.58c.11.82-.37.86-.82.56-.69-.46-.94.05-1.22.44a28,28,0,0,0-3.44,5.56c-.23.53-.45,1.07-.68,1.61-.18.16-.43.27-.53.46-1,1.93-2,3.89-3.1,5.81-.26.46-.77.82.16,1.08.13,0,.27.42.23.59a.76.76,0,0,1-.49.45.59.59,0,0,1-.47-.33c-.2-.77-.37-.25-.51,0s-.34.73-.56,1-.65.8.28.84c.1,0,.18.48.27.73-.27,0-.74.17-.78.09-.43-.89-.59-.19-.77.13a10.22,10.22,0,0,0-.86,1.79,1.43,1.43,0,0,0,.07,1.17,1.18,1.18,0,0,0,1.12,0c2.28-1.6,4.53-3.23,6.73-4.94.28-.21.06-1,.34-1.32s1,.2,1.26,0c1.55-1,3.06-2,4.53-3.14C139.74,52.12,141.79,50.56,143.83,49Zm-.93,4.77c0-.69.09-1.37.13-2.06l-1.55,1c-.06,0-.17,0-.22.06-.93.84-2.44,1.08-2.74,2.56-.18.92-.24,1.86-.36,2.85.12,1,.21,2,.4,3a.9.9,0,0,0,.75.34c1.14-.71,2.26-1.45,3.32-2.26.22-.16.28-.63.29-1C142.92,56.78,142.88,55.26,142.89,53.74Zm-6.5,9.69a1.66,1.66,0,0,0,1.05-1.87c-.14-1.05-.17-2.11-.22-3.18,0-.69,0-1.39,0-2.09s-.22-.56-.64-.26c-1,.7-1.93,1.36-2.92,2-1.72,1.12-2,2.77-1.71,4.64.12.77.26,1.54.4,2.32h-.11l.15.75c.23-.11.47-.2.69-.33C134.17,64.76,135.25,64,136.39,63.43Zm-5.57,3.64c.48-.27,1.6-.56.22-1.24-.09-.05,0-.41,0-.63a4.21,4.21,0,0,0,.17-.9c-.1-1-.26-1.93-.4-2.9,0-.27-.08-.53-.13-.8a4.59,4.59,0,0,0-.71.34,19,19,0,0,0-2,1.42c-1,.84-2.69,1.22-2.13,3.16.16,1,.27,2,.51,3a1,1,0,0,0,.89.43C128.44,68.4,129.64,67.75,130.82,67.07Zm-5.9,2.8a.91.91,0,0,0,.54-.7c-.16-1.4-.4-2.79-.64-4.18,0-.19-.21-.36-.37-.62-.49.31-1.11.56-1.11.75.13,1.51.36,3,.64,4.51C124,69.78,124.64,69.94,124.93,69.87Z"/><path d="M162.78,151.2c2.43.12,3.82,1.27,3.8,3.09a3.81,3.81,0,0,1-3.44,3.44c-2.12,0-4.07-1.55-4-3.14A3.46,3.46,0,0,1,162.78,151.2Zm2.32,3.83a2.47,2.47,0,0,0-.87-2,4.76,4.76,0,0,0-2.68-.23,1.36,1.36,0,0,0-.91,2,3.54,3.54,0,0,0,2.56,1.77A1.82,1.82,0,0,0,165.09,155Z"/><path class="cls-3" d="M165.66,34.18a1.76,1.76,0,0,1-.68,2.4,4.07,4.07,0,0,1-.6.28c-.07-.22-.24-.47-.18-.64a3.7,3.7,0,0,0-.69-3.79,7,7,0,0,0-4.65-2.31,10.49,10.49,0,0,0-5.14.79,4.83,4.83,0,0,1-.55.12,4.67,4.67,0,0,1,0-.65c.21-1.12.48-2.24.66-3.37.22-1.46-2-3.52-4.5-3.54-1.36,0-3,1-4.56,2.23a4.54,4.54,0,0,1-1,.44,3.26,3.26,0,0,1,.28-1c1.06-1.56,2.14-3.12,3.29-4.62.19-.25.75-.3,1.14-.31a5.59,5.59,0,0,1,2.33.14c2.1.95,4.14,2,6.14,3.16,3,1.7,4.62,4.79,6.83,7.27A13.16,13.16,0,0,1,165.66,34.18Z"/><path class="cls-2" d="M164.22,153a2.47,2.47,0,0,1,.87,2,1.82,1.82,0,0,1-1.92,1.58,3.54,3.54,0,0,1-2.56-1.77,1.36,1.36,0,0,1,.91-2A4.76,4.76,0,0,1,164.22,153Z"/><path d="M164.18,77.9a3.13,3.13,0,0,1-.3,1l-.85-1c.22-.13.44-.35.66-.37A.63.63,0,0,1,164.18,77.9Z"/><path d="M162.71,180.2c.43,3.18-1,5.6-3.74,7.22a50.63,50.63,0,0,1-5.56,3.12A49.9,49.9,0,0,1,146.3,193a49.26,49.26,0,0,1-5.83.85c-2.54.34-4.25-1-5.43-3-2-3.43-3.83-7-5.95-10.42-2.35-3.75-3.68-7.94-5.44-11.94a60.6,60.6,0,0,1-2.53-5.57c-1-3.13-2.49-6.17-2.24-9.61a7,7,0,0,1,1.69-4.3c1.19-1.37,2.24-2.87,3.36-4.3a5.83,5.83,0,0,1,.93-.92,1.66,1.66,0,0,1,2.41,0c2,1.84,4.08,3.72,6.23,5.41s4.22,3,6.36,4.45c1.61,1.09,3.25,2.17,4.93,3.14.69.4.38.82.2,1.17-.09.16-.7.22-.92.08-1-.6-2-1.29-3-1.95-2.39-1.6-4.86-3.07-7.13-4.82-2.43-1.87-4.65-4-7-6a5.75,5.75,0,0,0-.67-.42c0,.28-.07.56-.08.84,0,2.4,1.55,4.17,2.45,6.19,1.61,3.62,3.44,7.14,5.13,10.73,1.42,3,2.79,6.09,4.15,9.16.9,2.08,1.8,4.17,2.58,6.29.42,1.13,1,1.57,2.19,1.33a26.47,26.47,0,0,1,4.5-.86,15.58,15.58,0,0,0,5-1.16,10.32,10.32,0,0,0,6.32-5.84c.53-1.29,0-2.47-1.54-3.69-2.06-1.59-4.17-3.12-6.22-4.7-.58-.44-.76-.35-.9.36s-.57,1.64-.83,2.46a2.1,2.1,0,0,0,.71,2.54,3.36,3.36,0,0,1,.26,5.41c-1.73,1.69-5.56,2.37-7.55,1.09a4.72,4.72,0,0,1-1.67-2.55c-.63-2.25.23-4,2.14-5.37,1.14-.81,2.27-.4,3.41-.33a1.65,1.65,0,0,0,2-1.5,13.7,13.7,0,0,1,.56-2.41c.37-.89,0-1.35-.65-1.79-.29-.2-.6-.38-.87-.59s-.84-.64-1.25-1c-.53.81-1.63,1.14-1.49,2.5a3.15,3.15,0,0,1-4,3.56c-1.31-.23-2.69-.38-3.57-1.76s-.06-3.94,1.87-4.7c1.56-.62,2.85.15,4.1.9a1,1,0,0,0,1.51-.19c1.46-1.59,3-3.13,4.44-4.72a14.78,14.78,0,0,0,1-1.53,1.93,1.93,0,0,1,2.45-.56,6.2,6.2,0,0,1,4.08,4.42c.27,1,.39,2,.62,3.14-.2.79-.43,1.68-.65,2.57a11.39,11.39,0,0,1-2.69-1,16.19,16.19,0,0,1-2.32-2.29l-.54-.55a3.32,3.32,0,0,1-.2.63c-.45.93-.12,1.51.69,2.1q3.5,2.53,6.88,5.23a23.31,23.31,0,0,1,2.18,2.15,1,1,0,0,1,.25.52C161.47,173.38,162.24,176.77,162.71,180.2Zm-1.64,1c.32-.24.09-1.19.12-1.82-.42,0-.85,0-1.25.11a1.61,1.61,0,0,0-.54.24c-2.44,1.37-4.83,2.82-7.33,4.09a19.47,19.47,0,0,1-4.28,1.53,26.78,26.78,0,0,1-5.19.78c-1.49.07-1.75.09-1.77,1.86,0,1.16,1,.25,1.35.65a28.69,28.69,0,0,0,2.93-.25,40.77,40.77,0,0,0,11.33-4.2A31.69,31.69,0,0,0,161.07,181.22Zm.11,2c0-.12,0-.3-.06-.45a1.5,1.5,0,0,0-.3.1c-3.19,1.59-6.39,3.17-9.56,4.79-.15.08-.15.47-.19.72s0,.45-.07.68c-.29-.08-.78-.12-.81-.27-.3-1.13-.72-.49-1.12-.13h0c-1.15.23-2.29.45-3.43.72-.15,0-.23.36-.36.53s-.32.56-.51.58-.73-.22-.73-.35c0-.78-.48-.55-.88-.49s-.79.13-1.17.14a2.62,2.62,0,0,0-2.46,2.17c0,.18,0,.48.13.52a3.91,3.91,0,0,0,.91.19,1.36,1.36,0,0,1,0-.57,1.71,1.71,0,0,1,.55-.69,1.78,1.78,0,0,1,.84-.14,7.43,7.43,0,0,1,.94.15,10,10,0,0,1-.78.68,1.36,1.36,0,0,1-.47.16c.19.1.39.32.55.29,1.24-.2,2.48-.42,3.71-.69.14,0,.24-.35.33-.55s.19-.56.28-.83l.74.64c.16.12.37.33.49.29,1.21-.34,2.44-.68,3.61-1.12.35-.14.54-.67.86-.92a2.86,2.86,0,0,1,1-.37,8.11,8.11,0,0,1,.85-.1l0,0c.78-.3,1.83-.34,1.53-1.67,0-.06.88-.48,1-.37.49.5.8.27,1.2,0a4.9,4.9,0,0,1,.91-.46A5.4,5.4,0,0,0,161.18,183.23Zm-.52-7.47a4.93,4.93,0,0,0-.22-1.52c-.08-.28-.34-.69-.55-.71a2,2,0,0,0-1.29.28,33.46,33.46,0,0,0-2.5,2.41c-.07.08.09.36.11.54,0,.75.09,1.49.12,2.23,0,0-.14,0-.22.06-.65.2-.83-.05-.82-.71a3.65,3.65,0,0,0-.47-1.18,6.59,6.59,0,0,0-1.09.65c-.08.06.18.46.2.7a7.58,7.58,0,0,1-.06.94A6.54,6.54,0,0,1,153,179c-.09,0,0-.39-.1-.42a1.15,1.15,0,0,0-.75-.15c-.19.07-.32.36-.43.58s-.14.71-.33.78-.77-.1-.8-.24c-.13-.66-.44-.43-.85-.33a51.15,51.15,0,0,1-5.41,1.17c-1,.13-1.23.44-1,1.31-1.21-.09-1.45.14-1.64,1.58,0,.11,0,.23,0,.35,0,.32-.12.69,0,.94a1.47,1.47,0,0,0,.77.55c.19.07.46-.05.69-.09a2.34,2.34,0,0,1-.45-.61,4,4,0,0,1-.1-.85c.27,0,.72-.13.78,0,.67,1.16,1.45.11,2.16.12.45,0,1.07-.89,1.32,0s-.68.55-1.14.66a2.42,2.42,0,0,0-.56.32c.23.09.48.28.68.24.86-.15,1.7-.35,2.53-.58a3.06,3.06,0,0,0,.72-.45,2,2,0,0,1-.71-.06,4.41,4.41,0,0,1-.72-.59c.2-.16.41-.49.58-.47a16.07,16.07,0,0,1,2.07.4,4.77,4.77,0,0,0,4.35-2.26c.12-.28.74-.65.86-.57,1.13.79,1.87-.23,2.29-.78s.1-1.51.06-2.29a3.78,3.78,0,0,0-.26-.91,3.75,3.75,0,0,1,.61-.17,2.39,2.39,0,0,1,.29.95c0,.71.77,1.54,1.39,1.32a4.32,4.32,0,0,0,1.12-.86,3.35,3.35,0,0,1-.9-.24c-.2-.11-.31-.38-.47-.57.2-.15.4-.28.58-.44S160.66,175.95,160.66,175.76Zm-4.89-14.95a4,4,0,0,0-.58-3.36,16,16,0,0,0-2.62-3c-.09-.09-.68.08-.7.19-.12.69-.14,1.41-.19,2.11-.06,1.36,2,4.15,3.37,4.53C155.24,161.37,155.69,161,155.77,160.81Zm-5.38-4.07c-.1-.45-.17-.75-.24-1.05-.24.19-.5.35-.72.56-.64.64-1.25,1.3-1.88,2-.48.5-.49.95.13,1.34a4.09,4.09,0,0,0,1,.62c.25.07.79-.09.85-.26C149.87,158.82,150.13,157.72,150.39,156.74ZM147.79,174c1.72-.3,2.58-2.12,2.21-3a5.22,5.22,0,0,0-3.36-3.1,4.49,4.49,0,0,0-2.92.16,3.32,3.32,0,0,0-1.77,3.89c.55,1.8,1.32,2.27,3.62,2.27C146.31,174.15,147.06,174.12,147.79,174ZM143.45,163c.17-.42-.4-1.38-.89-1.78a5,5,0,0,0-2.31-1,2.25,2.25,0,0,0-2.21,1.22,1.25,1.25,0,0,0,.45,1.85,19.72,19.72,0,0,0,3.14,1.37C142.32,164.12,143.18,163.71,143.45,163Zm-2.9,20.84c.08-.21.24-.44.22-.63-.18-1.23-.37-2.47-.62-3.69-.16-.79-.71-.55-1-.18-.66.79-1.15.53-1.67-.11,1.91-1.41,2-1.87.83-4a11.71,11.71,0,0,1-.58-1.3c-.22-.55-.34-1.19-1.21-.83-.18.08-.53-.23-.76-.42,0,0,.09-.45.21-.49,1.13-.38.41-1,.2-1.53-.39-1-1.59-1.66-1.36-3,0-.07-.31-.23-.5-.27a6.49,6.49,0,0,0-.87-.09,5.24,5.24,0,0,0,.44-.71,1.06,1.06,0,0,0,.17-.7,17.82,17.82,0,0,0-.84-1.83.66.66,0,0,0-.35-.26c-.26-.1-.71-.11-.76-.27s.12-.59.12-.89,0-1-.15-1c-.87-.16-.79-.69-.71-1.34a3.34,3.34,0,0,0-2.36-3.17,3.14,3.14,0,0,0-1,.24c.1.24.18.5.3.73.23.44.48.88.72,1.32v0a5.11,5.11,0,0,0,.33,1.09c.3.55.09,1.72,1.36,1.21.06,0,.34.25.35.39a1,1,0,0,1-.28.56c-.17.21-.6.47-.56.57.45,1.13.94,2.25,1.44,3.36,0,0,0,0,0,0,.31.64.63,1.29.92,1.94a1.53,1.53,0,0,1,.23.74c-.13.81,0,1.23,1,1,.23-.06.55.19.82.3a4.64,4.64,0,0,1-.42.9,2.36,2.36,0,0,1-.66.44,6.73,6.73,0,0,0,.88.71c.49.27,1.11.43.34,1.11a.73.73,0,0,0-.1.67c.86,1.66,1.75,3.3,2.63,4.95l2,2.8a11.34,11.34,0,0,0,.64,1.25C140,183.67,140.34,183.75,140.55,183.89Zm-.7,2.57c0-.15.08-.3.19-.67-.13-.22-.32-.58-.55-.92-.88-1.31-1.9-2.54-2.65-3.92-1.6-2.89-3.43-5.66-4.43-8.87-.68-2.16-1.71-4.2-2.54-6.31-1.07-2.73-2.14-5.47-3.12-8.23s-1.79-5.39-2.66-8.09c-.17-.52-.27-1.07-.47-1.58,0-.13-.38-.15-.57-.22-.19.57-.65,1.22-.51,1.69.77,2.59,1.64,5.15,2.53,7.71.69,2,1.45,3.91,2.15,5.87,1.25,3.52,2.52,7,3.7,10.59a45.7,45.7,0,0,0,6.93,13.37,8,8,0,0,0,1.63,1.29C139.59,187.6,139.72,187,139.85,186.46Zm-1.13,3.24-1.14.81c-.21.14-.44.27-.65.4a11,11,0,0,0,.83,1.19c.08.08.6,0,.63-.16.21-.78.35-1.58.51-2.37-.47-.42-1.14-.76-1.35-1.28-.38-.9-1.24,0-1.45-.51a5.54,5.54,0,0,1-.17-1.74c0-.06-.12-.11-.16-.18-.86-1.37-1.7-2.76-2.56-4.13-.29-.46-.08-1.33-1.28-1-.53.15-1,.21-.89.64.18.59.67,1.43,1.14,1.52,1,.19,1.07.09.62,1.07-.3.65-.07.86.53,1,1.13.19,1.12.19.43,1.12-.06.08-.14.24-.11.29.64,1.1,1.28,2.18,1.95,3.25.06.09.36,0,.55,0Zm-7.62-9.89c.83-.35,1-.91.41-1.72-.37-.52-.37-1.59-.78-1.74-.86-.32-.74-.61-.54-1.29.11-.34,0-1.18-.82-.51-.19.15-.63,0-1-.05,0-.64.26-.86.88-.76.13,0,.5-.4.46-.51-.37-1-.8-2-1.21-3l0,0c-.25-1.44-.16-3.05-1.87-3.79-.15-.06-.23-.59-.15-.83a6.26,6.26,0,0,0-.79-3.35c-.07-.05-.2,0-.3,0s-.45-.13-.68-.19c.08-.26.08-.61.25-.77.58-.58.34-.94-.23-1.27v0c-.13-.64-.23-1.28-.38-1.92s-.28-1.3-1.21-.88c-.11,0-.43-.1-.43-.17s0-.56.16-.59c1.51-.49.31-1.25.22-1.89l-.23-.68c-.25-.75-.5-1.5-.77-2.25l.12-.12-.19-.09c-.12-.33-.24-.65-.37-1a.8.8,0,0,0-.7-.09,4.72,4.72,0,0,0-1,3.64c0,.5-.13,1.11.71,1a2.91,2.91,0,0,1,0,.77c-.06.31-.38.64-.32.89.3,1.27.66,2.52,1.05,3.75,0,.16.47.22.73.29a5,5,0,0,0,.67.08c-.14.27-.26.55-.42.81s-.46.42-.43.49c.69,1.3,1.4,2.58,2.12,3.87a2.28,2.28,0,0,1,.31.6c.21.8.12,2,.62,2.35,1.18.78.82,1.9,1.11,2.88.23.74.72,1.42.87,2.17s.56.9,1.2.71a6.4,6.4,0,0,0,.1,2.06,15.53,15.53,0,0,0,1.68,3A1.22,1.22,0,0,0,131.1,179.81ZM129,156.6c.15,0,.23-.77.11-1.11-.3-.85-.75-1.64-1.08-2.47-.48-1.19-1.72-2-1.75-3.41,0-.37-.39-.74-.6-1.1l-.43.05c-.06.3-.25.64-.18.89.37,1.25.84,2.48,1.19,3.73.15.5.17.92.88.7.17,0,.5.3.7.51,0,0-.07.36-.18.45-.5.43-.52,1.42,0,1.67A1.9,1.9,0,0,0,129,156.6Zm-3.46-10.18c-.29-.46-.48-.78-.67-1.09a4,4,0,0,0-.82,1.21c-.06.23.45.6.7.9Z"/><path class="cls-4" d="M161.19,179.4c0,.63.2,1.58-.12,1.82a31.69,31.69,0,0,1-4.61,3,40.77,40.77,0,0,1-11.33,4.2,28.69,28.69,0,0,1-2.93.25c-.31-.4-1.37.51-1.35-.65,0-1.77.28-1.79,1.77-1.86a26.78,26.78,0,0,0,5.19-.78,19.47,19.47,0,0,0,4.28-1.53c2.5-1.27,4.89-2.72,7.33-4.09a1.61,1.61,0,0,1,.54-.24C160.34,179.44,160.77,179.44,161.19,179.4Z"/><path d="M159.82,36.7c.16.14.48.32.45.41a3.56,3.56,0,0,1-.51.88c-.22-.32-.45-.53-.41-.64A2.81,2.81,0,0,1,159.82,36.7Z"/><path d="M160.73,32.72c-.33.28-.61.62-.72.57a3.27,3.27,0,0,1-.76-.65c.18-.18.4-.52.53-.49A3.69,3.69,0,0,1,160.73,32.72Z"/><path d="M159.73,34.58c.11-.07.42.22.83.44a9.87,9.87,0,0,1-1.14.82c-.07,0-.33-.31-.5-.48A4.62,4.62,0,0,1,159.73,34.58Z"/><path d="M159.2,174.61l.69.57c-.3.24-.46.5-.64.5s-.4-.22-.6-.34C158.83,175.09,159,174.85,159.2,174.61Z"/><path d="M158.54,36.21l-.27.47c-.21.09-.45.28-.63.24s-.44-.38-.4-.51a.77.77,0,0,1,.54-.44A1.9,1.9,0,0,1,158.54,36.21Z"/><path d="M158.66,38.6c-.38.29-.61.59-.86.6s-.48-.31-.55-.54.29-.53.44-.52S158.22,38.38,158.66,38.6Z"/><path d="M157.43,33.54c.13.17.39.39.35.49a3.07,3.07,0,0,1-.62.73,4.42,4.42,0,0,1-.45-.61A6.07,6.07,0,0,1,157.43,33.54Z"/><path d="M156.47,35c.22,0,.41.26.74.51-.37.22-.59.45-.8.44s-.34-.36-.35-.56S156.36,35,156.47,35Z"/><path class="cls-5" d="M155.19,157.45a4,4,0,0,1,.58,3.36c-.08.24-.53.56-.72.5-1.36-.38-3.43-3.17-3.37-4.53,0-.7.07-1.42.19-2.11,0-.11.61-.28.7-.19A16,16,0,0,1,155.19,157.45Z"/><path d="M155.21,33.69c.1-.07.42.19.84.41a5.92,5.92,0,0,1-.94.66c-.11,0-.33-.2-.5-.32A3,3,0,0,1,155.21,33.69Z"/><path d="M154.17,35.23c.09,0,.47.37.43.49s-.34.47-.64.83c-.2-.39-.46-.66-.41-.82A1,1,0,0,1,154.17,35.23Z"/><path d="M154.44,187.84l-.38,1.05,0,0-.52-.91Z"/><path class="cls-3" d="M154.08,39.92c.25.55-.12,1.48-.39,2.17-.79,2.1-2.55,3.11-4.46,3.95a21.15,21.15,0,0,0-2,1.28,6.55,6.55,0,0,1-1.07.39c0-.35,0-.7,0-.74.09-2.19-.65-2.78-2.55-2.46a12.81,12.81,0,0,0-4.82,1.72,1.57,1.57,0,0,1-.55.09,3.17,3.17,0,0,1,.17-.52,6.72,6.72,0,0,0,.86-5.41,1.36,1.36,0,0,0-1.63-1.1c-.19,0-.38.14-.57.16s-.69,0-1,0a3.27,3.27,0,0,1,.36-1c1.8-2.23,3.27-4.82,6.26-5.73a3.24,3.24,0,0,1,3.43,1c.5.5.22,2.55-.3,3.47-.77,1.32-1.43,2.7-2.11,4.07-.08.16,0,.42.07.64a1.46,1.46,0,0,0,.53-.1,11.35,11.35,0,0,0,1-.78,11.53,11.53,0,0,1,6.33-2.67A2.47,2.47,0,0,1,154.08,39.92Z"/><path d="M153.69,32.87c.22.33.45.56.41.67a1.32,1.32,0,0,1-.52.53s-.35-.22-.33-.27A6,6,0,0,1,153.69,32.87Z"/><path d="M154.29,181c-.49.32-.71.56-1,.58s-.4-.25-.6-.4c.16-.18.31-.5.49-.53S153.74,180.86,154.29,181Z"/><path d="M151.7,26.77c.07.1.21.31.34.52-.2.12-.47.4-.59.34-.45-.2-.8-.37-1.07.24,0,.09-.45,0-.69,0,.11-.29.14-.77.33-.85A8.65,8.65,0,0,1,151.7,26.77Z"/><path d="M151.71,181.51c0,.2-.28.44-.61.9-.17-.54-.35-.82-.31-1.06s.31-.44.48-.66C151.42,181,151.68,181.22,151.71,181.51Z"/><path d="M151.71,29.79c-.47.25-.7.48-.87.44a.82.82,0,0,1-.49-.51c0-.1.27-.45.38-.44A4,4,0,0,1,151.71,29.79Z"/><path d="M150.52,31.43c.09,0,.28.13.58.29a5,5,0,0,1-.79.64s-.28-.3-.43-.47A3.55,3.55,0,0,1,150.52,31.43Z"/><path class="cls-6" d="M150,171c.38.87-.49,2.69-2.21,3-.74.13-1.48.16-2.23.23-2.3,0-3.07-.47-3.62-2.27a3.32,3.32,0,0,1,1.77-3.89,4.49,4.49,0,0,1,2.92-.16A5.22,5.22,0,0,1,150,171Z"/><path d="M149.76,25.3c.2,0,.43.18.8.37l-.92.75c-.14-.23-.36-.46-.37-.7S149.57,25.31,149.76,25.3Z"/><path d="M149.49,189.41c0,.06-.24.28-.41.35s-.26-.07-.4-.12c.13-.31.24-.63.37-.94A3.79,3.79,0,0,1,149.49,189.41Z"/><path d="M149.82,34.16c0,.19-.3.38-.47.57-.18-.18-.42-.33-.5-.54s.19-.34.37-.63C149.49,33.82,149.82,34,149.82,34.16Z"/><path d="M148.84,29c.26.33.55.56.52.7s-.33.38-.55.47-.38-.27-.38-.4S148.64,29.39,148.84,29Z"/><path d="M149.12,31.95a1.22,1.22,0,0,1-.14.82c0,.12-.3.14-.46.2-.2-.59-.41-1.18-.57-1.77,0-.07.22-.21.47-.42A7,7,0,0,1,149.12,31.95Z"/><path d="M149.07,188.67s0,0,0,0,0,0,0,0h0Z"/><path d="M148.92,180.37c.1,0,.3.16.55.3l-.64.82c-.15-.21-.4-.42-.4-.64S148.72,180.47,148.92,180.37Z"/><path d="M148.79,36.24s.28.17.51.3l-.65.74c-.09-.13-.28-.29-.26-.39A1.91,1.91,0,0,1,148.79,36.24Z"/><path d="M147.89,25.67c.08,0,.39.29.36.39a3.73,3.73,0,0,1-.54.85c-.25-.41-.52-.7-.46-.82A1,1,0,0,1,147.89,25.67Z"/><path d="M148.65,27.73c-.32.27-.5.5-.72.55s-.46-.29-.43-.4a.83.83,0,0,1,.42-.58C148.07,27.26,148.32,27.53,148.65,27.73Z"/><path d="M145,28.66c.65.05,2.14,1.82,2,2.44a.57.57,0,0,1-.34.42c-.12,0-.35-.13-.44-.27a4.3,4.3,0,0,1-.29-.76c-.18-.46-.18-1.11-1-.85-.11,0-.46-.34-.51-.58s.12-.52.19-.79Z"/><path d="M147.7,181c-.42.24-.65.48-.83.44a3.91,3.91,0,0,1-.9-.47c.22-.18.44-.51.66-.5S147.21,180.71,147.7,181Z"/><path d="M146.31,27.47l-.52.42a6.76,6.76,0,0,1-.49-.7,1.28,1.28,0,0,1-.07-.44c.14.07.27.15.4.23Z"/><path d="M145.8,181.77c0,.16,0,.49-.07.52a17.22,17.22,0,0,1-2.13.48,9.29,9.29,0,0,1-.25-1c.69,0,1.44.85,2.08-.15C145.44,181.58,145.78,181.68,145.8,181.77Z"/><polygon points="145.24 26.73 145.24 26.74 145.23 26.74 145.24 26.73"/><path d="M144,30.4l-.34.44-.51-.78.12-.11Z"/><path class="cls-6" d="M142.55,161.27c.5.4,1.06,1.36.89,1.78-.27.66-1.13,1.07-1.82,1.65a19.72,19.72,0,0,1-3.14-1.37,1.25,1.25,0,0,1-.45-1.85,2.25,2.25,0,0,1,2.21-1.22A5,5,0,0,1,142.55,161.27Z"/><polygon points="143.34 181.74 143.34 181.75 143.33 181.75 143.34 181.74"/><path d="M143.34,181.73h0v0Z"/><path d="M141.69,48.7c.23.22.53.41.5.5a2.14,2.14,0,0,1-.45.61c-.16-.18-.39-.35-.45-.56S141.51,48.93,141.69,48.7Z"/><path d="M140,49.61c.17,0,.41.19.75.38l-.78.74c-.14-.19-.4-.39-.39-.58A.69.69,0,0,1,140,49.61Z"/><path d="M140,180.93l-.75,1.3c0-.47,0-1,0-1.43Z"/><path class="cls-4" d="M140,185.79c-.11.37-.15.52-.19.67-.13.57-.26,1.14-.38,1.71a8,8,0,0,1-1.63-1.29,45.7,45.7,0,0,1-6.93-13.37c-1.18-3.55-2.45-7.07-3.7-10.59-.7-2-1.46-3.9-2.15-5.87-.88-2.56-1.76-5.12-2.53-7.71-.14-.47.32-1.12.51-1.69.19.07.52.09.57.22.2.51.3,1.06.47,1.58.87,2.7,1.72,5.41,2.66,8.09s2,5.5,3.12,8.23c.83,2.11,1.86,4.15,2.54,6.31,1,3.21,2.83,6,4.43,8.87.76,1.38,1.77,2.61,2.65,3.92C139.72,185.21,139.91,185.57,140,185.79Z"/><path d="M139.53,48.74c-.35.18-.57.38-.8.39s-.33-.25-.5-.39c.18-.19.35-.51.54-.53S139.19,48.49,139.53,48.74Z"/><path d="M138.89,51.67c-.17.24-.29.52-.37.52a.88.88,0,0,1-.55-.32c-.27-.44-.49-.92-.72-1.39.17-.06.44-.23.49-.18C138.14,50.74,138.51,51.21,138.89,51.67Z"/><path d="M137.74,177.15c0,.11-.2.38-.41.73-.29-.32-.58-.49-.58-.66s.25-.41.38-.62C137.34,176.78,137.62,176.92,137.74,177.15Z"/><path d="M137.15,43.81c.16.31.32.49.28.56a5.84,5.84,0,0,1-.55.68c-.12-.15-.37-.35-.33-.44A3.56,3.56,0,0,1,137.15,43.81Z"/><path d="M136.61,52s-.19.23-.29.36l-.47.35a3.25,3.25,0,0,1-.25-.88c0-.15.38-.44.43-.41A2.28,2.28,0,0,1,136.61,52Z"/><path d="M136.41,42.79l.57.55c-.3.14-.48.3-.65.3s-.35-.28-.32-.36A2,2,0,0,1,136.41,42.79Z"/><path d="M136.38,174.2c.09-.05.32.19.58.35l-.66.74c-.18-.18-.53-.42-.49-.53A1.15,1.15,0,0,1,136.38,174.2Z"/><path d="M135.84,46.48c.08,0,.37.23.36.33s-.19.38-.37.68c-.2-.26-.45-.44-.43-.6S135.66,46.55,135.84,46.48Z"/><path d="M136.19,53.76a2.54,2.54,0,0,1-.52.55c-.06,0-.27-.21-.41-.33.13-.16.24-.37.41-.45S136,53.65,136.19,53.76Z"/><path d="M135.23,43.84c.23.47.43.69.41.87s-.24.42-.37.62c-.14-.16-.36-.3-.4-.49S135,44.47,135.23,43.84Z"/><path d="M135.48,49.23h0s0,0,0,0Z"/><path d="M135.48,49.23l0,0h0Z"/><path d="M135.49,52.89c-.37.16-.63.37-.8.31a2.67,2.67,0,0,1-.76-.53c.19-.21.5-.64.57-.6A5.53,5.53,0,0,1,135.49,52.89Z"/><path d="M134.4,49.5a3.53,3.53,0,0,1,1-.23A18.6,18.6,0,0,1,134,51.2c-.13.14-.66-.1-1-.17a7.74,7.74,0,0,1,.55-.73A3.52,3.52,0,0,1,134.4,49.5Z"/><path d="M134.89,48c-.19.16-.36.39-.58.46a2.48,2.48,0,0,1-1.14.11,1,1,0,0,1-.64-.59,1.52,1.52,0,0,1,.16-.89,4.36,4.36,0,0,1,.46-.69l.44.68-.24.42a7.7,7.7,0,0,1,.84.16A4.59,4.59,0,0,1,134.89,48Z"/><path d="M134,55.28l-.65.5c-.1-.21-.2-.41-.31-.62s-.26-.51-.4-.76-.32-.41-.27-.53a1,1,0,0,1,.54-.51c.14,0,.45.18.53.35C133.66,54.17,133.79,54.66,134,55.28Z"/><path d="M133.44,44.78c.1.16.2.28.18.32a4.34,4.34,0,0,1-.33.42c-.07-.08-.21-.18-.21-.23A4.17,4.17,0,0,1,133.44,44.78Z"/><path d="M132.37,165.74l.37.46-1.05.47s0-.06,0-.08Z"/><path d="M132.14,51.55l.53.49c-.32.37-.58.68-.85,1-.1-.16-.33-.38-.29-.48A6.76,6.76,0,0,1,132.14,51.55Z"/><path d="M130.81,49.21l1.41.25a3.15,3.15,0,0,1-.56.48c-.72.35-.86-.14-.94-.69A.18.18,0,0,1,130.81,49.21Z"/><path d="M131.68,166.68h0v0S131.68,166.69,131.68,166.68Z"/><path d="M130.59,54.72l.8.36c-.07.13-.12.35-.21.37a3.87,3.87,0,0,1-.84.07c-.31,0-.62,0-.92,0a6.25,6.25,0,0,1-.76-.11,4.68,4.68,0,0,1,.12-.65,2.64,2.64,0,0,1,.36-.71,4,4,0,0,1,.55-.45c.15.24.32.46.44.7a2.27,2.27,0,0,1,.09.53Z"/><path d="M130.77,50.79c.17.13.51.32.48.38a6.63,6.63,0,0,1-.58,1.09c-.18-.28-.36-.44-.33-.53A6.65,6.65,0,0,1,130.77,50.79Z"/><path d="M130.57,177.72c0,.18-.2.43-.43.86a10,10,0,0,1-.51-1.38c0-.09.29-.25.45-.39A3.51,3.51,0,0,1,130.57,177.72Z"/><path d="M130.17,159.08a5.34,5.34,0,0,1-.16.87l-.42-.23c-.18-.09-.37-.16-.55-.23a4.39,4.39,0,0,1,.67-.57C129.81,158.86,130.18,159,130.17,159.08Z"/><path d="M129.77,57.18c.1,0,.3.24.63.54a9.37,9.37,0,0,1-1.69.7c-.22,0-.52-.36-.79-.56C128.54,57.62,129.14,57.37,129.77,57.18Z"/><path d="M129,159.49h0v0Z"/><path d="M128.54,170.21l0,0c-.2.28.31,1.19-.64.8-.27-.12-.41-.55-.61-.84Z"/><path d="M127.74,172.51c.14.33.31.53.28.69s-.26.32-.39.48c-.13-.17-.35-.35-.35-.52S127.51,172.82,127.74,172.51Z"/><path d="M127,59.38c.18.18.51.37.49.53s-.28.48-.57.92c-.2-.43-.41-.67-.38-.87S126.86,59.57,127,59.38Z"/><path d="M126.84,168.27c.16,0,.37.26.72.55-.39.19-.6.38-.81.37s-.44-.34-.41-.4C126.44,168.57,126.64,168.3,126.84,168.27Z"/><path d="M125.63,167.4c.12-.05.35.18.64.35l-.67.73c-.16-.18-.46-.37-.46-.56S125.42,167.48,125.63,167.4Z"/><path d="M126.15,164.52c-.39.2-.61.41-.79.38s-.33-.3-.49-.47c.18-.16.35-.45.55-.47S125.79,164.23,126.15,164.52Z"/><path d="M125.48,61.69c0,.22-.21.47-.5,1.05-.23-.56-.4-.78-.37-1s.25-.41.38-.62C125.17,61.33,125.46,61.5,125.48,61.69Z"/><path d="M124.77,160v0c-.15.21-.27.52-.47.6a.82.82,0,0,1-.71-.18.66.66,0,0,1,0-.59,1.27,1.27,0,0,1,.71-.09A1.94,1.94,0,0,1,124.77,160Z"/><path d="M124,163.16c.23.08.41.33.77.65l-.85.6a2,2,0,0,1-.37-.75C123.5,163.49,123.85,163.13,124,163.16Z"/><path d="M122.9,153.84l.23.68c-.1.06-.22.18-.3.16-.4-.08-.79-.19-1.17-.3,0-.13,0-.38.11-.39A10.64,10.64,0,0,1,122.9,153.84Z"/><path d="M121.87,157.85c.27.42.46.63.43.68a1.51,1.51,0,0,1-.53.48s-.38-.26-.35-.35A3.12,3.12,0,0,1,121.87,157.85Z"/><path d="M122.25,151.47l-.12.12-.07-.21Z"/><path d="M122.06,151.38l.07.21-.91.85c-.2-.25-.52-.49-.57-.77s.36-.54.6-.57A1.75,1.75,0,0,1,122.06,151.38Z"/><path d="M119.94,35.66a4.23,4.23,0,0,1,.37,3.06,6.18,6.18,0,0,1-2.88,3.89,11.35,11.35,0,0,1-10.17.82c-4-1.52-5.37-7.34-1.73-10.35,2-1.67,3.69-1.75,6.65-2A10.22,10.22,0,0,1,119.94,35.66ZM117,41.57c2.12-1.08,3.26-3.88,1.29-5.84a15.91,15.91,0,0,0-3.7-2.62,7.11,7.11,0,0,0-8.36,1.08,4.66,4.66,0,0,0,.2,7.05c1.55,1.3,3.34,1.71,6.08,1.85A25.92,25.92,0,0,0,117,41.57Z"/><path class="cls-2" d="M118.31,35.73c2,2,.83,4.76-1.29,5.84a25.92,25.92,0,0,1-4.48,1.52c-2.74-.14-4.53-.55-6.08-1.85a4.66,4.66,0,0,1-.2-7.05,7.11,7.11,0,0,1,8.36-1.08A15.91,15.91,0,0,1,118.31,35.73Z"/><path d="M115.52,186.27c-.17,2.94-1,5.06-2.94,6.49a7.92,7.92,0,0,1-5.22,1.08,7,7,0,0,1-5.37-2.33,6.77,6.77,0,0,1,.67-9.8c1.71-1.56,3.85-1.71,6.07-1.33a8,8,0,0,1,5.9,3.65A11.93,11.93,0,0,1,115.52,186.27Zm-4.72,5.89c2.35-.44,4.11-3.89,3.27-6.17-1.13-3.07-3.48-4.51-7.31-4.57a9.57,9.57,0,0,0-1.87.27c-3.44,1.14-4.39,6-1.8,8.79C105.24,192.78,108,192.68,110.8,192.16Z"/><path class="cls-2" d="M114.07,186c.84,2.28-.92,5.73-3.27,6.17-2.77.52-5.56.62-7.71-1.68-2.59-2.78-1.64-7.65,1.8-8.79a9.57,9.57,0,0,1,1.87-.27C110.59,181.48,112.94,182.92,114.07,186Z"/><path d="M89.54,16.69c0,2.25.31,4.51.15,6.74-.23,3.31-.68,6.61-1.18,9.88-.43,2.77-1,5.5-1.62,8.24-.46,2.12-.93,4.24-1.5,6.33q-1.07,4-2.33,7.92a9,9,0,0,1-1.29,2.39c-1.28,1.77-3.57,2-5.76.55a18.35,18.35,0,0,1-3.77-2.83,15.63,15.63,0,0,1-2.74-4.4C67.81,47.39,66.31,43.2,64.8,39c-1.28-3.56-2.37-7.2-3.73-10.73-1-2.6-2.37-5-3.46-7.62a14.91,14.91,0,0,1-1.37-6.27,15.88,15.88,0,0,0-1-4.34c-.58-2.22.09-3,2.33-2.59a17.15,17.15,0,0,1,7.49,3,1.27,1.27,0,0,0,.84.2c2.11-.21,4.23-.35,6.29-.76.8-.15,1.45-1,2.21-1.42,1.31-.77,2.63-1.55,4-2.21s1.71-.3,2,1a17.66,17.66,0,0,1,.16,1.78h-.07c0,.74-.3,1.82.06,2.14a6.92,6.92,0,0,0,2.71,1.21c1.3.4,2.7.53,4,1C89.24,14.22,89.57,15.22,89.54,16.69ZM88.42,26.82c.18-2.92.08-5.86,0-8.79A8.16,8.16,0,0,0,88,15.6c-.23-.68-.54-.67-1-.11a2.51,2.51,0,0,1-.25.21c-.06-.09-.16-.19-.16-.28,0-1.14-.8-1.08-1.54-1.14a4.48,4.48,0,0,0-.79-.46c-1.3-.41-1.39-.32-1.41,1a14.28,14.28,0,0,1-.1,2.26C81.89,21.76,81,26.4,80.1,31c-.64,3.09-1.45,6.15-2.15,9.23-.27,1.22-.32,2.51-.68,3.71-.5,1.65-1.18,3.24-1.8,4.86q-1.12,2.93-2.23,5.87c-.06.14-.1.41,0,.43,1.11.61,2.25,1.19,3.38,1.76,0,0,.09-.12.15-.15l.69-.31c0,.36.09.73.12,1.09,0,.2-.09.52,0,.58a2.59,2.59,0,0,0,3.2-.49,19.91,19.91,0,0,0,1.76-3.39A24.63,24.63,0,0,0,83.33,51c.72-2.78,1.46-5.55,2.15-8.33.41-1.67.74-3.37,1.07-5.06s.57-3.09.85-4.64A57,57,0,0,0,88.42,26.82ZM81.95,15.59C81.77,15,81.48,14,81.09,13c-.1-.27-.52-.41-.79-.61-.15.25-.27.51-.43.75-.79,1.2-1.33,2.71-2.41,3.52-1.89,1.43-3.92,2.88-6.53,2.66a2.5,2.5,0,0,0-.79.19c-1.74.49-3.49.95-5.22,1.49a4,4,0,0,1-3.68-.76,27.15,27.15,0,0,1-2.85-2.62c-.33-.3-.63-.63-.94-.94.06.52.07,1,.18,1.55a6.44,6.44,0,0,0,.47,1.08q2.4,5.61,4.81,11.2c.21.49.39,1,.59,1.49,0-.5,0-1,0-1.51a.86.86,0,0,1,0-.23c1-3.59,2.67-6.66,6.12-8.39.46-.23,1.5-.15,1.7.16a5.77,5.77,0,0,1,.74,2.46,7.26,7.26,0,0,1-2.71,6.7c-1.27,1.05-2.54,2.25-4.32,2.23-1.06,0-.92.36-.67,1.09,1.57,4.45,3.05,8.94,4.68,13.37a54.4,54.4,0,0,0,2.53,5.34c.14.27.54.41.82.61A3.92,3.92,0,0,0,73,53c.56-1.53,1-3.1,1.61-4.58a23.82,23.82,0,0,0,2.31-7.53,38.93,38.93,0,0,1,1.27-5.63c.52-2.26,1-4.53,1.48-6.8.31-1.55.53-3.12.81-4.68C80.91,21.21,81.39,18.67,81.95,15.59ZM79.25,11c-.1-.25-.17-.46-.25-.66l-1.48,2.17c.24.15.49.44.7.41C79.45,12.74,78.81,11.58,79.25,11Zm-.43-2.82A5.75,5.75,0,0,0,79,7.42a2.06,2.06,0,0,0-.79,0c-4.6,2-7,4.51-7.52,9.59a2.29,2.29,0,0,0,0,.27c0,.27.07.54.11.81l.48-.6a15.39,15.39,0,0,1,1.83-2.16A17.5,17.5,0,0,0,78.83,8.16Zm-1.44,7c.27-.17.37-.63.54-1-.31-.14-.73-.49-.91-.39a24.55,24.55,0,0,0-2.25,1.45c.09.09.18.24.28.26a5.55,5.55,0,0,0,.82,0c0,.05,0,.09,0,.13A6.55,6.55,0,0,0,77.38,15.19ZM75.24,16.9s-.09-.39-.15-.39c-1,0-2-.38-2.57.85l-.25.49.76.22C73.69,17.74,74.47,17.33,75.24,16.9ZM71,12.34c.38-1.23.48-1.2-.84-1.21h-.48s0-.08,0-.12c-.88.17-1.78.32-2.65.54a.7.7,0,0,0-.23.6c.59,1.23,1.23,2.43,1.84,3.65.26.53.45,1.09.7,1.62.06.12.23.18.35.26,0-.12.08-.24.11-.36C70.14,15.66,70.45,14,71,12.34ZM71,24.66a1.71,1.71,0,0,0-.15-.52,2.14,2.14,0,0,0-.36.38c-.41.76-.75,1.57-1.22,2.29-1,1.56-2.16,3.08-3.23,4.62a1.61,1.61,0,0,0-.21.54,2.19,2.19,0,0,0,.29.15,3.6,3.6,0,0,0,.44-.19c2.3-1.57,4.7-3.07,4.3-6.47C70.85,25.2,71,24.93,71,24.66ZM69.85,23.4s-.26-.33-.27-.32c-.51.35-1,.73-1.72,1.28.56.18,1,.45,1.12.35A6.22,6.22,0,0,0,69.85,23.4Zm-2.61-6.1a3.35,3.35,0,0,0,.64,0,2,2,0,0,0-.09-.55c-.7-1.36-1.39-2.71-2.12-4.05a3.59,3.59,0,0,0-.72-.68c-.08.32-.15.65-.18.78.1,1.26.18,2.32.3,3.37a.74.74,0,0,0,.39.52A17.63,17.63,0,0,0,67.23,17.3Zm1.26,9.06c-.35-.23-.86-.74-1-.65a8.9,8.9,0,0,0-1.57,1.38s.32.37.67.78ZM67,19.44a10.17,10.17,0,0,0,1.34-.54,8.66,8.66,0,0,0-1.4-.55C63,17.51,60,15.18,57.42,12.27a2.28,2.28,0,0,0-.55-.33c0,.21-.08.46,0,.63a33.24,33.24,0,0,0,2.2,4.17,7.44,7.44,0,0,0,5,3.36C65,19.9,66,19.7,67,19.44Zm-.49,9.84a.77.77,0,0,0-.3-.65c-.9-.21-1.46.49-1.45,1.91L65,31a1.94,1.94,0,0,0,.47-.32A11.19,11.19,0,0,0,66.53,29.28ZM63.77,12.35c.19-1.18-.54-1.61-1.32-2.06-.52-.3-.84-.18-.79.47A13.09,13.09,0,0,0,62,14c.24.68,1.09,1.14,1.67,1.7.12-.37.24-.74.3-.91A10.49,10.49,0,0,1,63.77,12.35Zm-3.11,1.32.19-.67c-.12-3.42-.29-3.69-2.57-4.2a3.53,3.53,0,0,0-1.16-.1c-.15,0-.41.44-.38.49q1.54,2,3.14,4A2.63,2.63,0,0,0,60.66,13.67Z"/><path d="M87.37,141.25c1.47.64,1.56,1.82,1.53,3.13,0,2.68-.08,5.36-.14,8.05,0,1.55-.16,3.1-.18,4.66,0,.94.22,1.89.19,2.83-.13,4.91-.3,9.81-.46,14.72,0,.72,0,1.43,0,2.15h0c0,2,.06,4,0,6s-.5,3.9-2.69,4.73l-.1.07c-2.44,2.64-5.66,2.4-8.76,2.24s-6.12-.54-9.16-1a27.46,27.46,0,0,1-4.78-1.28c-1-.35-1.6-1.89-1.45-3.33a16.48,16.48,0,0,0,.21-3c-.32-5.17,1.73-9.63,4.08-14,1.11-2.09,2.2-4.2,3.42-6.22,1.65-2.73,3.45-5.36,5.12-8.07s3.29-5.58,5-8.32a40.51,40.51,0,0,1,3.24-4.36,4.53,4.53,0,0,1,1.69-.92c.18-.08.61,0,.64.07C85.24,140.61,86.41,140.84,87.37,141.25Zm.36,4.13a3,3,0,0,0-1.49-3.32c-.22-.12-.53-.29-.72-.22s-.27.43-.28.67c0,1.28-.07,2.55,0,3.83,0,2.37.07,4.74.15,7.11,0,1.09.32,2.17.29,3.26-.06,2.48-.32,4.95-.34,7.43,0,3.2.12,6.39.18,9.59,0,.81,0,1.63,0,2.44a17.7,17.7,0,0,0,0,2.18c.24,1.6.57,3.18.86,4.77l-.18,0a2,2,0,0,0,0,.35c.06.54.13,1.08.2,1.62a6.41,6.41,0,0,0,.61-1.8q.27-10,.42-20c0-2.25-.08-4.5-.07-6.75,0-1.86.09-3.72.15-5.57S87.56,147.24,87.72,145.38ZM83.59,182.5c.64,0,1.47.27,1.35-.92-.18-.85-.35-1.69-.56-2.53a.54.54,0,0,0-.48-.15c-2.18,1.39-4.65,1.41-7.11,1.59a20.44,20.44,0,0,1-7.69-1.08c-2-.61-3.95-1.26-5.92-1.9l-.21,0a6.46,6.46,0,0,0-.31,1.47c0,.32.2.84.44.93,3.8,1.38,7.6,2.58,11.77,2.3A79.25,79.25,0,0,1,83.59,182.5ZM82.87,188c1.18-.15,2.07-.86,1.66-1.48s-1.32-.72-2-.79-1.27.41-1.92.42c-2.16.06-4.32.06-6.48,0a16,16,0,0,1-3.39-.37c-2.36-.57-4.67-1.3-7-1.93-.31-.08-.87-.07-1,.11a1.76,1.76,0,0,0,.93,2.35c4.69,1.49,9.55,1.89,14.77,2.26Zm.76-12.29c.69.17.65,0,.61-.62-.15-2.73-.27-5.47-.26-8.21,0-4,.2-8,.21-12,0-1.36-.47-2.74-.45-4.1,0-3,.29-6,.41-9a3.8,3.8,0,0,0-.37-1.17,3.25,3.25,0,0,0-.93.62c-.83,1.1-1.63,2.23-2.37,3.4-1.73,2.78-3.41,5.59-5.12,8.37-1.06,1.72-2.16,3.41-3.22,5.12-.16.25-.63.62.16.69a2.59,2.59,0,0,1,.67.25c-.13.24-.2.61-.39.69s-.73,0-.82-.11c-.5-.84-.64-.09-.79.17-1.18,2.13-2.37,4.27-3.5,6.43-.91,1.71-1.75,3.46-2.62,5.19,0,0,0,0,0,0-.35.76-.72,1.52-1,2.3-.69,1.78-.11,2.79,1.74,3.24,1.49.37,3,.77,4.44,1.19.63.18,1.15.38,1.72-.24.36-.39.84-.42.81.42a.89.89,0,0,0,.55.67,3.84,3.84,0,0,0,2.06.21c.75-.29,2.27.73,2.26-1.14,0-.11.44-.22.68-.33a5.13,5.13,0,0,0,.08.67c0,.24.08.63.21.68a4.58,4.58,0,0,0,3-1.06c.21-.22.78-.44.94-.33,1.11.74,1.34-.14,1.64-.85,0-.09-.19-.4-.34-.44a6.81,6.81,0,0,0-.9,0s-.11-.38-.09-.39C82.94,175.94,83.33,175.68,83.63,175.76Zm-.06,8.53a3.49,3.49,0,0,0-.83-.55c-.79-.23-1.59-.37-2.55-.59-.11.06-.46.17-.47.3a8.13,8.13,0,0,0,0,1.63c0,.11.3.28.45.27a.84.84,0,0,0,.56-.31c.09-.18,0-.46,0-.69a3.5,3.5,0,0,1,.27-.55,1.71,1.71,0,0,1,.47.3c.12.14.1.47.23.52a2.22,2.22,0,0,0,1.06.2C83.1,184.78,83.33,184.47,83.57,184.29Zm-4.91,1,.27-.88c-.06-1-.06-1-1.05-1.06a11,11,0,0,1-1.41-.06c-1.52-.22-1.54-.23-1.2,1.23.07.27.38.49.58.72.18-.21.37-.42.55-.64s.41-.52.62-.77a4.79,4.79,0,0,0,.59.68C77.92,184.79,78.29,185,78.66,185.29Zm-5.23-.18.84-.87c-.41-.43-.68-.73-.94-1-.16.26-.47.54-.43.76A4.18,4.18,0,0,0,73.43,185.11Zm-2.29-.42.77-.73-.8-.83c-.16.17-.49.38-.46.51A5,5,0,0,0,71.14,184.69Zm-2.26-.51c.08.05.63-.47.6-.53a8.63,8.63,0,0,0-.94-1.22c-.35.49-.66.83-.62.89A3.6,3.6,0,0,0,68.88,184.18Zm-2.49-.55c.09,0,.47-.4.43-.47-.27-.5-.6-1-1.08-1.71a4.22,4.22,0,0,0-.47.95C65.13,183.26,65.81,183.43,66.4,183.63Zm-1.75-1.52L64,181.4a3,3,0,0,0-.46.85c0,.14.3.35.46.53Z"/><path class="cls-4" d="M86.23,142.06a3,3,0,0,1,1.49,3.32c-.17,1.86-.16,3.75-.22,5.63s-.14,3.71-.15,5.57c0,2.25.11,4.5.07,6.75q-.15,10-.42,20a6.41,6.41,0,0,1-.61,1.8c-.07-.54-.14-1.08-.2-1.62a2,2,0,0,1,0-.35l.18,0c-.29-1.59-.62-3.17-.86-4.77a17.7,17.7,0,0,1,0-2.18c0-.81,0-1.63,0-2.44-.06-3.2-.2-6.39-.18-9.59,0-2.48.28-5,.34-7.43,0-1.09-.25-2.17-.29-3.26-.08-2.37-.12-4.74-.15-7.11,0-1.28,0-2.55,0-3.83,0-.24.12-.62.28-.67S86,141.94,86.23,142.06Z"/><path d="M86.85,18.25c0,.19-.18.38-.37.75a3.66,3.66,0,0,1-.35-.91c0-.09.24-.22.38-.33C86.63,17.92,86.84,18.08,86.85,18.25Z"/><path d="M86.35,20.89c.1,0,.45.32.42.38a6.34,6.34,0,0,1-.68,1c-.12-.45-.27-.7-.22-.91A.81.81,0,0,1,86.35,20.89Z"/><path d="M86.2,25c.06.19-.32.52-.49.79-.27-.39-.53-.79-.82-1.22l.52-.95A6.83,6.83,0,0,1,86.2,25Z"/><path d="M85.23,28.44c.27.33.53.53.49.63a5.48,5.48,0,0,1-.53,1c-.17-.22-.49-.45-.49-.66S85,28.85,85.23,28.44Z"/><path d="M85.69,27.25c0,.19,0,.25,0,.27s-.35.28-.47.24c-.65-.23-1.27-.52-1.91-.79A6.82,6.82,0,0,1,84,26,15.59,15.59,0,0,1,85.69,27.25Z"/><path d="M85.44,16.36s.38.26.68.49c-.5.61-.9,1.12-1.34,1.6a4.49,4.49,0,0,1-.54-.44A16.65,16.65,0,0,1,85.44,16.36Z"/><path d="M85,14.31a1.8,1.8,0,0,1,.15.65,3.57,3.57,0,0,1-.29.83c-.16-.09-.44-.17-.45-.28a2,2,0,0,1,.11-.91C84.62,14.46,84.88,14.4,85,14.31Z"/><path d="M85.06,14.3h0v0Z"/><path class="cls-4" d="M84.94,181.58c.12,1.19-.72.95-1.35.92a79.25,79.25,0,0,0-8.7-.33c-4.18.28-8-.92-11.77-2.3-.24-.09-.44-.61-.44-.93a6.46,6.46,0,0,1,.31-1.47l.21,0c2,.64,3.94,1.29,5.92,1.9a20.44,20.44,0,0,0,7.69,1.08c2.46-.18,4.93-.2,7.11-1.59a.54.54,0,0,1,.48.15C84.59,179.89,84.76,180.73,84.94,181.58Z"/><path d="M84.75,21.88c.16,0,.36.29.65.54-.3.24-.54.55-.66.51a.8.8,0,0,1-.49-.56C84.23,22.21,84.55,21.91,84.75,21.88Z"/><path d="M84.94,20.57a2.93,2.93,0,0,1-.36.76c-.26-.27-.55-.5-.52-.56a1.63,1.63,0,0,1,.53-.55S84.94,20.46,84.94,20.57Z"/><path d="M84.48,32.13l.7.62-.78.92c-.15-.24-.44-.5-.42-.73S84.3,32.4,84.48,32.13Z"/><path class="cls-4" d="M84.53,186.57c.41.62-.48,1.33-1.66,1.48l-4.46.57c-5.22-.37-10.08-.77-14.77-2.26A1.76,1.76,0,0,1,62.7,184c.1-.18.67-.19,1-.11,2.35.63,4.66,1.36,7,1.93a16,16,0,0,0,3.39.37c2.16.06,4.32.06,6.48,0,.65,0,1.29-.48,1.92-.42S84.2,186.06,84.53,186.57Z"/><path d="M85.1,31.06c-.23.18-.48.45-.54.41a1,1,0,0,1-.43-.53c0-.13.2-.32.31-.48Z"/><path d="M84.91,37.09l-.89.8c-.18-.25-.46-.48-.5-.75s.34-.51.55-.52S84.54,36.87,84.91,37.09Z"/><path d="M84.15,23.74c.13.16.36.33.36.5s-.23.35-.41.59c-.21-.24-.5-.47-.47-.57S84,23.91,84.15,23.74Z"/><path d="M83.39,29s.28.27.25.35a3.85,3.85,0,0,1-.48.73c-.18-.33-.41-.58-.36-.66A1.58,1.58,0,0,1,83.39,29Z"/><path d="M83.39,34.55l.65.61-.79.62c-.09-.19-.28-.41-.25-.58A2.44,2.44,0,0,1,83.39,34.55Z"/><path d="M83.12,40.58a1.78,1.78,0,0,1,.25.57c-.12.21-.25.57-.35.57a1.42,1.42,0,0,1-.8-.33A10.93,10.93,0,0,1,81,40a1.14,1.14,0,0,1-.12-.77c0-.11.48-.27.57-.2C82.06,39.54,82.59,40.06,83.12,40.58Z"/><path d="M83,167.91c.13-.06.37.15.73.31-.33.25-.51.47-.72.51s-.34-.19-.51-.3C82.68,168.25,82.82,168,83,167.91Z"/><path d="M83.07,31.57a3,3,0,0,1-.34.84c-.23-.37-.45-.57-.42-.7s.28-.4.42-.6C82.85,31.26,83.07,31.41,83.07,31.57Z"/><path d="M83.32,33.67c-.4.19-.64.4-.81.35s-.42-.33-.63-.5a2.22,2.22,0,0,1,.74-.45C82.77,33,83,33.36,83.32,33.67Z"/><path d="M82.45,172.83c.2,0,.39.3.75.62a4.42,4.42,0,0,1-1,.3c-.1,0-.35-.37-.31-.45S82.27,172.83,82.45,172.83Z"/><path d="M81.68,44.26c.16.32.53.75.44,1A7.55,7.55,0,0,1,81,46.53c-.14-.25-.43-.53-.38-.73a11.68,11.68,0,0,1,.67-1.59Z"/><path d="M82.07,37.73c0,.23-.15.5-.3.92l-.83-.94c.21-.15.4-.41.61-.42A.68.68,0,0,1,82.07,37.73Z"/><path d="M82.66,35.8c-.4.27-.61.52-.78.49s-.52-.28-.52-.44.26-.57.41-.57S82.24,35.53,82.66,35.8Z"/><path d="M81.86,43.23l-.38.39-.69-.88.19-.19Z"/><path d="M81.73,153.1c.11,0,.33.19.69.41-.37.21-.56.4-.77.41s-.35-.19-.53-.29A2.49,2.49,0,0,1,81.73,153.1Z"/><path d="M80.87,47.46l.69.92c-.35.25-.69.65-1.05.69s-.6-.42-.9-.65Z"/><path d="M80.94,160c.08-.05.33.19.69.42a5,5,0,0,1-1,.54c-.13,0-.33-.18-.5-.28A5.57,5.57,0,0,1,80.94,160Z"/><path d="M80.61,41.69c.13.28.25.57.38.86l-.19.19L80.18,42Z"/><path d="M81.29,169.78l-.9.62-.7-.68c.23-.18.49-.52.69-.49A2.83,2.83,0,0,1,81.29,169.78Z"/><path d="M80.38,164.47c.21,0,.44.31.8.6-.44.26-.71.54-1,.54s-.52-.45-.47-.63A.85.85,0,0,1,80.38,164.47Z"/><path d="M80.27,50.6c0,.36,0,.83-.15,1a1.73,1.73,0,0,1-1.06.4A5.6,5.6,0,0,1,77.52,52c-.2,0-.37-.31-.55-.48l.9-.47.2.34a9.07,9.07,0,0,1,1.19-.7A3.62,3.62,0,0,1,80.27,50.6Z"/><path d="M80.22,176.83c0,.14-.39.57-.46.54a6.31,6.31,0,0,1-1-.64l.79-.92A4.22,4.22,0,0,1,80.22,176.83Z"/><path d="M80.09,43.81c.16,0,.3.25.52.46-.26.24-.45.41-.63.59a2.31,2.31,0,0,1-.34-.71C79.62,44,79.94,43.8,80.09,43.81Z"/><path d="M79.7,173.92c0,.06-.24.44-.47.82l-1-.88c.23-.15.46-.44.67-.42A1.36,1.36,0,0,1,79.7,173.92Z"/><path d="M79.22,45.85c.2.25.47.46.43.56a3,3,0,0,1-.52.69l-.57-.5Z"/><path class="cls-7" d="M79,10.32c.08.2.15.41.25.66-.45.6.2,1.76-1,1.92-.21,0-.46-.26-.7-.41Z"/><path d="M78.81,48.28c0,.22.21.47.15.64a2.61,2.61,0,0,1-.53.68c-.17-.19-.43-.36-.47-.58s.25-.35.4-.53Z"/><path class="cls-8" d="M79,7.42a5.75,5.75,0,0,1-.19.74,17.5,17.5,0,0,1-5.7,7.19,15.39,15.39,0,0,0-1.83,2.16l-.48.6c0-.27-.08-.54-.11-.81a2.29,2.29,0,0,1,0-.27c.5-5.08,2.91-7.64,7.52-9.59A2.06,2.06,0,0,1,79,7.42Z"/><path d="M78.75,54.11c.22.14.23,1-.63.77a.68.68,0,0,0-.47,0,7.52,7.52,0,0,0-.8.5l-.72-1.3c0-.09,0-.21.08-.23a1.62,1.62,0,0,1,.74-.21A4.74,4.74,0,0,1,78.75,54.11Z"/><path d="M77.51,175.18c.08,0,.33.23.51.36l-.82.91c-.18-.3-.42-.55-.37-.62A2.1,2.1,0,0,1,77.51,175.18Z"/><path class="cls-7" d="M77.92,14.23c-.17.33-.27.79-.54,1a6.55,6.55,0,0,1-1.49.5s0-.08,0-.13a5.55,5.55,0,0,1-.82,0c-.1,0-.19-.17-.28-.26A24.55,24.55,0,0,1,77,13.84C77.2,13.74,77.61,14.09,77.92,14.23Z"/><path d="M76.91,172.93c0,.13-.11.26-.16.4a5.92,5.92,0,0,1-1,.41c-.08,0-.24-.29-.37-.46a5.13,5.13,0,0,1,.89-.59C76.45,172.63,76.7,172.84,76.91,172.93Z"/><path d="M76.63,168.24s.31.25.61.49a3.5,3.5,0,0,1-.82.5c-.14,0-.34-.21-.52-.32A5.12,5.12,0,0,1,76.63,168.24Z"/><path d="M76.26,156.27c.15,0,.37.24.77.53-.46.23-.72.46-.94.44s-.44-.31-.66-.47A3.31,3.31,0,0,1,76.26,156.27Z"/><path d="M75.81,162c.19,0,.44.31.78.58a3.45,3.45,0,0,1-.93.6c-.12,0-.51-.44-.47-.6A1,1,0,0,1,75.81,162Z"/><path d="M76,178.3l-.91.73-.77-.72c.26-.18.53-.51.78-.5S75.73,178.12,76,178.3Z"/><path class="cls-7" d="M75.09,16.51c.06,0,.17.38.15.39-.77.43-1.55.84-2.21,1.17l-.76-.22.25-.49C73.07,16.13,74.13,16.48,75.09,16.51Z"/><path d="M75.72,175.9l-.7.64a2.93,2.93,0,0,1-.55-.68c0-.09.31-.46.47-.46S75.37,175.66,75.72,175.9Z"/><path d="M73.78,176.47a2.06,2.06,0,0,1-.54.56c-.08.05-.33-.2-.63-.41.31-.23.49-.44.7-.49S73.62,176.35,73.78,176.47Z"/><path d="M72.47,167c.14-.05.35.13.75.3a3.65,3.65,0,0,1-.89.57c-.12,0-.32-.25-.48-.39A2.56,2.56,0,0,1,72.47,167Z"/><path d="M71.86,170.19c.2.27.48.48.45.64s-.32.35-.5.53a3.73,3.73,0,0,1-.5-.7A3.87,3.87,0,0,1,71.86,170.19Z"/><path d="M71.68,176.14c.07,0,.33.23.64.47a4.51,4.51,0,0,1-.86.47c-.06,0-.34-.3-.32-.34A1.76,1.76,0,0,1,71.68,176.14Z"/><path d="M71.23,173.56c.2.27.46.51.42.59a3.4,3.4,0,0,1-.57.57c-.13-.17-.38-.36-.35-.49S71,173.84,71.23,173.56Z"/><path d="M71.61,163.54c0,.24-.27.48-.56.93a8.77,8.77,0,0,1-.47-1.24c0-.05.39-.32.48-.27S71.59,163.33,71.61,163.54Z"/><path class="cls-8" d="M70.87,24.14a1.71,1.71,0,0,1,.15.52c0,.27-.17.54-.14.8.4,3.4-2,4.9-4.3,6.47a3.6,3.6,0,0,1-.44.19,2.19,2.19,0,0,1-.29-.15,1.61,1.61,0,0,1,.21-.54c1.07-1.54,2.19-3.06,3.23-4.62.48-.72.82-1.53,1.22-2.29A2.14,2.14,0,0,1,70.87,24.14Z"/><path d="M69.86,174.89c.06.17.22.38.16.5a4.23,4.23,0,0,1-.51.71c-.11-.14-.32-.3-.31-.42a2.5,2.5,0,0,1,.32-.63Z"/><path class="cls-7" d="M69.58,23.08s.3.28.27.32A6.22,6.22,0,0,1,69,24.71c-.1.1-.57-.17-1.12-.35C68.59,23.81,69.07,23.43,69.58,23.08Z"/><path d="M69.69,166.63c.17,0,.34.35.67.7a3.27,3.27,0,0,1-1,.22c-.13,0-.35-.41-.32-.45C69.22,166.89,69.46,166.64,69.69,166.63Z"/><path d="M68.68,171.11a4.72,4.72,0,0,1,.54.5l-2.11,1.73c-.07-.3-.22-.62-.14-.71A22.42,22.42,0,0,1,68.68,171.11Z"/><path d="M67.67,168.76l.27.42c-.25.09-.52.28-.76.24s-.39-.31-.58-.48c.18-.17.34-.41.56-.48S67.5,168.65,67.67,168.76Z"/><path class="cls-7" d="M67.87,17.33a3.35,3.35,0,0,1-.64,0,17.63,17.63,0,0,1-1.78-.58.74.74,0,0,1-.39-.52c-.12-1-.2-2.11-.3-3.37,0-.13.1-.46.18-.78a3.59,3.59,0,0,1,.72.68c.73,1.34,1.42,2.69,2.12,4.05A2,2,0,0,1,67.87,17.33Z"/><path class="cls-7" d="M67.48,25.71c.16-.09.67.42,1,.65l-1.92,1.51c-.35-.41-.67-.76-.67-.78A8.9,8.9,0,0,1,67.48,25.71Z"/><path class="cls-8" d="M68.36,18.9a10.17,10.17,0,0,1-1.34.54c-1,.26-2,.46-2.89.66a7.44,7.44,0,0,1-5-3.36,33.24,33.24,0,0,1-2.2-4.17c-.09-.17,0-.42,0-.63a2.28,2.28,0,0,1,.55.33C60,15.18,63,17.51,67,18.35A8.66,8.66,0,0,1,68.36,18.9Z"/><path d="M67.21,175.63c.24,0,.47.23,1,.5-.52.26-.77.48-1,.47s-.43-.32-.43-.5A.68.68,0,0,1,67.21,175.63Z"/><path d="M66.84,173.58a4.35,4.35,0,0,1,.4.44,2.2,2.2,0,0,1-.62.6c-.06,0-.31-.25-.47-.39Z"/><path class="cls-7" d="M66.23,28.63a.77.77,0,0,1,.3.65,11.19,11.19,0,0,1-1.08,1.4A1.94,1.94,0,0,1,65,31l-.2-.46C64.77,29.12,65.32,28.42,66.23,28.63Z"/><path d="M66.08,171.58l-.37.55-.86-.65c.06,0,.13-.1.19-.09Z"/><path d="M64.58,174.67c.11,0,.32.21.6.41-.29.25-.47.53-.68.54s-.33-.3-.5-.47C64.19,175,64.35,174.75,64.58,174.67Z"/><path class="cls-7" d="M62.45,10.29c.79.45,1.51.88,1.32,2.06A10.49,10.49,0,0,0,64,14.82c-.06.17-.18.54-.3.91-.58-.56-1.43-1-1.67-1.7a13.09,13.09,0,0,1-.35-3.27C61.62,10.11,61.93,10,62.45,10.29Z"/><path class="cls-7" d="M60.85,13l-.19.67a2.63,2.63,0,0,1-.79-.46q-1.61-2-3.14-4c0-.05.23-.47.38-.49a3.53,3.53,0,0,1,1.16.1C60.56,9.31,60.73,9.58,60.85,13Z"/><path class="cls-2" d="M49,52.76c-.15,4.25-2.17,6.59-6.54,7a8.36,8.36,0,0,1-8.15-3.92,4.38,4.38,0,0,1-.56-4.06c.72-2.1,1.55-4.32,4-4.66,3.3-.46,6.68-.58,9.53,1.8A5.22,5.22,0,0,1,49,52.76Zm-1.94,3.68c2.57-4.11-.49-7.5-3.85-8.15-.91-.18-1.86-.2-2.79-.29-2.19,0-2.2,0-4.07,1.44a4.56,4.56,0,0,0-1,5.47A7.56,7.56,0,0,0,43,58.59,5.19,5.19,0,0,0,47.08,56.44Z"/><path class="cls-2" d="M43.23,48.29c3.36.65,6.42,4,3.85,8.15a5.19,5.19,0,0,1-4,2.15,7.56,7.56,0,0,1-7.67-3.68,4.56,4.56,0,0,1,1-5.47C38.24,48,38.25,47.95,40.44,48,41.37,48.09,42.32,48.11,43.23,48.29Z"/><path d="M30.41,77.39c.33,1.11.76,2.43-.33,3.58-.29.3-.11,1-.15,1.59-.11,1.58-.18,3.16-.35,4.74A6.91,6.91,0,0,1,29,89.45a1.3,1.3,0,0,1-2,.69c-1.62-.92-3.18-2-4.86-2.75-4.55-2.15-7.88-5.77-11.29-9.3-2-2-3.85-4.14-5.83-6.16-1.27-1.29-3.84-5.81-3.85-7.12l1.4-6.18a14.81,14.81,0,0,0,.7-3.34c0-1.69,1-2.76,2-3.77a68.63,68.63,0,0,1,5.45-5,13.66,13.66,0,0,1,3.16-2.21c1.74-.79,2.91-.39,3.63,1,1.45,2.88,2.94,5.74,4.24,8.7,1.85,4.27,3.63,8.58,5.27,12.94C28.29,70.37,29.4,73.87,30.41,77.39ZM29,79.73c.65-.44.62-.86.48-1.47A77.55,77.55,0,0,0,25.2,65.44c-.67-1.55-1.31-3.11-2-4.67-.08-.18-.25-.45-.4-.46-.91-.05-1-.15-.92-1a7.88,7.88,0,0,1,.24-1,2.23,2.23,0,0,0-.1-.61c-1.44-3.24-2.76-6.55-4.4-9.7s-2.14-3.2-4.85-1.68a2.6,2.6,0,0,0-.48.34C9.86,48.85,7.38,51,5,53.31c-.33.32-.25,1.32,0,1.89s.88,1.1,1.26,1.7c2.17,3.42,5.17,6.08,7.9,9,.09.1.43,0,.65,0l1.67-.22c0,.48.14,1.09-.09,1.44-.41.61-.32.88.19,1.37,1.55,1.52,3,3.15,4.52,4.7q3.19,3.24,6.47,6.4A1,1,0,0,0,29,79.73Zm-.71,8.5c.19-1.48.37-3,.55-4.43h-.09c0-.56.18-1.2,0-1.64s-.83-.68-1.26-1A3.58,3.58,0,0,0,27,82.23c-.12,1.64-.19,3.29-.23,4.93A2.56,2.56,0,0,0,27,88.51c.16.26.66.3,1,.44A3.9,3.9,0,0,0,28.29,88.23Zm-2.25-6a3.27,3.27,0,0,0-1.6-3.71,4.19,4.19,0,0,0-.48-.23,2,2,0,0,0-.14.43l-.27,3.77h.08c0,.79,0,1.58,0,2.38a2.84,2.84,0,0,0,1.53,2.81c.19.1.4.17.6.26a3.31,3.31,0,0,0,.14-.68A28.32,28.32,0,0,1,26,82.21Zm-3.23-2.76c.16-1.52.08-2.84-1.34-3.81A8.58,8.58,0,0,1,20,74c0,.86-.1,1.72-.13,2.58,0,.19.09.39.1.58.17,2.4.32,4.8.48,7.2.12.62,1.14,1.58,1.8,1.38.21-.06.33-.75.35-1.16C22.67,82.86,22.64,81.15,22.81,79.45Zm-3.52,3.91c0-.52-.15-1-.16-1.56,0-2.79,0-5.57-.16-8.36a3.48,3.48,0,0,0-.76-1.74,6.62,6.62,0,0,0-1.38-1.25c-.48-.39-.81-.3-.81.38,0,.91,0,1.83,0,3.19.08,1.52.28,3.5.25,5.47a4.71,4.71,0,0,0,2.37,4.14C19.13,84,19.29,83.8,19.29,83.36Zm-4.08-2.91a1,1,0,0,0,.13-.4c0-.83-.15-1.66-.15-2.49,0-2.36.1-4.72,0-7.08a5.72,5.72,0,0,0-.76-2.5,9.47,9.47,0,0,0-1.68-1.79c-.1-.11-.23-.21-.34-.31a1.86,1.86,0,0,0-.21.49c-.13,2-.24,4-.35,5.94H12c0,1.19,0,2.39,0,3.58a3.44,3.44,0,0,0,.4,1.8,25.94,25.94,0,0,0,2.45,2.58A.93.93,0,0,0,15.22,80.45ZM11.29,66.23c.23-1.41-.47-2-1.08-2.77A2.27,2.27,0,0,0,9.46,63a3.22,3.22,0,0,0-.32.86C9,66,8.92,68.06,8.82,70.14H8.9A13.21,13.21,0,0,0,9,73.59c.24.83,1.13,1.48,1.74,2.21a14.43,14.43,0,0,0,.42-2.23C11.2,71.12,10.89,68.62,11.29,66.23ZM8.13,64.5c.22-1.82.26-3.4-1.26-4.65a3.87,3.87,0,0,1-.39-.42,3.61,3.61,0,0,0-.23.59,33.06,33.06,0,0,0-.85,9.45C5.3,70.88,6.52,71.24,7,72.07c.12.22.41.34.62.51a4.27,4.27,0,0,0,.22-.85C7.93,69.32,7.84,66.89,8.13,64.5ZM5.36,58.43c.06-.6-.63-1.27-1-1.9-.18.47-.36,1-.55,1.42a1.19,1.19,0,0,0-.08.22c-.47,2.12-.92,4.23-1.44,6.62.43,1,.91,2.12,1.42,3.25,0,.1.21.23.26.2s.25-.17.25-.28a22,22,0,0,1,.07-2.43C4.65,63.16,5.14,60.81,5.36,58.43Z"/><path class="cls-9" d="M29.47,78.26c.14.61.17,1-.48,1.47a1,1,0,0,1-1.43-.2q-3.28-3.15-6.47-6.4c-1.53-1.55-3-3.18-4.52-4.7-.51-.49-.6-.76-.19-1.37.23-.35.07-1,.09-1.44l-1.67.22c-.22,0-.56.15-.65,0-2.73-2.91-5.74-5.57-7.9-9-.38-.6-1-1.07-1.26-1.7s-.29-1.57,0-1.89c2.36-2.29,4.83-4.46,7.27-6.67a2.6,2.6,0,0,1,.48-.34C15.49,44.78,16,44.83,17.62,48s3,6.46,4.4,9.7a2.23,2.23,0,0,1,.1.61,7.88,7.88,0,0,0-.24,1c-.11.86,0,1,.92,1,.15,0,.32.28.4.46.68,1.56,1.32,3.12,2,4.67A77.55,77.55,0,0,1,29.47,78.26ZM28,77c-.49-.43-.8-.84-.93-.79a4.45,4.45,0,0,0-1.1.72c.28.22.54.6.84.63S27.47,77.31,28,77Zm-1.61-4.15c.09-.25-.4-1-.61-1-.42,0-.83.4-1.55.81.56.55.91,1.1,1.11,1A1.65,1.65,0,0,0,26.42,72.87Zm-1.94-5.34c-.34-.39-.57-.66-.81-.92a4.92,4.92,0,0,0-.8,1.18c-.06.2.37.55.58.83Zm-3.16,3.8c.3-.35.83-.7.82-1.05s-.44-.87-.7-1.31L20,70Zm-.55-5.93,1.45-1.33c-.73-.44-1.11-.86-1.5-.85s-1,.62-.9.76A6.83,6.83,0,0,0,20.77,65.4Zm-4.1-12c.64.22,1.49-.88,1.47-2-.23-.18-.66-.75-1-.72-.76.07-1.77.3-1.6,1.38A2,2,0,0,0,16.68,53.39Zm2.48,5.15c-.64-.31-1-.61-1.25-.58s-.52.42-.78.66c.23.2.48.59.69.57A4.68,4.68,0,0,0,19.15,58.54Zm-4.52,1.63c-.39-.41-.79-1.19-1.16-1.18-1.12,0-.94,1.24-1.28,2,0,.12.48.75.75.75A1.5,1.5,0,0,0,14.63,60.17Zm-1.06-6c0-.3-.42-.61-.66-.91L12.4,53c-.16.34-.52.75-.43,1a4.19,4.19,0,0,0,.9,1.09C13.13,54.82,13.56,54.52,13.57,54.21Zm-.07-4.26c-.48-.25-.75-.5-.86-.44a3.1,3.1,0,0,0-.7.66c.16.13.35.4.48.37A6.19,6.19,0,0,0,13.5,49.95ZM9.81,55.43c-.64-.6-1.22-1.34-1.38-1.26A2.66,2.66,0,0,0,7.09,55.5a1,1,0,0,0,1.2,1.26C8.79,56.63,9.16,56,9.81,55.43Z"/><path d="M27.1,76.23c.14,0,.45.36.93.79-.57.29-.9.6-1.2.56s-.56-.41-.84-.63A4.45,4.45,0,0,1,27.1,76.23Z"/><path d="M25.82,71.87c.21,0,.7.75.61,1a1.65,1.65,0,0,1-1,.86c-.2,0-.56-.5-1.11-1C25,72.27,25.4,71.9,25.82,71.87Z"/><path class="cls-10" d="M23.18,136c1.91.56,2.49,1.83,1.76,3.86-1.3,3.63-5.2,4.51-7.93,1.73a5.55,5.55,0,0,1-.78-1.92,3.5,3.5,0,0,1,1.57-2.74A6.54,6.54,0,0,1,23.18,136Zm.46,4.85c.87-1.13.75-3.08-.29-3.43a18.86,18.86,0,0,0-2.12-.48,7.7,7.7,0,0,0-1.57.3,2.61,2.61,0,0,0-1.92,2.17c-.13,1.29.88,1.55,1.7,2a3.6,3.6,0,0,0,1.09.4A3,3,0,0,0,23.64,140.83Z"/><path class="cls-2" d="M23.35,137.4c1,.35,1.16,2.3.29,3.43a3,3,0,0,1-3.1.94,3.6,3.6,0,0,1-1.09-.4c-.82-.43-1.83-.69-1.7-2a2.61,2.61,0,0,1,1.92-2.17,7.7,7.7,0,0,1,1.57-.3A18.86,18.86,0,0,1,23.35,137.4Z"/><path d="M23.68,66.61c.24.26.47.53.81.92l-1,1.09c-.21-.28-.64-.63-.58-.83A4.92,4.92,0,0,1,23.68,66.61Z"/><path d="M23.66,121.14c.26,3.51-2.12,5.6-6,6.33-2.68.51-6.35-2.35-7-5.3-.26-1.3,1.15-5.21,2.2-5.3,1.79-.16,3.12-1.53,4.84-1.51a8.45,8.45,0,0,1,3.42.53C23.37,116.9,23.52,119.06,23.66,121.14Zm-1.14.56a6.24,6.24,0,0,0,0-1.43c-.14-.61-.44-1.18-.64-1.78-.42-1.22-2.39-2.48-3.58-2.06a24.45,24.45,0,0,0-4.61,2,3,3,0,0,0-1.27,4.18c1.43,3.15,3.91,4.23,7.15,3.1C21.94,124.92,22.54,124.1,22.51,121.7Z"/><path d="M21.49,96.48a6.45,6.45,0,0,1,1.22,7.43c-1.51,2.76-6,5-8.76,4A11.83,11.83,0,0,1,8.3,103.5c-.5-.74-.41-1.89-.59-2.85A8,8,0,0,1,10,94.82a4.66,4.66,0,0,1,3.89-1.4A12,12,0,0,1,21.49,96.48ZM16.58,107.1c3.25-.61,6-2.1,5.73-5.56a5.7,5.7,0,0,0-1.71-4.4c-2.23-2.22-5.06-2.65-8-2.62a3.21,3.21,0,0,0-1.95,1,6.55,6.55,0,0,0-.47,8.5,21.89,21.89,0,0,0,2.51,2A4.44,4.44,0,0,0,16.58,107.1Z"/><path class="cls-2" d="M22.49,120.27a6.24,6.24,0,0,1,0,1.43c0,2.4-.58,3.22-3,4-3.24,1.13-5.72.05-7.15-3.1a3,3,0,0,1,1.27-4.18,24.45,24.45,0,0,1,4.61-2c1.19-.42,3.16.84,3.58,2.06C22.06,119.09,22.36,119.66,22.49,120.27Z"/><path class="cls-2" d="M22.31,101.54c.3,3.46-2.48,5-5.73,5.56A4.44,4.44,0,0,1,12.7,106a21.89,21.89,0,0,1-2.51-2,6.55,6.55,0,0,1,.47-8.5,3.21,3.21,0,0,1,1.95-1c2.92,0,5.76.4,8,2.62A5.7,5.7,0,0,1,22.31,101.54Z"/><path d="M22.14,70.28c0,.35-.52.7-.82,1.05L20,70,21.44,69C21.7,69.41,22.14,69.84,22.14,70.28Z"/><path d="M22.23,64.07,20.77,65.4a6.83,6.83,0,0,1-1-1.42c0-.14.58-.76.9-.76S21.5,63.63,22.23,64.07Z"/><path d="M18.15,51.39c0,1.12-.84,2.22-1.47,2A2,2,0,0,1,15.53,52c-.17-1.08.85-1.31,1.6-1.38C17.49,50.64,17.92,51.21,18.15,51.39Z"/><path d="M17.9,58c.29,0,.62.27,1.25.58a4.68,4.68,0,0,1-1.34.65c-.21,0-.46-.37-.69-.57C17.38,58.38,17.62,58,17.9,58Z"/><path d="M13.47,59c.38,0,.78.77,1.16,1.18a1.5,1.5,0,0,1-1.7,1.54c-.27,0-.8-.63-.75-.75C12.52,60.23,12.34,59,13.47,59Z"/><path d="M12.91,53.3c.24.3.67.61.66.91s-.44.61-.69.92A4.19,4.19,0,0,1,12,54c-.09-.24.27-.65.43-1Z"/><path d="M12.63,49.51c.12-.06.39.19.86.44a6.19,6.19,0,0,1-1.08.59c-.13,0-.32-.24-.48-.37A3.1,3.1,0,0,1,12.63,49.51Z"/><path d="M8.43,54.17c.16-.08.75.66,1.38,1.26-.65.59-1,1.2-1.51,1.33a1,1,0,0,1-1.2-1.26A2.66,2.66,0,0,1,8.43,54.17Z"/><path class="cls-11" d="M49,52.76c-.15,4.25-2.17,6.59-6.54,7a8.36,8.36,0,0,1-8.15-3.92,4.38,4.38,0,0,1-.56-4.06c.72-2.1,1.55-4.32,4-4.66,3.3-.46,6.68-.58,9.53,1.8A5.22,5.22,0,0,1,49,52.76Z"/><path class="cls-12" d="M33.24,171.62c-.13.29-.25.58-.37.87a2.2,2.2,0,0,1-.17.45c-.58.84-1.22.9-2.16.34-1.19-.72-2.47-1.3-3.63-2.08-1.7-1.14-3.34-2.38-5-3.62a43.06,43.06,0,0,1-4.9-4,12.53,12.53,0,0,1-2.15-3.71c-1-2.31-.93-2.43,1.5-3.32a3.48,3.48,0,0,1,1.58-.43c.76.15,1.59.5.92,2,0,.85-.05,2,0,3.23A1.73,1.73,0,0,0,21.12,163c.7-.1,1.42-.12,2.13-.19s.95.38.9,1a17.51,17.51,0,0,0-.13,1.91,1.58,1.58,0,0,0,1.62,1.57,6.1,6.1,0,0,0,2.33-.23c1.57-.51,2.66,0,2.63,2,0,.78-.33,1.58.35,2.33.43.47.76.73,1.39.4A2.88,2.88,0,0,1,33.24,171.62Z"/><path d="M56.75,145.6c.22,1,.31,2,.41,2.69a11.89,11.89,0,0,1-1.71,5.63c-1.05,1.85-2.07,3.72-3.16,5.55-.82,1.35-1.73,2.65-2.61,4-1.26,1.86-2.51,3.71-3.8,5.55-1.18,1.67-2.39,3.32-3.61,5s-2.27,3.16-3.55,4.62a49,49,0,0,1-4,3.9c-.7.63-1.38.34-2.09-.25a5.45,5.45,0,0,0-2-.83c-1.24-.35-2.53-.52-3.75-.93-2.49-.84-5-1.71-7.41-2.72a18,18,0,0,1-3.66-2.15,36.9,36.9,0,0,1-3.73-3.23A3.47,3.47,0,0,1,11.2,169a1.73,1.73,0,0,0,0-.6c-.3-2.06.32-4,.73-6a26.37,26.37,0,0,0,.67-3.94A2.7,2.7,0,0,1,14.9,156c2.41-.67,4.41-2.12,6.6-3.2.83-.41,1.76-.64,2.58-1.06,1.81-.94,3.6-1.91,5.37-2.93a76.56,76.56,0,0,1,13.07-5.63c3.35-1.18,6.69-2.33,10-3.69,2-.82,3.07,0,3.25,2.07A35.26,35.26,0,0,0,56.75,145.6ZM56,148.87c-.35-1.53-.66-2.89-1-4.25,0-.16-.18-.29-.28-.43l-.24.36c-.86,1.33-1.68,2.68-2.58,4-2.81,4.08-5.63,8.17-8.49,12.22-1.38,2-2.82,3.87-4.29,5.76-2,2.51-4,5-6,7.49a2,2,0,0,0-.18,1.58c.48,1.55,1.49,3,.9,4.75a3.22,3.22,0,0,0,0,.88A5,5,0,0,0,35,181a1.88,1.88,0,0,0,.58-.58c1.09-1.33,2.2-2.66,3.27-4,1.43-1.82,2.89-3.62,4.25-5.5S45.7,167,47,165.06c2.59-4,5.21-8,7.67-12.15A20.23,20.23,0,0,0,56,148.87Zm-2.06-7.16c.11-.37.32-.87.17-1.09a1.15,1.15,0,0,0-1.06-.25c-1.88.69-3.74,1.45-5.59,2.21-.12,0-.2.21-.29.32a1.53,1.53,0,0,0,.39.18c1.44.28,1.95.85,1.88,2.15-.31.59-.08.73.54.69a1.86,1.86,0,0,1,1.1.19c.75.47,1.15.23,1.44-.5.1-.26.32-.46.41-.72C53.28,143.84,53.62,142.77,53.94,141.71ZM50.2,149c.74-1.29.42-1.95-1.06-1.93-1,0-1.14-.4-1.08-1.22s0-1.63-1-1.74c-1.34-.15-2.69-.85-4.06-.08-.2.11-.4.2-.61.3.18.14.34.28.52.41.61.41,1.45.68,1.78,1.25a4,4,0,0,1,.24,2.23c-.07.7.14,1.25.76,1.13A3.93,3.93,0,0,1,49,150c.09.07.2.11.39.22C49.65,149.8,50,149.4,50.2,149Zm-2.7,4c.82-1.66.23-2.64-1.6-2.65h-.48c-1.88-.05-2.45-.83-1.65-2.51a1,1,0,0,0-.38-1.47c-1-.66-2-1.38-3.27-1.09a16.25,16.25,0,0,0-2.49.93,5.2,5.2,0,0,0-.69.38c.22.09.44.19.67.26.6.17,1.22.29,1.81.51,1.71.62,1.93,1.07,1.45,2.82s-.23,1.92,1.59,1.69c.19,0,.38,0,.65,0,1.45-.14,2.34.2,2.65,1.06.21.55.4,1.11.59,1.67.36-.51.71-1,1.07-1.52C47.44,153.06,47.48,153,47.5,153Zm-3,2.5c.19-1.95-.22-2.54-2.19-2.54L42,153s0,.06,0,.09c-.66-.1-1.33-.17-2-.3-.9-.16-1.19-.68-.82-1.54.12-.29.19-.6.3-.89.53-1.43.34-1.51-.95-2.07a2.75,2.75,0,0,0-.79-.23,26.68,26.68,0,0,0-3.55-.29c-.55,0-1.09.53-1.63.82l1.61.66c1.44.6,1.9,1.35,1.63,2.71a9.36,9.36,0,0,0-.32,1.61c0,.31.32.85.56.9a30.63,30.63,0,0,0,3.7.45,2.16,2.16,0,0,1,2.15,1.35,28.53,28.53,0,0,1,.79,2.92,4.18,4.18,0,0,1,.06.51l.33-.37A6.42,6.42,0,0,0,44.55,155.51Zm-4.26,7.58a6,6,0,0,0-.08-6.54,1.65,1.65,0,0,0-.74-.57c-1.29-.24-2.59-.41-3.89-.59-.78-.11-1.54-.23-1.38-1.32.1-.73.15-1.48.31-2.19a1.18,1.18,0,0,0-1-1.6c-1-.08-1.93-.14-2.9-.13a3.38,3.38,0,0,0-1.22.34c-.19.07-.32.3-.47.45a3.52,3.52,0,0,0,.61.18c2.05.21,3,1.17,3.21,3.29.21,2,1,3,3.17,3s3.3,1.2,3.2,3.79c.08.44.19,1.14.35,1.82S39.91,163.55,40.29,163.09ZM39,164.71a.76.76,0,0,0,0-.45c-1.23-.14-1.05-1.16-1.19-1.94a5.1,5.1,0,0,1,0-1.56c.17-1.23-1-2.26-2.65-2.29-1.94,0-3.58-1-3.6-3.11,0-2.64-1.72-3.76-4.3-3a1.32,1.32,0,0,1-.88-.09c-.11-.68-.45-.37-.75-.23s-.86.41-1.29.62l-.39.23a2.52,2.52,0,0,0,.44.31c2.07.69,2.07.69,2.18,2.8,0,.47,0,.94,0,1.41A2.79,2.79,0,0,0,30,160a2.06,2.06,0,0,1,2.66,2.06c-.07,2.53.49,2.27,2.46,2.09.16,0,.32-.1.46-.08.83.14,1.53.46,1.63,1.41a10.12,10.12,0,0,1,0,1.35l.91-1.15C38.44,165.38,38.74,165.06,39,164.71Zm-3.35,2.43c.56-1.48.35-1.81-1.2-1.85-.22,0-.45.09-.67.11a2,2,0,0,1-2.43-2.1c0-2-.3-2.31-2.27-2.08a2.84,2.84,0,0,1-3.26-2c-.32-1.16-.33-2.39-.55-3.58-.07-.4-.28-1-.57-1.1a9.26,9.26,0,0,0-2.12-.28c-.17,0-.49,0-.49,0-.15-.89-.53-.35-.88-.17s-.92.44-1.36.69-.71.31-.1.79a2.18,2.18,0,0,1,.59,1.6,14.72,14.72,0,0,1-.42,2.43c-.28,1.58.39,2.29,1.91,2.07a6.39,6.39,0,0,1,1,0c2.18-.18,2.82.27,2.58,2.45a6.21,6.21,0,0,1,0,.75c-.17.84.1,1.35,1,1.32a12.57,12.57,0,0,0,2.22-.24c2.11-.43,3.23.43,3.22,2.55a3.48,3.48,0,0,0,0,1.07c.18.47.42,1.15.78,1.27a2.14,2.14,0,0,0,1.62-.31A7.5,7.5,0,0,0,35.5,169s0-1.26,0-1.31A3.32,3.32,0,0,1,35.63,167.14Zm-2.76,5.35c.12-.29.24-.58.37-.87a2.88,2.88,0,0,0-.9.14c-.63.33-1,.07-1.39-.4-.68-.75-.36-1.55-.35-2.33,0-1.92-1.06-2.47-2.63-2a6.1,6.1,0,0,1-2.33.23A1.58,1.58,0,0,1,24,165.73a17.51,17.51,0,0,1,.13-1.91c.05-.65-.1-1.11-.9-1s-1.43.09-2.13.19a1.73,1.73,0,0,1-2.21-1.65c-.07-1.19,0-2.38,0-3.23.67-1.47-.16-1.82-.92-2a3.48,3.48,0,0,0-1.58.43c-2.43.89-2.53,1-1.5,3.32A12.53,12.53,0,0,0,17,163.59a43.06,43.06,0,0,0,4.9,4c1.63,1.24,3.27,2.48,5,3.62,1.16.78,2.44,1.36,3.63,2.08.94.56,1.58.5,2.16-.34A2.2,2.2,0,0,0,32.87,172.49Zm-.95,7.66c.28.07.65-.29,1-.48-.54-1.58-1-2.88-1.42-4.16-.05-.13-.3-.18-.46-.27-2.14-1.22-4.34-2.34-6.4-3.69s-4.09-2.91-6.05-4.48a20.52,20.52,0,0,1-3.1-3.08,16.26,16.26,0,0,1-1.45-2.78,2.11,2.11,0,0,0-.3-.37c-.07.07-.18.13-.2.21a52.08,52.08,0,0,0-1,5.65c-.17,2.42-.27,4.79,2.31,6.48s5,3.58,7.93,4.6S28.89,179.42,31.92,180.15Z"/><path class="cls-13" d="M55,144.62c.33,1.36.64,2.72,1,4.25a20.23,20.23,0,0,1-1.37,4C52.17,157,49.55,161,47,165.06c-1.26,2-2.54,3.92-3.9,5.82s-2.82,3.68-4.25,5.5c-1.07,1.36-2.18,2.69-3.27,4A1.88,1.88,0,0,1,35,181a5,5,0,0,1-1.1.24,3.22,3.22,0,0,1,0-.88c.59-1.76-.42-3.2-.9-4.75a2,2,0,0,1,.18-1.58c1.94-2.53,4-5,6-7.49,1.47-1.89,2.91-3.81,4.29-5.76,2.86-4,5.68-8.14,8.49-12.22.9-1.31,1.72-2.66,2.58-4l.24-.36C54.83,144.33,55,144.46,55,144.62Z"/><path class="cls-13" d="M54.11,140.62c.15.22-.06.72-.17,1.09-.32,1.06-.66,2.13-1,3.18-.09.26-.31.46-.41.72-.29.73-.69,1-1.44.5a1.86,1.86,0,0,0-1.1-.19c-.62,0-.85-.1-.54-.69.07-1.3-.44-1.87-1.88-2.15a1.53,1.53,0,0,1-.39-.18c.09-.11.17-.27.29-.32,1.85-.76,3.71-1.52,5.59-2.21A1.15,1.15,0,0,1,54.11,140.62Z"/><path class="cls-12" d="M49.14,147c1.48,0,1.8.64,1.06,1.93-.25.43-.55.83-.84,1.26-.19-.11-.3-.15-.39-.22a3.93,3.93,0,0,0-3.23-.69c-.62.12-.83-.43-.76-1.13a4,4,0,0,0-.24-2.23c-.33-.57-1.17-.84-1.78-1.25-.18-.13-.34-.27-.52-.41.21-.1.41-.19.61-.3,1.37-.77,2.72-.07,4.06.08,1,.11,1,1,1,1.74S48.18,147.06,49.14,147Z"/><path class="cls-13" d="M45.9,150.36c1.83,0,2.42,1,1.6,2.65,0,0-.06.05-.08.09-.36.5-.71,1-1.07,1.52-.19-.56-.38-1.12-.59-1.67-.31-.86-1.2-1.2-2.65-1.06-.27,0-.46,0-.65,0-1.82.23-2,0-1.59-1.69s.26-2.2-1.45-2.82c-.59-.22-1.21-.34-1.81-.51-.23-.07-.45-.17-.67-.26a5.2,5.2,0,0,1,.69-.38,16.25,16.25,0,0,1,2.49-.93c1.27-.29,2.29.43,3.27,1.09a1,1,0,0,1,.38,1.47c-.8,1.68-.23,2.46,1.65,2.51Z"/><path class="cls-12" d="M42.36,153c2,0,2.38.59,2.19,2.54a6.42,6.42,0,0,1-1.48,3.82l-.33.37a4.18,4.18,0,0,0-.06-.51,28.53,28.53,0,0,0-.79-2.92,2.16,2.16,0,0,0-2.15-1.35,30.63,30.63,0,0,1-3.7-.45c-.24-.05-.55-.59-.56-.9A9.36,9.36,0,0,1,35.8,152c.27-1.36-.19-2.11-1.63-2.71l-1.61-.66c.54-.29,1.08-.8,1.63-.82a26.68,26.68,0,0,1,3.55.29,2.75,2.75,0,0,1,.79.23c1.29.56,1.48.64.95,2.07-.11.29-.18.6-.3.89-.37.86-.08,1.38.82,1.54.66.13,1.33.2,2,.3,0,0,0-.06,0-.09Z"/><path class="cls-13" d="M40.21,156.55a6,6,0,0,1,.08,6.54c-.38.46-.68.57-.84-.12s-.27-1.38-.35-1.82c.1-2.59-.92-3.79-3.2-3.79s-3-1-3.17-3c-.23-2.12-1.16-3.08-3.21-3.29a3.52,3.52,0,0,1-.61-.18c.15-.15.28-.38.47-.45a3.38,3.38,0,0,1,1.22-.34c1,0,1.94,0,2.9.13a1.18,1.18,0,0,1,1,1.6c-.16.71-.21,1.46-.31,2.19-.16,1.09.6,1.21,1.38,1.32,1.3.18,2.6.35,3.89.59A1.65,1.65,0,0,1,40.21,156.55Z"/><path class="cls-12" d="M39,164.26a.76.76,0,0,1,0,.45c-.24.35-.54.67-.81,1l-.91,1.15a10.12,10.12,0,0,0,0-1.35c-.1-.95-.8-1.27-1.63-1.41-.14,0-.3.07-.46.08-2,.18-2.53.44-2.46-2.09A2.06,2.06,0,0,0,30,160a2.79,2.79,0,0,1-3.47-2.6c0-.47,0-.94,0-1.41-.11-2.11-.11-2.11-2.18-2.8a2.52,2.52,0,0,1-.44-.31l.39-.23c.43-.21.85-.42,1.29-.62s.64-.45.75.23a1.32,1.32,0,0,0,.88.09c2.58-.78,4.28.34,4.3,3,0,2.12,1.66,3.07,3.6,3.11,1.65,0,2.82,1.06,2.65,2.29a5.1,5.1,0,0,0,0,1.56C37.94,163.1,37.76,164.12,39,164.26Z"/><path class="cls-13" d="M34.43,165.29c1.55,0,1.76.37,1.2,1.85a3.32,3.32,0,0,0-.15.54s.05,1.28,0,1.31a7.5,7.5,0,0,1-1.31,1.53,2.14,2.14,0,0,1-1.62.31c-.36-.12-.6-.8-.78-1.27a3.48,3.48,0,0,1,0-1.07c0-2.12-1.11-3-3.22-2.55a12.57,12.57,0,0,1-2.22.24c-.9,0-1.17-.48-1-1.32a6.21,6.21,0,0,0,0-.75c.24-2.18-.4-2.63-2.58-2.45a6.39,6.39,0,0,0-1,0c-1.52.22-2.19-.49-1.91-2.07a14.72,14.72,0,0,0,.42-2.43,2.18,2.18,0,0,0-.59-1.6c-.61-.48-.25-.6.1-.79s.92-.44,1.36-.69.73-.72.88.17c0,0,.32,0,.49,0a9.26,9.26,0,0,1,2.12.28c.29.1.5.7.57,1.1.22,1.19.23,2.42.55,3.58a2.84,2.84,0,0,0,3.26,2c2-.23,2.26,0,2.27,2.08a2,2,0,0,0,2.43,2.1C34,165.38,34.21,165.29,34.43,165.29Z"/><path class="cls-13" d="M33,179.67c-.39.19-.76.55-1,.48-3-.73-6.12-1.35-9.06-2.37s-5.36-2.91-7.93-4.6-2.48-4.06-2.31-6.48a52.08,52.08,0,0,1,1-5.65c0-.08.13-.14.2-.21a2.11,2.11,0,0,1,.3.37A16.26,16.26,0,0,0,15.53,164a20.52,20.52,0,0,0,3.1,3.08c2,1.57,4,3.11,6.05,4.48s4.26,2.47,6.4,3.69c.16.09.41.14.46.27C32,176.79,32.42,178.09,33,179.67Z"/></svg>